<?xml version="1.0" encoding="utf-8" standalone="no"?>
<!DOCTYPE svg PUBLIC "-//W3C//DTD SVG 1.1//EN"
  "http://www.w3.org/Graphics/SVG/1.1/DTD/svg11.dtd">
<svg xmlns:xlink="http://www.w3.org/1999/xlink" width="792pt" height="446.4pt" viewBox="0 0 792 446.4" xmlns="http://www.w3.org/2000/svg" version="1.1">
 <metadata>
  <rdf:RDF xmlns:dc="http://purl.org/dc/elements/1.1/" xmlns:cc="http://creativecommons.org/ns#" xmlns:rdf="http://www.w3.org/1999/02/22-rdf-syntax-ns#">
   <cc:Work>
    <dc:type rdf:resource="http://purl.org/dc/dcmitype/StillImage"/>
    <dc:date>2026-06-23T13:52:52.192784</dc:date>
    <dc:format>image/svg+xml</dc:format>
    <dc:creator>
     <cc:Agent>
      <dc:title>Matplotlib v3.11.0, https://matplotlib.org/</dc:title>
     </cc:Agent>
    </dc:creator>
   </cc:Work>
  </rdf:RDF>
 </metadata>
 <defs>
  <style type="text/css">*{stroke-linejoin: round; stroke-linecap: butt}</style>
 </defs>
 <g id="figure_1">
  <g id="patch_1">
   <path d="M 0 446.4 
L 792 446.4 
L 792 0 
L 0 0 
z
" style="fill: #ffffff"/>
  </g>
  <g id="axes_1">
   <g id="patch_2">
    <path d="M 80.399877 329.227261 
L 781.2 329.227261 
L 781.2 35.12 
L 80.399877 35.12 
z
" style="fill: #ffffff"/>
   </g>
   <g id="matplotlib.axis_1">
    <g id="xtick_1">
     <g id="line2d_1">
      <defs>
       <path id="mb3f656e1cb" d="M 0 0 
L 0 3.5 
" style="stroke: #000000; stroke-width: 0.8"/>
      </defs>
      <g>
       <use xlink:href="#mb3f656e1cb" x="112.254428" y="329.227261" style="stroke: #000000; stroke-width: 0.8"/>
      </g>
     </g>
     <g id="text_1">
      <!-- In-domain detector baseline -->
      <g transform="translate(16.560647 387.041224) rotate(-25) scale(0.08 -0.08)">
       <defs>
        <path id="NotoSansCJKkr-Regular-2a" d="M 646 0 
L 1235 0 
L 1235 4691 
L 646 4691 
L 646 0 
z
" transform="scale(0.015625)"/>
        <path id="NotoSansCJKkr-Regular-4f" d="M 589 0 
L 1178 0 
L 1178 2522 
C 1523 2874 1766 3053 2125 3053 
C 2586 3053 2784 2778 2784 2125 
L 2784 0 
L 3366 0 
L 3366 2202 
C 3366 3085 3034 3565 2304 3565 
C 1830 3565 1466 3302 1139 2970 
L 1126 2970 
L 1069 3475 
L 589 3475 
L 589 0 
z
" transform="scale(0.015625)"/>
        <path id="NotoSansCJKkr-Regular-e" d="M 294 1568 
L 1933 1568 
L 1933 2016 
L 294 2016 
L 294 1568 
z
" transform="scale(0.015625)"/>
        <path id="NotoSansCJKkr-Regular-45" d="M 1773 -83 
C 2189 -83 2560 141 2829 410 
L 2848 410 
L 2899 0 
L 3379 0 
L 3379 5094 
L 2790 5094 
L 2790 3757 
L 2822 3162 
C 2515 3411 2253 3565 1843 3565 
C 1050 3565 339 2861 339 1734 
C 339 576 902 -83 1773 -83 
z
M 1901 410 
C 1293 410 941 902 941 1741 
C 941 2534 1389 3072 1946 3072 
C 2234 3072 2502 2970 2790 2707 
L 2790 883 
C 2502 563 2221 410 1901 410 
z
" transform="scale(0.015625)"/>
        <path id="NotoSansCJKkr-Regular-50" d="M 1939 -83 
C 2790 -83 3546 582 3546 1734 
C 3546 2893 2790 3565 1939 3565 
C 1088 3565 333 2893 333 1734 
C 333 582 1088 -83 1939 -83 
z
M 1939 403 
C 1338 403 934 934 934 1734 
C 934 2534 1338 3072 1939 3072 
C 2541 3072 2950 2534 2950 1734 
C 2950 934 2541 403 1939 403 
z
" transform="scale(0.015625)"/>
        <path id="NotoSansCJKkr-Regular-4e" d="M 589 0 
L 1178 0 
L 1178 2522 
C 1491 2880 1786 3053 2048 3053 
C 2490 3053 2694 2778 2694 2125 
L 2694 0 
L 3277 0 
L 3277 2522 
C 3603 2880 3885 3053 4154 3053 
C 4595 3053 4800 2778 4800 2125 
L 4800 0 
L 5382 0 
L 5382 2202 
C 5382 3085 5043 3565 4333 3565 
C 3904 3565 3546 3290 3181 2899 
C 3040 3309 2758 3565 2221 3565 
C 1805 3565 1446 3302 1139 2970 
L 1126 2970 
L 1069 3475 
L 589 3475 
L 589 0 
z
" transform="scale(0.015625)"/>
        <path id="NotoSansCJKkr-Regular-42" d="M 1389 -83 
C 1818 -83 2208 141 2541 416 
L 2560 416 
L 2611 0 
L 3091 0 
L 3091 2138 
C 3091 3002 2739 3565 1888 3565 
C 1325 3565 838 3315 525 3110 
L 749 2707 
C 1024 2893 1389 3078 1792 3078 
C 2362 3078 2509 2650 2509 2202 
C 1030 2035 378 1658 378 902 
C 378 275 806 -83 1389 -83 
z
M 1555 390 
C 1210 390 941 544 941 941 
C 941 1389 1338 1677 2509 1811 
L 2509 845 
C 2170 544 1888 390 1555 390 
z
" transform="scale(0.015625)"/>
        <path id="NotoSansCJKkr-Regular-4a" d="M 589 0 
L 1178 0 
L 1178 3475 
L 589 3475 
L 589 0 
z
M 883 4192 
C 1114 4192 1274 4346 1274 4582 
C 1274 4806 1114 4960 883 4960 
C 653 4960 499 4806 499 4582 
C 499 4346 653 4192 883 4192 
z
" transform="scale(0.015625)"/>
        <path id="NotoSansCJKkr-Regular-1" transform="scale(0.015625)"/>
        <path id="NotoSansCJKkr-Regular-46" d="M 1997 -83 
C 2464 -83 2835 70 3136 269 
L 2931 659 
C 2669 486 2400 384 2061 384 
C 1402 384 947 858 909 1600 
L 3251 1600 
C 3264 1690 3277 1805 3277 1933 
C 3277 2925 2778 3565 1888 3565 
C 1094 3565 333 2867 333 1734 
C 333 589 1069 -83 1997 -83 
z
M 902 2016 
C 973 2707 1408 3098 1901 3098 
C 2445 3098 2765 2720 2765 2016 
L 902 2016 
z
" transform="scale(0.015625)"/>
        <path id="NotoSansCJKkr-Regular-55" d="M 1677 -83 
C 1894 -83 2125 -19 2323 45 
L 2208 486 
C 2093 435 1939 390 1811 390 
C 1408 390 1274 634 1274 1056 
L 1274 3002 
L 2221 3002 
L 2221 3475 
L 1274 3475 
L 1274 4454 
L 787 4454 
L 723 3475 
L 173 3443 
L 173 3002 
L 691 3002 
L 691 1075 
C 691 378 941 -83 1677 -83 
z
" transform="scale(0.015625)"/>
        <path id="NotoSansCJKkr-Regular-44" d="M 1958 -83 
C 2374 -83 2771 83 3085 352 
L 2829 749 
C 2611 557 2330 403 2010 403 
C 1370 403 934 934 934 1734 
C 934 2534 1395 3072 2029 3072 
C 2298 3072 2522 2950 2720 2771 
L 3014 3155 
C 2771 3373 2458 3565 2003 3565 
C 1107 3565 333 2893 333 1734 
C 333 582 1037 -83 1958 -83 
z
" transform="scale(0.015625)"/>
        <path id="NotoSansCJKkr-Regular-53" d="M 589 0 
L 1178 0 
L 1178 2234 
C 1408 2822 1760 3040 2048 3040 
C 2195 3040 2272 3021 2387 2982 
L 2496 3488 
C 2387 3546 2278 3565 2125 3565 
C 1741 3565 1382 3283 1139 2842 
L 1126 2842 
L 1069 3475 
L 589 3475 
L 589 0 
z
" transform="scale(0.015625)"/>
        <path id="NotoSansCJKkr-Regular-43" d="M 2118 -83 
C 2912 -83 3629 602 3629 1792 
C 3629 2867 3142 3565 2246 3565 
C 1856 3565 1472 3347 1152 3078 
L 1178 3699 
L 1178 5094 
L 589 5094 
L 589 0 
L 1056 0 
L 1107 358 
L 1133 358 
C 1434 83 1798 -83 2118 -83 
z
M 2022 410 
C 1792 410 1478 499 1178 768 
L 1178 2598 
C 1504 2906 1811 3072 2099 3072 
C 2765 3072 3021 2560 3021 1786 
C 3021 928 2598 410 2022 410 
z
" transform="scale(0.015625)"/>
        <path id="NotoSansCJKkr-Regular-54" d="M 1498 -83 
C 2317 -83 2758 384 2758 947 
C 2758 1606 2208 1811 1702 2003 
C 1312 2150 954 2278 954 2605 
C 954 2880 1158 3110 1600 3110 
C 1907 3110 2150 2976 2387 2803 
L 2669 3168 
C 2406 3386 2022 3565 1594 3565 
C 832 3565 397 3130 397 2579 
C 397 1984 922 1754 1408 1574 
C 1792 1434 2202 1267 2202 915 
C 2202 614 1978 371 1517 371 
C 1101 371 794 538 486 787 
L 205 397 
C 531 122 1005 -83 1498 -83 
z
" transform="scale(0.015625)"/>
        <path id="NotoSansCJKkr-Regular-4d" d="M 1203 -83 
C 1363 -83 1459 -58 1542 -32 
L 1459 416 
C 1395 403 1370 403 1338 403 
C 1248 403 1178 474 1178 653 
L 1178 5094 
L 589 5094 
L 589 691 
C 589 198 768 -83 1203 -83 
z
" transform="scale(0.015625)"/>
       </defs>
       <use xlink:href="#NotoSansCJKkr-Regular-2a"/>
       <use xlink:href="#NotoSansCJKkr-Regular-4f" transform="translate(29.296875 0)"/>
       <use xlink:href="#NotoSansCJKkr-Regular-e" transform="translate(90.296875 0)"/>
       <use xlink:href="#NotoSansCJKkr-Regular-45" transform="translate(125 0)"/>
       <use xlink:href="#NotoSansCJKkr-Regular-50" transform="translate(187 0)"/>
       <use xlink:href="#NotoSansCJKkr-Regular-4e" transform="translate(247.59375 0)"/>
       <use xlink:href="#NotoSansCJKkr-Regular-42" transform="translate(340.1875 0)"/>
       <use xlink:href="#NotoSansCJKkr-Regular-4a" transform="translate(396.484375 0)"/>
       <use xlink:href="#NotoSansCJKkr-Regular-4f" transform="translate(423.984375 0)"/>
       <use xlink:href="#NotoSansCJKkr-Regular-1" transform="translate(484.984375 0)"/>
       <use xlink:href="#NotoSansCJKkr-Regular-45" transform="translate(507.390625 0)"/>
       <use xlink:href="#NotoSansCJKkr-Regular-46" transform="translate(569.390625 0)"/>
       <use xlink:href="#NotoSansCJKkr-Regular-55" transform="translate(623.703125 0)"/>
       <use xlink:href="#NotoSansCJKkr-Regular-46" transform="translate(659.90625 0)"/>
       <use xlink:href="#NotoSansCJKkr-Regular-44" transform="translate(715.3125 0)"/>
       <use xlink:href="#NotoSansCJKkr-Regular-55" transform="translate(765.21875 0)"/>
       <use xlink:href="#NotoSansCJKkr-Regular-50" transform="translate(801.421875 0)"/>
       <use xlink:href="#NotoSansCJKkr-Regular-53" transform="translate(862.015625 0)"/>
       <use xlink:href="#NotoSansCJKkr-Regular-1" transform="translate(900.8125 0)"/>
       <use xlink:href="#NotoSansCJKkr-Regular-43" transform="translate(923.21875 0)"/>
       <use xlink:href="#NotoSansCJKkr-Regular-42" transform="translate(983.421875 0)"/>
       <use xlink:href="#NotoSansCJKkr-Regular-54" transform="translate(1039.71875 0)"/>
       <use xlink:href="#NotoSansCJKkr-Regular-46" transform="translate(1086.515625 0)"/>
       <use xlink:href="#NotoSansCJKkr-Regular-4d" transform="translate(1141.921875 0)"/>
       <use xlink:href="#NotoSansCJKkr-Regular-4a" transform="translate(1170.328125 0)"/>
       <use xlink:href="#NotoSansCJKkr-Regular-4f" transform="translate(1197.828125 0)"/>
       <use xlink:href="#NotoSansCJKkr-Regular-46" transform="translate(1258.828125 0)"/>
      </g>
     </g>
    </g>
    <g id="xtick_2">
     <g id="line2d_2">
      <g>
       <use xlink:href="#mb3f656e1cb" x="430.799938" y="329.227261" style="stroke: #000000; stroke-width: 0.8"/>
      </g>
     </g>
     <g id="text_2">
      <!-- Cross-domain reliability stress -->
      <g transform="translate(328.096541 390.130035) rotate(-25) scale(0.08 -0.08)">
       <defs>
        <path id="NotoSansCJKkr-Regular-24" d="M 2413 -83 
C 3021 -83 3482 160 3853 589 
L 3526 966 
C 3226 634 2886 435 2438 435 
C 1542 435 979 1178 979 2362 
C 979 3533 1574 4256 2458 4256 
C 2861 4256 3168 4077 3418 3814 
L 3738 4198 
C 3469 4499 3021 4774 2451 4774 
C 1261 4774 371 3859 371 2342 
C 371 819 1242 -83 2413 -83 
z
" transform="scale(0.015625)"/>
        <path id="NotoSansCJKkr-Regular-5a" d="M 646 -1498 
C 1338 -1498 1702 -973 1946 -294 
L 3251 3475 
L 2682 3475 
L 2054 1549 
C 1965 1235 1862 883 1773 563 
L 1741 563 
C 1619 890 1504 1242 1395 1549 
L 691 3475 
L 83 3475 
L 1478 -6 
L 1402 -269 
C 1254 -698 1011 -1018 621 -1018 
C 525 -1018 422 -986 352 -960 
L 237 -1427 
C 346 -1472 486 -1498 646 -1498 
z
" transform="scale(0.015625)"/>
       </defs>
       <use xlink:href="#NotoSansCJKkr-Regular-24"/>
       <use xlink:href="#NotoSansCJKkr-Regular-53" transform="translate(63.796875 0)"/>
       <use xlink:href="#NotoSansCJKkr-Regular-50" transform="translate(101.5 0)"/>
       <use xlink:href="#NotoSansCJKkr-Regular-54" transform="translate(162.09375 0)"/>
       <use xlink:href="#NotoSansCJKkr-Regular-54" transform="translate(208.890625 0)"/>
       <use xlink:href="#NotoSansCJKkr-Regular-e" transform="translate(256.78125 0)"/>
       <use xlink:href="#NotoSansCJKkr-Regular-45" transform="translate(291.484375 0)"/>
       <use xlink:href="#NotoSansCJKkr-Regular-50" transform="translate(353.484375 0)"/>
       <use xlink:href="#NotoSansCJKkr-Regular-4e" transform="translate(414.078125 0)"/>
       <use xlink:href="#NotoSansCJKkr-Regular-42" transform="translate(506.671875 0)"/>
       <use xlink:href="#NotoSansCJKkr-Regular-4a" transform="translate(562.96875 0)"/>
       <use xlink:href="#NotoSansCJKkr-Regular-4f" transform="translate(590.46875 0)"/>
       <use xlink:href="#NotoSansCJKkr-Regular-1" transform="translate(651.46875 0)"/>
       <use xlink:href="#NotoSansCJKkr-Regular-53" transform="translate(673.875 0)"/>
       <use xlink:href="#NotoSansCJKkr-Regular-46" transform="translate(711.578125 0)"/>
       <use xlink:href="#NotoSansCJKkr-Regular-4d" transform="translate(766.984375 0)"/>
       <use xlink:href="#NotoSansCJKkr-Regular-4a" transform="translate(795.390625 0)"/>
       <use xlink:href="#NotoSansCJKkr-Regular-42" transform="translate(822.890625 0)"/>
       <use xlink:href="#NotoSansCJKkr-Regular-43" transform="translate(879.1875 0)"/>
       <use xlink:href="#NotoSansCJKkr-Regular-4a" transform="translate(940.984375 0)"/>
       <use xlink:href="#NotoSansCJKkr-Regular-4d" transform="translate(968.484375 0)"/>
       <use xlink:href="#NotoSansCJKkr-Regular-4a" transform="translate(996.890625 0)"/>
       <use xlink:href="#NotoSansCJKkr-Regular-55" transform="translate(1024.390625 0)"/>
       <use xlink:href="#NotoSansCJKkr-Regular-5a" transform="translate(1062.09375 0)"/>
       <use xlink:href="#NotoSansCJKkr-Regular-1" transform="translate(1114.1875 0)"/>
       <use xlink:href="#NotoSansCJKkr-Regular-54" transform="translate(1136.59375 0)"/>
       <use xlink:href="#NotoSansCJKkr-Regular-55" transform="translate(1181.1875 0)"/>
       <use xlink:href="#NotoSansCJKkr-Regular-53" transform="translate(1218.890625 0)"/>
       <use xlink:href="#NotoSansCJKkr-Regular-46" transform="translate(1256.59375 0)"/>
       <use xlink:href="#NotoSansCJKkr-Regular-54" transform="translate(1312 0)"/>
       <use xlink:href="#NotoSansCJKkr-Regular-54" transform="translate(1358.796875 0)"/>
      </g>
     </g>
    </g>
    <g id="xtick_3">
     <g id="line2d_3">
      <g>
       <use xlink:href="#mb3f656e1cb" x="749.345449" y="329.227261" style="stroke: #000000; stroke-width: 0.8"/>
      </g>
     </g>
     <g id="text_3">
      <!-- Review-band triage on shifted domain -->
      <g transform="translate(620.084329 402.488978) rotate(-25) scale(0.08 -0.08)">
       <defs>
        <path id="NotoSansCJKkr-Regular-33" d="M 1235 2464 
L 1235 4211 
L 2022 4211 
C 2758 4211 3162 3994 3162 3379 
C 3162 2765 2758 2464 2022 2464 
L 1235 2464 
z
M 3219 0 
L 3885 0 
L 2694 2054 
C 3328 2208 3750 2643 3750 3379 
C 3750 4352 3066 4691 2112 4691 
L 646 4691 
L 646 0 
L 1235 0 
L 1235 1990 
L 2080 1990 
L 3219 0 
z
" transform="scale(0.015625)"/>
        <path id="NotoSansCJKkr-Regular-57" d="M 1338 0 
L 2022 0 
L 3251 3475 
L 2675 3475 
L 2016 1498 
C 1914 1158 1798 806 1696 474 
L 1664 474 
C 1562 806 1453 1158 1344 1498 
L 691 3475 
L 83 3475 
L 1338 0 
z
" transform="scale(0.015625)"/>
        <path id="NotoSansCJKkr-Regular-58" d="M 1139 0 
L 1818 0 
L 2310 1862 
C 2400 2195 2470 2522 2547 2874 
L 2579 2874 
C 2662 2522 2726 2202 2816 1875 
L 3315 0 
L 4026 0 
L 4966 3475 
L 4403 3475 
L 3898 1466 
C 3821 1133 3757 819 3686 499 
L 3654 499 
C 3571 819 3494 1133 3411 1466 
L 2867 3475 
L 2298 3475 
L 1754 1466 
C 1670 1133 1594 819 1523 499 
L 1491 499 
C 1421 819 1357 1133 1286 1466 
L 768 3475 
L 173 3475 
L 1139 0 
z
" transform="scale(0.015625)"/>
        <path id="NotoSansCJKkr-Regular-48" d="M 1760 -1600 
C 2835 -1600 3520 -1043 3520 -397 
C 3520 179 3110 429 2310 429 
L 1626 429 
C 1158 429 1018 589 1018 806 
C 1018 998 1114 1114 1242 1222 
C 1395 1146 1587 1101 1754 1101 
C 2470 1101 3027 1568 3027 2310 
C 3027 2611 2912 2867 2746 3027 
L 3456 3027 
L 3456 3475 
L 2246 3475 
C 2125 3526 1952 3565 1754 3565 
C 1056 3565 454 3085 454 2323 
C 454 1907 678 1568 909 1389 
L 909 1363 
C 723 1235 525 1005 525 717 
C 525 442 659 256 838 147 
L 838 115 
C 512 -83 326 -371 326 -672 
C 326 -1267 915 -1600 1760 -1600 
z
M 1754 1498 
C 1357 1498 1018 1818 1018 2323 
C 1018 2835 1350 3136 1754 3136 
C 2170 3136 2496 2835 2496 2323 
C 2496 1818 2157 1498 1754 1498 
z
M 1843 -1197 
C 1210 -1197 838 -960 838 -589 
C 838 -390 941 -179 1190 0 
C 1344 -38 1510 -51 1638 -51 
L 2240 -51 
C 2701 -51 2944 -166 2944 -493 
C 2944 -851 2515 -1197 1843 -1197 
z
" transform="scale(0.015625)"/>
        <path id="NotoSansCJKkr-Regular-49" d="M 589 0 
L 1178 0 
L 1178 2522 
C 1523 2874 1766 3053 2125 3053 
C 2586 3053 2784 2778 2784 2125 
L 2784 0 
L 3366 0 
L 3366 2202 
C 3366 3085 3034 3565 2304 3565 
C 1830 3565 1472 3302 1152 2982 
L 1178 3699 
L 1178 5094 
L 589 5094 
L 589 0 
z
" transform="scale(0.015625)"/>
        <path id="NotoSansCJKkr-Regular-47" d="M 211 3002 
L 685 3002 
L 685 0 
L 1267 0 
L 1267 3002 
L 2003 3002 
L 2003 3475 
L 1267 3475 
L 1267 4026 
C 1267 4474 1427 4710 1760 4710 
C 1882 4710 2022 4678 2150 4614 
L 2278 5069 
C 2118 5133 1914 5178 1696 5178 
C 1005 5178 685 4736 685 4032 
L 685 3475 
L 211 3443 
L 211 3002 
z
" transform="scale(0.015625)"/>
       </defs>
       <use xlink:href="#NotoSansCJKkr-Regular-33"/>
       <use xlink:href="#NotoSansCJKkr-Regular-46" transform="translate(62.40625 0)"/>
       <use xlink:href="#NotoSansCJKkr-Regular-57" transform="translate(118.3125 0)"/>
       <use xlink:href="#NotoSansCJKkr-Regular-4a" transform="translate(170.40625 0)"/>
       <use xlink:href="#NotoSansCJKkr-Regular-46" transform="translate(197.90625 0)"/>
       <use xlink:href="#NotoSansCJKkr-Regular-58" transform="translate(253.8125 0)"/>
       <use xlink:href="#NotoSansCJKkr-Regular-e" transform="translate(334.015625 0)"/>
       <use xlink:href="#NotoSansCJKkr-Regular-43" transform="translate(368.71875 0)"/>
       <use xlink:href="#NotoSansCJKkr-Regular-42" transform="translate(428.921875 0)"/>
       <use xlink:href="#NotoSansCJKkr-Regular-4f" transform="translate(485.21875 0)"/>
       <use xlink:href="#NotoSansCJKkr-Regular-45" transform="translate(546.21875 0)"/>
       <use xlink:href="#NotoSansCJKkr-Regular-1" transform="translate(608.21875 0)"/>
       <use xlink:href="#NotoSansCJKkr-Regular-55" transform="translate(630.625 0)"/>
       <use xlink:href="#NotoSansCJKkr-Regular-53" transform="translate(668.328125 0)"/>
       <use xlink:href="#NotoSansCJKkr-Regular-4a" transform="translate(707.125 0)"/>
       <use xlink:href="#NotoSansCJKkr-Regular-42" transform="translate(734.625 0)"/>
       <use xlink:href="#NotoSansCJKkr-Regular-48" transform="translate(790.921875 0)"/>
       <use xlink:href="#NotoSansCJKkr-Regular-46" transform="translate(845.828125 0)"/>
       <use xlink:href="#NotoSansCJKkr-Regular-1" transform="translate(901.234375 0)"/>
       <use xlink:href="#NotoSansCJKkr-Regular-50" transform="translate(923.640625 0)"/>
       <use xlink:href="#NotoSansCJKkr-Regular-4f" transform="translate(984.234375 0)"/>
       <use xlink:href="#NotoSansCJKkr-Regular-1" transform="translate(1045.234375 0)"/>
       <use xlink:href="#NotoSansCJKkr-Regular-54" transform="translate(1067.640625 0)"/>
       <use xlink:href="#NotoSansCJKkr-Regular-49" transform="translate(1114.4375 0)"/>
       <use xlink:href="#NotoSansCJKkr-Regular-4a" transform="translate(1175.140625 0)"/>
       <use xlink:href="#NotoSansCJKkr-Regular-47" transform="translate(1202.640625 0)"/>
       <use xlink:href="#NotoSansCJKkr-Regular-55" transform="translate(1235.140625 0)"/>
       <use xlink:href="#NotoSansCJKkr-Regular-46" transform="translate(1271.34375 0)"/>
       <use xlink:href="#NotoSansCJKkr-Regular-45" transform="translate(1326.75 0)"/>
       <use xlink:href="#NotoSansCJKkr-Regular-1" transform="translate(1388.75 0)"/>
       <use xlink:href="#NotoSansCJKkr-Regular-45" transform="translate(1411.15625 0)"/>
       <use xlink:href="#NotoSansCJKkr-Regular-50" transform="translate(1473.15625 0)"/>
       <use xlink:href="#NotoSansCJKkr-Regular-4e" transform="translate(1533.75 0)"/>
       <use xlink:href="#NotoSansCJKkr-Regular-42" transform="translate(1626.34375 0)"/>
       <use xlink:href="#NotoSansCJKkr-Regular-4a" transform="translate(1682.640625 0)"/>
       <use xlink:href="#NotoSansCJKkr-Regular-4f" transform="translate(1710.140625 0)"/>
      </g>
     </g>
    </g>
    <g id="text_4">
     <!-- condition -->
     <g transform="translate(408.47572 417.101594) scale(0.1 -0.1)">
      <use xlink:href="#NotoSansCJKkr-Regular-44"/>
      <use xlink:href="#NotoSansCJKkr-Regular-50" transform="translate(48.59375 0)"/>
      <use xlink:href="#NotoSansCJKkr-Regular-4f" transform="translate(109.1875 0)"/>
      <use xlink:href="#NotoSansCJKkr-Regular-45" transform="translate(170.1875 0)"/>
      <use xlink:href="#NotoSansCJKkr-Regular-4a" transform="translate(232.1875 0)"/>
      <use xlink:href="#NotoSansCJKkr-Regular-55" transform="translate(259.6875 0)"/>
      <use xlink:href="#NotoSansCJKkr-Regular-4a" transform="translate(297.390625 0)"/>
      <use xlink:href="#NotoSansCJKkr-Regular-50" transform="translate(324.890625 0)"/>
      <use xlink:href="#NotoSansCJKkr-Regular-4f" transform="translate(385.484375 0)"/>
     </g>
    </g>
   </g>
   <g id="matplotlib.axis_2">
    <g id="ytick_1">
     <g id="line2d_4">
      <path d="M 80.399877 315.85875 
L 781.2 315.85875 
" clip-path="url(#pda78423f97)" style="fill: none; stroke: #b0b0b0; stroke-opacity: 0.25; stroke-width: 0.8; stroke-linecap: square"/>
     </g>
     <g id="line2d_5">
      <defs>
       <path id="m68289033cf" d="M 0 0 
L -3.5 0 
" style="stroke: #000000; stroke-width: 0.8"/>
      </defs>
      <g>
       <use xlink:href="#m68289033cf" x="80.399877" y="315.85875" style="stroke: #000000; stroke-width: 0.8"/>
      </g>
     </g>
     <g id="text_5">
      <!-- 0.0 -->
      <g transform="translate(59.520189 320.25875) scale(0.1 -0.1)">
       <defs>
        <path id="NotoSansCJKkr-Regular-11" d="M 1779 -83 
C 2669 -83 3238 723 3238 2362 
C 3238 3987 2669 4774 1779 4774 
C 883 4774 320 3987 320 2362 
C 320 723 883 -83 1779 -83 
z
M 1779 390 
C 1248 390 883 986 883 2362 
C 883 3731 1248 4314 1779 4314 
C 2310 4314 2675 3731 2675 2362 
C 2675 986 2310 390 1779 390 
z
" transform="scale(0.015625)"/>
        <path id="NotoSansCJKkr-Regular-f" d="M 890 -83 
C 1120 -83 1312 96 1312 358 
C 1312 627 1120 806 890 806 
C 653 806 467 627 467 358 
C 467 96 653 -83 890 -83 
z
" transform="scale(0.015625)"/>
       </defs>
       <use xlink:href="#NotoSansCJKkr-Regular-11"/>
       <use xlink:href="#NotoSansCJKkr-Regular-f" transform="translate(55.5 0)"/>
       <use xlink:href="#NotoSansCJKkr-Regular-11" transform="translate(83.296875 0)"/>
      </g>
     </g>
    </g>
    <g id="ytick_2">
     <g id="line2d_6">
      <path d="M 80.399877 262.384702 
L 781.2 262.384702 
" clip-path="url(#pda78423f97)" style="fill: none; stroke: #b0b0b0; stroke-opacity: 0.25; stroke-width: 0.8; stroke-linecap: square"/>
     </g>
     <g id="line2d_7">
      <g>
       <use xlink:href="#m68289033cf" x="80.399877" y="262.384702" style="stroke: #000000; stroke-width: 0.8"/>
      </g>
     </g>
     <g id="text_6">
      <!-- 0.2 -->
      <g transform="translate(59.520189 266.784702) scale(0.1 -0.1)">
       <defs>
        <path id="NotoSansCJKkr-Regular-13" d="M 282 0 
L 3232 0 
L 3232 506 
L 1933 506 
C 1696 506 1408 480 1165 461 
C 2266 1504 3008 2458 3008 3398 
C 3008 4230 2477 4774 1638 4774 
C 1043 4774 634 4506 256 4090 
L 595 3757 
C 858 4070 1184 4301 1568 4301 
C 2150 4301 2432 3910 2432 3373 
C 2432 2566 1754 1632 282 346 
L 282 0 
z
" transform="scale(0.015625)"/>
       </defs>
       <use xlink:href="#NotoSansCJKkr-Regular-11"/>
       <use xlink:href="#NotoSansCJKkr-Regular-f" transform="translate(55.5 0)"/>
       <use xlink:href="#NotoSansCJKkr-Regular-13" transform="translate(83.296875 0)"/>
      </g>
     </g>
    </g>
    <g id="ytick_3">
     <g id="line2d_8">
      <path d="M 80.399877 208.910654 
L 781.2 208.910654 
" clip-path="url(#pda78423f97)" style="fill: none; stroke: #b0b0b0; stroke-opacity: 0.25; stroke-width: 0.8; stroke-linecap: square"/>
     </g>
     <g id="line2d_9">
      <g>
       <use xlink:href="#m68289033cf" x="80.399877" y="208.910654" style="stroke: #000000; stroke-width: 0.8"/>
      </g>
     </g>
     <g id="text_7">
      <!-- 0.4 -->
      <g transform="translate(59.520189 213.310654) scale(0.1 -0.1)">
       <defs>
        <path id="NotoSansCJKkr-Regular-15" d="M 2176 0 
L 2726 0 
L 2726 1293 
L 3354 1293 
L 3354 1760 
L 2726 1760 
L 2726 4691 
L 2080 4691 
L 128 1677 
L 128 1293 
L 2176 1293 
L 2176 0 
z
M 2176 1760 
L 736 1760 
L 1805 3360 
C 1939 3590 2067 3827 2182 4051 
L 2208 4051 
C 2195 3814 2176 3430 2176 3200 
L 2176 1760 
z
" transform="scale(0.015625)"/>
       </defs>
       <use xlink:href="#NotoSansCJKkr-Regular-11"/>
       <use xlink:href="#NotoSansCJKkr-Regular-f" transform="translate(55.5 0)"/>
       <use xlink:href="#NotoSansCJKkr-Regular-15" transform="translate(83.296875 0)"/>
      </g>
     </g>
    </g>
    <g id="ytick_4">
     <g id="line2d_10">
      <path d="M 80.399877 155.436607 
L 781.2 155.436607 
" clip-path="url(#pda78423f97)" style="fill: none; stroke: #b0b0b0; stroke-opacity: 0.25; stroke-width: 0.8; stroke-linecap: square"/>
     </g>
     <g id="line2d_11">
      <g>
       <use xlink:href="#m68289033cf" x="80.399877" y="155.436607" style="stroke: #000000; stroke-width: 0.8"/>
      </g>
     </g>
     <g id="text_8">
      <!-- 0.6 -->
      <g transform="translate(59.520189 159.836607) scale(0.1 -0.1)">
       <defs>
        <path id="NotoSansCJKkr-Regular-17" d="M 1926 -83 
C 2656 -83 3277 531 3277 1440 
C 3277 2426 2765 2912 1971 2912 
C 1606 2912 1197 2701 909 2349 
C 934 3802 1466 4294 2118 4294 
C 2400 4294 2682 4154 2861 3936 
L 3194 4294 
C 2931 4576 2579 4774 2093 4774 
C 1184 4774 358 4077 358 2240 
C 358 691 1030 -83 1926 -83 
z
M 922 1882 
C 1229 2317 1587 2477 1875 2477 
C 2445 2477 2720 2074 2720 1440 
C 2720 800 2374 378 1926 378 
C 1338 378 986 909 922 1882 
z
" transform="scale(0.015625)"/>
       </defs>
       <use xlink:href="#NotoSansCJKkr-Regular-11"/>
       <use xlink:href="#NotoSansCJKkr-Regular-f" transform="translate(55.5 0)"/>
       <use xlink:href="#NotoSansCJKkr-Regular-17" transform="translate(83.296875 0)"/>
      </g>
     </g>
    </g>
    <g id="ytick_5">
     <g id="line2d_12">
      <path d="M 80.399877 101.962559 
L 781.2 101.962559 
" clip-path="url(#pda78423f97)" style="fill: none; stroke: #b0b0b0; stroke-opacity: 0.25; stroke-width: 0.8; stroke-linecap: square"/>
     </g>
     <g id="line2d_13">
      <g>
       <use xlink:href="#m68289033cf" x="80.399877" y="101.962559" style="stroke: #000000; stroke-width: 0.8"/>
      </g>
     </g>
     <g id="text_9">
      <!-- 0.8 -->
      <g transform="translate(59.520189 106.362559) scale(0.1 -0.1)">
       <defs>
        <path id="NotoSansCJKkr-Regular-19" d="M 1792 -83 
C 2669 -83 3258 448 3258 1126 
C 3258 1773 2880 2125 2470 2362 
L 2470 2394 
C 2746 2611 3091 3034 3091 3526 
C 3091 4250 2605 4762 1805 4762 
C 1075 4762 518 4282 518 3571 
C 518 3078 813 2726 1152 2490 
L 1152 2464 
C 723 2234 294 1792 294 1165 
C 294 442 922 -83 1792 -83 
z
M 2112 2547 
C 1555 2765 1050 3014 1050 3571 
C 1050 4026 1363 4326 1798 4326 
C 2298 4326 2592 3962 2592 3494 
C 2592 3149 2426 2829 2112 2547 
z
M 1798 352 
C 1235 352 813 717 813 1216 
C 813 1664 1082 2035 1459 2278 
C 2125 2010 2701 1779 2701 1146 
C 2701 678 2342 352 1798 352 
z
" transform="scale(0.015625)"/>
       </defs>
       <use xlink:href="#NotoSansCJKkr-Regular-11"/>
       <use xlink:href="#NotoSansCJKkr-Regular-f" transform="translate(55.5 0)"/>
       <use xlink:href="#NotoSansCJKkr-Regular-19" transform="translate(83.296875 0)"/>
      </g>
     </g>
    </g>
    <g id="ytick_6">
     <g id="line2d_14">
      <path d="M 80.399877 48.488512 
L 781.2 48.488512 
" clip-path="url(#pda78423f97)" style="fill: none; stroke: #b0b0b0; stroke-opacity: 0.25; stroke-width: 0.8; stroke-linecap: square"/>
     </g>
     <g id="line2d_15">
      <g>
       <use xlink:href="#m68289033cf" x="80.399877" y="48.488512" style="stroke: #000000; stroke-width: 0.8"/>
      </g>
     </g>
     <g id="text_10">
      <!-- 1.0 -->
      <g transform="translate(59.520189 52.888512) scale(0.1 -0.1)">
       <defs>
        <path id="NotoSansCJKkr-Regular-12" d="M 563 0 
L 3136 0 
L 3136 486 
L 2195 486 
L 2195 4691 
L 1747 4691 
C 1491 4544 1190 4435 774 4358 
L 774 3987 
L 1613 3987 
L 1613 486 
L 563 486 
L 563 0 
z
" transform="scale(0.015625)"/>
       </defs>
       <use xlink:href="#NotoSansCJKkr-Regular-12"/>
       <use xlink:href="#NotoSansCJKkr-Regular-f" transform="translate(55.5 0)"/>
       <use xlink:href="#NotoSansCJKkr-Regular-11" transform="translate(83.296875 0)"/>
      </g>
     </g>
    </g>
    <g id="text_11">
     <!-- Metric value (unitless unless noted) -->
     <g transform="translate(53.560814 263.931443) rotate(-90) scale(0.1 -0.1)">
      <defs>
       <path id="NotoSansCJKkr-Regular-2e" d="M 646 0 
L 1178 0 
L 1178 2598 
C 1178 3002 1139 3571 1101 3981 
L 1126 3981 
L 1504 2912 
L 2394 474 
L 2790 474 
L 3674 2912 
L 4051 3981 
L 4077 3981 
C 4045 3571 4000 3002 4000 2598 
L 4000 0 
L 4550 0 
L 4550 4691 
L 3840 4691 
L 2944 2182 
C 2835 1862 2739 1530 2618 1203 
L 2592 1203 
C 2477 1530 2374 1862 2253 2182 
L 1357 4691 
L 646 4691 
L 646 0 
z
" transform="scale(0.015625)"/>
       <path id="NotoSansCJKkr-Regular-56" d="M 1606 -83 
C 2080 -83 2426 166 2752 544 
L 2771 544 
L 2816 0 
L 3302 0 
L 3302 3475 
L 2720 3475 
L 2720 1011 
C 2387 602 2138 422 1779 422 
C 1318 422 1126 698 1126 1344 
L 1126 3475 
L 538 3475 
L 538 1274 
C 538 384 870 -83 1606 -83 
z
" transform="scale(0.015625)"/>
       <path id="NotoSansCJKkr-Regular-9" d="M 1530 -1254 
L 1888 -1094 
C 1338 -186 1075 902 1075 1990 
C 1075 3072 1338 4154 1888 5069 
L 1530 5235 
C 941 4275 589 3245 589 1990 
C 589 730 941 -301 1530 -1254 
z
" transform="scale(0.015625)"/>
       <path id="NotoSansCJKkr-Regular-a" d="M 634 -1254 
C 1222 -301 1574 730 1574 1990 
C 1574 3245 1222 4275 634 5235 
L 269 5069 
C 819 4154 1094 3072 1094 1990 
C 1094 902 819 -186 269 -1094 
L 634 -1254 
z
" transform="scale(0.015625)"/>
      </defs>
      <use xlink:href="#NotoSansCJKkr-Regular-2e"/>
      <use xlink:href="#NotoSansCJKkr-Regular-46" transform="translate(81.203125 0)"/>
      <use xlink:href="#NotoSansCJKkr-Regular-55" transform="translate(135.515625 0)"/>
      <use xlink:href="#NotoSansCJKkr-Regular-53" transform="translate(173.21875 0)"/>
      <use xlink:href="#NotoSansCJKkr-Regular-4a" transform="translate(212.015625 0)"/>
      <use xlink:href="#NotoSansCJKkr-Regular-44" transform="translate(239.515625 0)"/>
      <use xlink:href="#NotoSansCJKkr-Regular-1" transform="translate(290.515625 0)"/>
      <use xlink:href="#NotoSansCJKkr-Regular-57" transform="translate(312.921875 0)"/>
      <use xlink:href="#NotoSansCJKkr-Regular-42" transform="translate(362.8125 0)"/>
      <use xlink:href="#NotoSansCJKkr-Regular-4d" transform="translate(419.109375 0)"/>
      <use xlink:href="#NotoSansCJKkr-Regular-56" transform="translate(447.515625 0)"/>
      <use xlink:href="#NotoSansCJKkr-Regular-46" transform="translate(508.21875 0)"/>
      <use xlink:href="#NotoSansCJKkr-Regular-1" transform="translate(563.625 0)"/>
      <use xlink:href="#NotoSansCJKkr-Regular-9" transform="translate(586.03125 0)"/>
      <use xlink:href="#NotoSansCJKkr-Regular-56" transform="translate(619.828125 0)"/>
      <use xlink:href="#NotoSansCJKkr-Regular-4f" transform="translate(680.53125 0)"/>
      <use xlink:href="#NotoSansCJKkr-Regular-4a" transform="translate(741.53125 0)"/>
      <use xlink:href="#NotoSansCJKkr-Regular-55" transform="translate(769.03125 0)"/>
      <use xlink:href="#NotoSansCJKkr-Regular-4d" transform="translate(806.734375 0)"/>
      <use xlink:href="#NotoSansCJKkr-Regular-46" transform="translate(835.140625 0)"/>
      <use xlink:href="#NotoSansCJKkr-Regular-54" transform="translate(890.546875 0)"/>
      <use xlink:href="#NotoSansCJKkr-Regular-54" transform="translate(937.34375 0)"/>
      <use xlink:href="#NotoSansCJKkr-Regular-1" transform="translate(984.140625 0)"/>
      <use xlink:href="#NotoSansCJKkr-Regular-56" transform="translate(1006.546875 0)"/>
      <use xlink:href="#NotoSansCJKkr-Regular-4f" transform="translate(1067.25 0)"/>
      <use xlink:href="#NotoSansCJKkr-Regular-4d" transform="translate(1128.25 0)"/>
      <use xlink:href="#NotoSansCJKkr-Regular-46" transform="translate(1156.65625 0)"/>
      <use xlink:href="#NotoSansCJKkr-Regular-54" transform="translate(1212.0625 0)"/>
      <use xlink:href="#NotoSansCJKkr-Regular-54" transform="translate(1258.859375 0)"/>
      <use xlink:href="#NotoSansCJKkr-Regular-1" transform="translate(1305.65625 0)"/>
      <use xlink:href="#NotoSansCJKkr-Regular-4f" transform="translate(1328.0625 0)"/>
      <use xlink:href="#NotoSansCJKkr-Regular-50" transform="translate(1389.0625 0)"/>
      <use xlink:href="#NotoSansCJKkr-Regular-55" transform="translate(1447.75 0)"/>
      <use xlink:href="#NotoSansCJKkr-Regular-46" transform="translate(1483.953125 0)"/>
      <use xlink:href="#NotoSansCJKkr-Regular-45" transform="translate(1539.359375 0)"/>
      <use xlink:href="#NotoSansCJKkr-Regular-a" transform="translate(1601.359375 0)"/>
     </g>
    </g>
   </g>
   <g id="line2d_16">
    <path d="M 112.254428 48.488512 
L 430.799938 97.5063 
L 749.345449 72.794873 
" clip-path="url(#pda78423f97)" style="fill: none; stroke: #1f77b4; stroke-width: 2; stroke-linecap: square"/>
    <defs>
     <path id="mf29fe6bad1" d="M 0 3 
C 0.795609 3 1.55874 2.683901 2.12132 2.12132 
C 2.683901 1.55874 3 0.795609 3 0 
C 3 -0.795609 2.683901 -1.55874 2.12132 -2.12132 
C 1.55874 -2.683901 0.795609 -3 0 -3 
C -0.795609 -3 -1.55874 -2.683901 -2.12132 -2.12132 
C -2.683901 -1.55874 -3 -0.795609 -3 0 
C -3 0.795609 -2.683901 1.55874 -2.12132 2.12132 
C -1.55874 2.683901 -0.795609 3 0 3 
z
" style="stroke: #1f77b4"/>
    </defs>
    <g clip-path="url(#pda78423f97)">
     <use xlink:href="#mf29fe6bad1" x="112.254428" y="48.488512" style="fill: #1f77b4; stroke: #1f77b4"/>
     <use xlink:href="#mf29fe6bad1" x="430.799938" y="97.5063" style="fill: #1f77b4; stroke: #1f77b4"/>
     <use xlink:href="#mf29fe6bad1" x="749.345449" y="72.794873" style="fill: #1f77b4; stroke: #1f77b4"/>
    </g>
   </g>
   <g id="line2d_17">
    <path d="M 112.254428 48.488512 
L 430.799938 98.337286 
L 749.345449 74.849078 
" clip-path="url(#pda78423f97)" style="fill: none; stroke: #ff7f0e; stroke-width: 2; stroke-linecap: square"/>
    <defs>
     <path id="maaf4b19fb2" d="M 0 3 
C 0.795609 3 1.55874 2.683901 2.12132 2.12132 
C 2.683901 1.55874 3 0.795609 3 0 
C 3 -0.795609 2.683901 -1.55874 2.12132 -2.12132 
C 1.55874 -2.683901 0.795609 -3 0 -3 
C -0.795609 -3 -1.55874 -2.683901 -2.12132 -2.12132 
C -2.683901 -1.55874 -3 -0.795609 -3 0 
C -3 0.795609 -2.683901 1.55874 -2.12132 2.12132 
C -1.55874 2.683901 -0.795609 3 0 3 
z
" style="stroke: #ff7f0e"/>
    </defs>
    <g clip-path="url(#pda78423f97)">
     <use xlink:href="#maaf4b19fb2" x="112.254428" y="48.488512" style="fill: #ff7f0e; stroke: #ff7f0e"/>
     <use xlink:href="#maaf4b19fb2" x="430.799938" y="98.337286" style="fill: #ff7f0e; stroke: #ff7f0e"/>
     <use xlink:href="#maaf4b19fb2" x="749.345449" y="74.849078" style="fill: #ff7f0e; stroke: #ff7f0e"/>
    </g>
   </g>
   <g id="line2d_18">
    <path d="M 112.254428 315.85875 
L 430.799938 271.296954 
L 749.345449 302.490238 
" clip-path="url(#pda78423f97)" style="fill: none; stroke: #2ca02c; stroke-width: 2; stroke-linecap: square"/>
    <defs>
     <path id="m3ba951a39b" d="M 0 3 
C 0.795609 3 1.55874 2.683901 2.12132 2.12132 
C 2.683901 1.55874 3 0.795609 3 0 
C 3 -0.795609 2.683901 -1.55874 2.12132 -2.12132 
C 1.55874 -2.683901 0.795609 -3 0 -3 
C -0.795609 -3 -1.55874 -2.683901 -2.12132 -2.12132 
C -2.683901 -1.55874 -3 -0.795609 -3 0 
C -3 0.795609 -2.683901 1.55874 -2.12132 2.12132 
C -1.55874 2.683901 -0.795609 3 0 3 
z
" style="stroke: #2ca02c"/>
    </defs>
    <g clip-path="url(#pda78423f97)">
     <use xlink:href="#m3ba951a39b" x="112.254428" y="315.85875" style="fill: #2ca02c; stroke: #2ca02c"/>
     <use xlink:href="#m3ba951a39b" x="430.799938" y="271.296954" style="fill: #2ca02c; stroke: #2ca02c"/>
     <use xlink:href="#m3ba951a39b" x="749.345449" y="302.490238" style="fill: #2ca02c; stroke: #2ca02c"/>
    </g>
   </g>
   <g id="line2d_19">
    <path d="M 112.254428 315.85875 
L 430.799938 262.384702 
L 749.345449 279.727672 
" clip-path="url(#pda78423f97)" style="fill: none; stroke: #d62728; stroke-width: 2; stroke-linecap: square"/>
    <defs>
     <path id="mf7a97fdba5" d="M 0 3 
C 0.795609 3 1.55874 2.683901 2.12132 2.12132 
C 2.683901 1.55874 3 0.795609 3 0 
C 3 -0.795609 2.683901 -1.55874 2.12132 -2.12132 
C 1.55874 -2.683901 0.795609 -3 0 -3 
C -0.795609 -3 -1.55874 -2.683901 -2.12132 -2.12132 
C -2.683901 -1.55874 -3 -0.795609 -3 0 
C -3 0.795609 -2.683901 1.55874 -2.12132 2.12132 
C -1.55874 2.683901 -0.795609 3 0 3 
z
" style="stroke: #d62728"/>
    </defs>
    <g clip-path="url(#pda78423f97)">
     <use xlink:href="#mf7a97fdba5" x="112.254428" y="315.85875" style="fill: #d62728; stroke: #d62728"/>
     <use xlink:href="#mf7a97fdba5" x="430.799938" y="262.384702" style="fill: #d62728; stroke: #d62728"/>
     <use xlink:href="#mf7a97fdba5" x="749.345449" y="279.727672" style="fill: #d62728; stroke: #d62728"/>
    </g>
   </g>
   <g id="line2d_20">
    <path d="M 112.254428 48.488512 
L 430.799938 75.299865 
L 749.345449 58.605267 
" clip-path="url(#pda78423f97)" style="fill: none; stroke: #9467bd; stroke-width: 2; stroke-linecap: square"/>
    <defs>
     <path id="m8b764f18a4" d="M 0 3 
C 0.795609 3 1.55874 2.683901 2.12132 2.12132 
C 2.683901 1.55874 3 0.795609 3 0 
C 3 -0.795609 2.683901 -1.55874 2.12132 -2.12132 
C 1.55874 -2.683901 0.795609 -3 0 -3 
C -0.795609 -3 -1.55874 -2.683901 -2.12132 -2.12132 
C -2.683901 -1.55874 -3 -0.795609 -3 0 
C -3 0.795609 -2.683901 1.55874 -2.12132 2.12132 
C -1.55874 2.683901 -0.795609 3 0 3 
z
" style="stroke: #9467bd"/>
    </defs>
    <g clip-path="url(#pda78423f97)">
     <use xlink:href="#m8b764f18a4" x="112.254428" y="48.488512" style="fill: #9467bd; stroke: #9467bd"/>
     <use xlink:href="#m8b764f18a4" x="430.799938" y="75.299865" style="fill: #9467bd; stroke: #9467bd"/>
     <use xlink:href="#m8b764f18a4" x="749.345449" y="58.605267" style="fill: #9467bd; stroke: #9467bd"/>
    </g>
   </g>
   <g id="patch_3">
    <path d="M 80.399877 329.227261 
L 80.399877 35.12 
" style="fill: none; stroke: #000000; stroke-width: 0.8; stroke-linejoin: miter; stroke-linecap: square"/>
   </g>
   <g id="patch_4">
    <path d="M 781.2 329.227261 
L 781.2 35.12 
" style="fill: none; stroke: #000000; stroke-width: 0.8; stroke-linejoin: miter; stroke-linecap: square"/>
   </g>
   <g id="patch_5">
    <path d="M 80.399877 329.227261 
L 781.2 329.227261 
" style="fill: none; stroke: #000000; stroke-width: 0.8; stroke-linejoin: miter; stroke-linecap: square"/>
   </g>
   <g id="patch_6">
    <path d="M 80.399877 35.12 
L 781.2 35.12 
" style="fill: none; stroke: #000000; stroke-width: 0.8; stroke-linejoin: miter; stroke-linecap: square"/>
   </g>
   <g id="text_12">
    <!-- W06 metrics from metrics_summary.csv -->
    <g transform="translate(300.733376 23.12) scale(0.14 -0.14)">
     <defs>
      <path id="NotoSansCJKkr-Regular-38" d="M 1158 0 
L 1862 0 
L 2560 2829 
C 2637 3200 2726 3539 2797 3898 
L 2822 3898 
C 2899 3539 2970 3200 3053 2829 
L 3763 0 
L 4480 0 
L 5446 4691 
L 4883 4691 
L 4378 2138 
C 4294 1632 4205 1126 4122 614 
L 4083 614 
C 3968 1126 3866 1638 3750 2138 
L 3098 4691 
L 2554 4691 
L 1907 2138 
C 1792 1632 1677 1126 1574 614 
L 1549 614 
C 1453 1126 1363 1632 1267 2138 
L 774 4691 
L 166 4691 
L 1158 0 
z
" transform="scale(0.015625)"/>
      <path id="NotoSansCJKkr-Regular-f6b1" d="M 1779 -83 
C 2688 -83 3238 768 3238 2298 
C 3238 3821 2688 4646 1779 4646 
C 864 4646 320 3827 320 2298 
C 320 768 864 -83 1779 -83 
z
M 1779 390 
C 1248 390 883 960 883 2298 
C 883 3635 1248 4179 1779 4179 
C 2310 4179 2675 3635 2675 2298 
C 2675 960 2310 390 1779 390 
z
" transform="scale(0.015625)"/>
      <path id="NotoSansCJKkr-Regular-f6b7" d="M 1920 -83 
C 2650 -83 3264 506 3264 1376 
C 3264 2310 2752 2784 1958 2784 
C 1594 2784 1184 2566 896 2202 
C 922 3661 1459 4160 2106 4160 
C 2394 4160 2675 4026 2854 3802 
L 3181 4166 
C 2925 4442 2573 4646 2080 4646 
C 1171 4646 346 3942 346 2112 
C 346 646 1018 -83 1920 -83 
z
M 909 1741 
C 1222 2189 1574 2349 1869 2349 
C 2432 2349 2720 1971 2720 1376 
C 2720 774 2368 378 1914 378 
C 1338 378 986 851 909 1741 
z
" transform="scale(0.015625)"/>
      <path id="NotoSansCJKkr-Regular-40" d="M 83 -896 
L 3488 -896 
L 3488 -512 
L 83 -512 
L 83 -896 
z
" transform="scale(0.015625)"/>
     </defs>
     <use xlink:href="#NotoSansCJKkr-Regular-38"/>
     <use xlink:href="#NotoSansCJKkr-Regular-f6b1" transform="translate(87.796875 0)"/>
     <use xlink:href="#NotoSansCJKkr-Regular-f6b7" transform="translate(143.296875 0)"/>
     <use xlink:href="#NotoSansCJKkr-Regular-1" transform="translate(198.796875 0)"/>
     <use xlink:href="#NotoSansCJKkr-Regular-4e" transform="translate(221.203125 0)"/>
     <use xlink:href="#NotoSansCJKkr-Regular-46" transform="translate(313.796875 0)"/>
     <use xlink:href="#NotoSansCJKkr-Regular-55" transform="translate(368.109375 0)"/>
     <use xlink:href="#NotoSansCJKkr-Regular-53" transform="translate(405.8125 0)"/>
     <use xlink:href="#NotoSansCJKkr-Regular-4a" transform="translate(444.609375 0)"/>
     <use xlink:href="#NotoSansCJKkr-Regular-44" transform="translate(472.109375 0)"/>
     <use xlink:href="#NotoSansCJKkr-Regular-54" transform="translate(523.109375 0)"/>
     <use xlink:href="#NotoSansCJKkr-Regular-1" transform="translate(569.90625 0)"/>
     <use xlink:href="#NotoSansCJKkr-Regular-47" transform="translate(592.3125 0)"/>
     <use xlink:href="#NotoSansCJKkr-Regular-53" transform="translate(624.8125 0)"/>
     <use xlink:href="#NotoSansCJKkr-Regular-50" transform="translate(662.515625 0)"/>
     <use xlink:href="#NotoSansCJKkr-Regular-4e" transform="translate(723.109375 0)"/>
     <use xlink:href="#NotoSansCJKkr-Regular-1" transform="translate(815.703125 0)"/>
     <use xlink:href="#NotoSansCJKkr-Regular-4e" transform="translate(838.109375 0)"/>
     <use xlink:href="#NotoSansCJKkr-Regular-46" transform="translate(930.703125 0)"/>
     <use xlink:href="#NotoSansCJKkr-Regular-55" transform="translate(985.015625 0)"/>
     <use xlink:href="#NotoSansCJKkr-Regular-53" transform="translate(1022.71875 0)"/>
     <use xlink:href="#NotoSansCJKkr-Regular-4a" transform="translate(1061.515625 0)"/>
     <use xlink:href="#NotoSansCJKkr-Regular-44" transform="translate(1089.015625 0)"/>
     <use xlink:href="#NotoSansCJKkr-Regular-54" transform="translate(1140.015625 0)"/>
     <use xlink:href="#NotoSansCJKkr-Regular-40" transform="translate(1186.8125 0)"/>
     <use xlink:href="#NotoSansCJKkr-Regular-54" transform="translate(1242.71875 0)"/>
     <use xlink:href="#NotoSansCJKkr-Regular-56" transform="translate(1289.515625 0)"/>
     <use xlink:href="#NotoSansCJKkr-Regular-4e" transform="translate(1350.21875 0)"/>
     <use xlink:href="#NotoSansCJKkr-Regular-4e" transform="translate(1442.8125 0)"/>
     <use xlink:href="#NotoSansCJKkr-Regular-42" transform="translate(1535.40625 0)"/>
     <use xlink:href="#NotoSansCJKkr-Regular-53" transform="translate(1591.703125 0)"/>
     <use xlink:href="#NotoSansCJKkr-Regular-5a" transform="translate(1633.40625 0)"/>
     <use xlink:href="#NotoSansCJKkr-Regular-f" transform="translate(1681.703125 0)"/>
     <use xlink:href="#NotoSansCJKkr-Regular-44" transform="translate(1708.203125 0)"/>
     <use xlink:href="#NotoSansCJKkr-Regular-54" transform="translate(1759.203125 0)"/>
     <use xlink:href="#NotoSansCJKkr-Regular-57" transform="translate(1806 0)"/>
    </g>
   </g>
   <g id="legend_1">
    <g id="patch_7">
     <path d="M 677.3175 214.786131 
L 775.6 214.786131 
Q 777.2 214.786131 777.2 213.186131 
L 777.2 151.161131 
Q 777.2 149.561131 775.6 149.561131 
L 677.3175 149.561131 
Q 675.7175 149.561131 675.7175 151.161131 
L 675.7175 213.186131 
Q 675.7175 214.786131 677.3175 214.786131 
z
" style="fill: #ffffff; opacity: 0.8; stroke: #cccccc; stroke-linejoin: miter"/>
    </g>
    <g id="line2d_21">
     <path d="M 678.9175 157.001131 
L 686.9175 157.001131 
L 694.9175 157.001131 
" style="fill: none; stroke: #1f77b4; stroke-width: 2; stroke-linecap: square"/>
     <g>
      <use xlink:href="#mf29fe6bad1" x="686.9175" y="157.001131" style="fill: #1f77b4; stroke: #1f77b4"/>
     </g>
    </g>
    <g id="text_13">
     <!-- accuracy -->
     <g transform="translate(701.3175 159.801131) scale(0.08 -0.08)">
      <use xlink:href="#NotoSansCJKkr-Regular-42"/>
      <use xlink:href="#NotoSansCJKkr-Regular-44" transform="translate(56.296875 0)"/>
      <use xlink:href="#NotoSansCJKkr-Regular-44" transform="translate(104.890625 0)"/>
      <use xlink:href="#NotoSansCJKkr-Regular-56" transform="translate(155.890625 0)"/>
      <use xlink:href="#NotoSansCJKkr-Regular-53" transform="translate(216.59375 0)"/>
      <use xlink:href="#NotoSansCJKkr-Regular-42" transform="translate(252.6875 0)"/>
      <use xlink:href="#NotoSansCJKkr-Regular-44" transform="translate(308.984375 0)"/>
      <use xlink:href="#NotoSansCJKkr-Regular-5a" transform="translate(360.6875 0)"/>
     </g>
    </g>
    <g id="line2d_22">
     <path d="M 678.9175 169.913631 
L 686.9175 169.913631 
L 694.9175 169.913631 
" style="fill: none; stroke: #ff7f0e; stroke-width: 2; stroke-linecap: square"/>
     <g>
      <use xlink:href="#maaf4b19fb2" x="686.9175" y="169.913631" style="fill: #ff7f0e; stroke: #ff7f0e"/>
     </g>
    </g>
    <g id="text_14">
     <!-- f1 -->
     <g transform="translate(701.3175 172.713631) scale(0.08 -0.08)">
      <defs>
       <path id="NotoSansCJKkr-Regular-f6b2" d="M 563 0 
L 3136 0 
L 3136 486 
L 2195 486 
L 2195 4563 
L 1747 4563 
C 1491 4410 1190 4301 774 4224 
L 774 3853 
L 1613 3853 
L 1613 486 
L 563 486 
L 563 0 
z
" transform="scale(0.015625)"/>
      </defs>
      <use xlink:href="#NotoSansCJKkr-Regular-47"/>
      <use xlink:href="#NotoSansCJKkr-Regular-f6b2" transform="translate(32.5 0)"/>
     </g>
    </g>
    <g id="line2d_23">
     <path d="M 678.9175 181.913631 
L 686.9175 181.913631 
L 694.9175 181.913631 
" style="fill: none; stroke: #2ca02c; stroke-width: 2; stroke-linecap: square"/>
     <g>
      <use xlink:href="#m3ba951a39b" x="686.9175" y="181.913631" style="fill: #2ca02c; stroke: #2ca02c"/>
     </g>
    </g>
    <g id="text_15">
     <!-- false_positive_rate -->
     <g transform="translate(701.3175 184.713631) scale(0.08 -0.08)">
      <defs>
       <path id="NotoSansCJKkr-Regular-51" d="M 589 -1466 
L 1178 -1466 
L 1178 -288 
L 1158 320 
C 1472 58 1805 -83 2118 -83 
C 2912 -83 3629 602 3629 1792 
C 3629 2867 3142 3565 2246 3565 
C 1843 3565 1453 3334 1139 3072 
L 1126 3072 
L 1069 3475 
L 589 3475 
L 589 -1466 
z
M 2022 410 
C 1792 410 1485 499 1178 768 
L 1178 2598 
C 1510 2906 1811 3072 2099 3072 
C 2765 3072 3021 2560 3021 1786 
C 3021 928 2598 410 2022 410 
z
" transform="scale(0.015625)"/>
      </defs>
      <use xlink:href="#NotoSansCJKkr-Regular-47"/>
      <use xlink:href="#NotoSansCJKkr-Regular-42" transform="translate(30.296875 0)"/>
      <use xlink:href="#NotoSansCJKkr-Regular-4d" transform="translate(86.59375 0)"/>
      <use xlink:href="#NotoSansCJKkr-Regular-54" transform="translate(115 0)"/>
      <use xlink:href="#NotoSansCJKkr-Regular-46" transform="translate(161.796875 0)"/>
      <use xlink:href="#NotoSansCJKkr-Regular-40" transform="translate(217.203125 0)"/>
      <use xlink:href="#NotoSansCJKkr-Regular-51" transform="translate(273.109375 0)"/>
      <use xlink:href="#NotoSansCJKkr-Regular-50" transform="translate(335.109375 0)"/>
      <use xlink:href="#NotoSansCJKkr-Regular-54" transform="translate(395.703125 0)"/>
      <use xlink:href="#NotoSansCJKkr-Regular-4a" transform="translate(442.5 0)"/>
      <use xlink:href="#NotoSansCJKkr-Regular-55" transform="translate(470 0)"/>
      <use xlink:href="#NotoSansCJKkr-Regular-4a" transform="translate(507.703125 0)"/>
      <use xlink:href="#NotoSansCJKkr-Regular-57" transform="translate(535.203125 0)"/>
      <use xlink:href="#NotoSansCJKkr-Regular-46" transform="translate(586.890625 0)"/>
      <use xlink:href="#NotoSansCJKkr-Regular-40" transform="translate(642.296875 0)"/>
      <use xlink:href="#NotoSansCJKkr-Regular-53" transform="translate(698.203125 0)"/>
      <use xlink:href="#NotoSansCJKkr-Regular-42" transform="translate(734.296875 0)"/>
      <use xlink:href="#NotoSansCJKkr-Regular-55" transform="translate(789.09375 0)"/>
      <use xlink:href="#NotoSansCJKkr-Regular-46" transform="translate(825.296875 0)"/>
     </g>
    </g>
    <g id="line2d_24">
     <path d="M 678.9175 194.786131 
L 686.9175 194.786131 
L 694.9175 194.786131 
" style="fill: none; stroke: #d62728; stroke-width: 2; stroke-linecap: square"/>
     <g>
      <use xlink:href="#mf7a97fdba5" x="686.9175" y="194.786131" style="fill: #d62728; stroke: #d62728"/>
     </g>
    </g>
    <g id="text_16">
     <!-- false_negative_rate -->
     <g transform="translate(701.3175 197.586131) scale(0.08 -0.08)">
      <use xlink:href="#NotoSansCJKkr-Regular-47"/>
      <use xlink:href="#NotoSansCJKkr-Regular-42" transform="translate(30.296875 0)"/>
      <use xlink:href="#NotoSansCJKkr-Regular-4d" transform="translate(86.59375 0)"/>
      <use xlink:href="#NotoSansCJKkr-Regular-54" transform="translate(115 0)"/>
      <use xlink:href="#NotoSansCJKkr-Regular-46" transform="translate(161.796875 0)"/>
      <use xlink:href="#NotoSansCJKkr-Regular-40" transform="translate(217.203125 0)"/>
      <use xlink:href="#NotoSansCJKkr-Regular-4f" transform="translate(273.109375 0)"/>
      <use xlink:href="#NotoSansCJKkr-Regular-46" transform="translate(334.109375 0)"/>
      <use xlink:href="#NotoSansCJKkr-Regular-48" transform="translate(388.421875 0)"/>
      <use xlink:href="#NotoSansCJKkr-Regular-42" transform="translate(443.03125 0)"/>
      <use xlink:href="#NotoSansCJKkr-Regular-55" transform="translate(497.828125 0)"/>
      <use xlink:href="#NotoSansCJKkr-Regular-4a" transform="translate(535.53125 0)"/>
      <use xlink:href="#NotoSansCJKkr-Regular-57" transform="translate(563.03125 0)"/>
      <use xlink:href="#NotoSansCJKkr-Regular-46" transform="translate(614.71875 0)"/>
      <use xlink:href="#NotoSansCJKkr-Regular-40" transform="translate(670.125 0)"/>
      <use xlink:href="#NotoSansCJKkr-Regular-53" transform="translate(726.03125 0)"/>
      <use xlink:href="#NotoSansCJKkr-Regular-42" transform="translate(762.125 0)"/>
      <use xlink:href="#NotoSansCJKkr-Regular-55" transform="translate(816.921875 0)"/>
      <use xlink:href="#NotoSansCJKkr-Regular-46" transform="translate(853.125 0)"/>
     </g>
    </g>
    <g id="line2d_25">
     <path d="M 678.9175 207.826131 
L 686.9175 207.826131 
L 694.9175 207.826131 
" style="fill: none; stroke: #9467bd; stroke-width: 2; stroke-linecap: square"/>
     <g>
      <use xlink:href="#m8b764f18a4" x="686.9175" y="207.826131" style="fill: #9467bd; stroke: #9467bd"/>
     </g>
    </g>
    <g id="text_17">
     <!-- auroc -->
     <g transform="translate(701.3175 210.626131) scale(0.08 -0.08)">
      <use xlink:href="#NotoSansCJKkr-Regular-42"/>
      <use xlink:href="#NotoSansCJKkr-Regular-56" transform="translate(56.296875 0)"/>
      <use xlink:href="#NotoSansCJKkr-Regular-53" transform="translate(117 0)"/>
      <use xlink:href="#NotoSansCJKkr-Regular-50" transform="translate(154.703125 0)"/>
      <use xlink:href="#NotoSansCJKkr-Regular-44" transform="translate(215.296875 0)"/>
     </g>
    </g>
   </g>
  </g>
  <g id="text_18">
   <!-- Data source: 04_experiment/outputs/metrics_summary.csv -->
   <g style="fill: #555555" transform="translate(7.92 441.936) scale(0.08 -0.08)">
    <defs>
     <path id="NotoSansCJKkr-Regular-25" d="M 646 0 
L 1843 0 
C 3258 0 4026 877 4026 2362 
C 4026 3859 3258 4691 1818 4691 
L 646 4691 
L 646 0 
z
M 1235 486 
L 1235 4211 
L 1766 4211 
C 2874 4211 3418 3552 3418 2362 
C 3418 1178 2874 486 1766 486 
L 1235 486 
z
" transform="scale(0.015625)"/>
     <path id="NotoSansCJKkr-Regular-1b" d="M 890 2496 
C 1120 2496 1312 2675 1312 2944 
C 1312 3206 1120 3392 890 3392 
C 653 3392 467 3206 467 2944 
C 467 2675 653 2496 890 2496 
z
M 890 -83 
C 1120 -83 1312 96 1312 358 
C 1312 627 1120 806 890 806 
C 653 806 467 627 467 358 
C 467 96 653 -83 890 -83 
z
" transform="scale(0.015625)"/>
     <path id="NotoSansCJKkr-Regular-f6b5" d="M 2176 0 
L 2726 0 
L 2726 1261 
L 3354 1261 
L 3354 1728 
L 2726 1728 
L 2726 4563 
L 2080 4563 
L 128 1645 
L 128 1261 
L 2176 1261 
L 2176 0 
z
M 2176 1728 
L 736 1728 
L 1805 3290 
C 1939 3520 2067 3718 2182 3936 
L 2208 3936 
C 2195 3699 2176 3296 2176 3066 
L 2176 1728 
z
" transform="scale(0.015625)"/>
     <path id="NotoSansCJKkr-Regular-59" d="M 96 0 
L 710 0 
L 1178 813 
C 1299 1024 1408 1235 1530 1434 
L 1562 1434 
C 1696 1235 1824 1024 1939 813 
L 2451 0 
L 3091 0 
L 1946 1754 
L 3002 3475 
L 2394 3475 
L 1965 2714 
C 1856 2515 1760 2330 1658 2131 
L 1626 2131 
C 1510 2330 1389 2515 1286 2714 
L 819 3475 
L 186 3475 
L 1242 1811 
L 96 0 
z
" transform="scale(0.015625)"/>
     <path id="NotoSansCJKkr-Regular-10" d="M 70 -1146 
L 499 -1146 
L 2413 5082 
L 1990 5082 
L 70 -1146 
z
" transform="scale(0.015625)"/>
    </defs>
    <use xlink:href="#NotoSansCJKkr-Regular-25"/>
    <use xlink:href="#NotoSansCJKkr-Regular-42" transform="translate(68.796875 0)"/>
    <use xlink:href="#NotoSansCJKkr-Regular-55" transform="translate(123.59375 0)"/>
    <use xlink:href="#NotoSansCJKkr-Regular-42" transform="translate(158.890625 0)"/>
    <use xlink:href="#NotoSansCJKkr-Regular-1" transform="translate(215.1875 0)"/>
    <use xlink:href="#NotoSansCJKkr-Regular-54" transform="translate(237.59375 0)"/>
    <use xlink:href="#NotoSansCJKkr-Regular-50" transform="translate(284.390625 0)"/>
    <use xlink:href="#NotoSansCJKkr-Regular-56" transform="translate(344.984375 0)"/>
    <use xlink:href="#NotoSansCJKkr-Regular-53" transform="translate(405.6875 0)"/>
    <use xlink:href="#NotoSansCJKkr-Regular-44" transform="translate(443.390625 0)"/>
    <use xlink:href="#NotoSansCJKkr-Regular-46" transform="translate(491.984375 0)"/>
    <use xlink:href="#NotoSansCJKkr-Regular-1b" transform="translate(547.390625 0)"/>
    <use xlink:href="#NotoSansCJKkr-Regular-1" transform="translate(575.1875 0)"/>
    <use xlink:href="#NotoSansCJKkr-Regular-f6b1" transform="translate(597.59375 0)"/>
    <use xlink:href="#NotoSansCJKkr-Regular-f6b5" transform="translate(653.09375 0)"/>
    <use xlink:href="#NotoSansCJKkr-Regular-40" transform="translate(708.59375 0)"/>
    <use xlink:href="#NotoSansCJKkr-Regular-46" transform="translate(764.5 0)"/>
    <use xlink:href="#NotoSansCJKkr-Regular-59" transform="translate(819.109375 0)"/>
    <use xlink:href="#NotoSansCJKkr-Regular-51" transform="translate(868.90625 0)"/>
    <use xlink:href="#NotoSansCJKkr-Regular-46" transform="translate(930.90625 0)"/>
    <use xlink:href="#NotoSansCJKkr-Regular-53" transform="translate(986.3125 0)"/>
    <use xlink:href="#NotoSansCJKkr-Regular-4a" transform="translate(1025.109375 0)"/>
    <use xlink:href="#NotoSansCJKkr-Regular-4e" transform="translate(1052.609375 0)"/>
    <use xlink:href="#NotoSansCJKkr-Regular-46" transform="translate(1145.203125 0)"/>
    <use xlink:href="#NotoSansCJKkr-Regular-4f" transform="translate(1200.609375 0)"/>
    <use xlink:href="#NotoSansCJKkr-Regular-55" transform="translate(1261.609375 0)"/>
    <use xlink:href="#NotoSansCJKkr-Regular-10" transform="translate(1300.40625 0)"/>
    <use xlink:href="#NotoSansCJKkr-Regular-50" transform="translate(1336.109375 0)"/>
    <use xlink:href="#NotoSansCJKkr-Regular-56" transform="translate(1396.703125 0)"/>
    <use xlink:href="#NotoSansCJKkr-Regular-55" transform="translate(1457.40625 0)"/>
    <use xlink:href="#NotoSansCJKkr-Regular-51" transform="translate(1495.109375 0)"/>
    <use xlink:href="#NotoSansCJKkr-Regular-56" transform="translate(1557.109375 0)"/>
    <use xlink:href="#NotoSansCJKkr-Regular-55" transform="translate(1617.8125 0)"/>
    <use xlink:href="#NotoSansCJKkr-Regular-54" transform="translate(1654.421875 0)"/>
    <use xlink:href="#NotoSansCJKkr-Regular-10" transform="translate(1701.21875 0)"/>
    <use xlink:href="#NotoSansCJKkr-Regular-4e" transform="translate(1740.421875 0)"/>
    <use xlink:href="#NotoSansCJKkr-Regular-46" transform="translate(1833.015625 0)"/>
    <use xlink:href="#NotoSansCJKkr-Regular-55" transform="translate(1887.328125 0)"/>
    <use xlink:href="#NotoSansCJKkr-Regular-53" transform="translate(1925.03125 0)"/>
    <use xlink:href="#NotoSansCJKkr-Regular-4a" transform="translate(1963.828125 0)"/>
    <use xlink:href="#NotoSansCJKkr-Regular-44" transform="translate(1991.328125 0)"/>
    <use xlink:href="#NotoSansCJKkr-Regular-54" transform="translate(2042.328125 0)"/>
    <use xlink:href="#NotoSansCJKkr-Regular-40" transform="translate(2089.125 0)"/>
    <use xlink:href="#NotoSansCJKkr-Regular-54" transform="translate(2145.03125 0)"/>
    <use xlink:href="#NotoSansCJKkr-Regular-56" transform="translate(2191.828125 0)"/>
    <use xlink:href="#NotoSansCJKkr-Regular-4e" transform="translate(2252.53125 0)"/>
    <use xlink:href="#NotoSansCJKkr-Regular-4e" transform="translate(2345.125 0)"/>
    <use xlink:href="#NotoSansCJKkr-Regular-42" transform="translate(2437.71875 0)"/>
    <use xlink:href="#NotoSansCJKkr-Regular-53" transform="translate(2494.015625 0)"/>
    <use xlink:href="#NotoSansCJKkr-Regular-5a" transform="translate(2535.71875 0)"/>
    <use xlink:href="#NotoSansCJKkr-Regular-f" transform="translate(2584.015625 0)"/>
    <use xlink:href="#NotoSansCJKkr-Regular-44" transform="translate(2610.515625 0)"/>
    <use xlink:href="#NotoSansCJKkr-Regular-54" transform="translate(2661.515625 0)"/>
    <use xlink:href="#NotoSansCJKkr-Regular-57" transform="translate(2708.3125 0)"/>
   </g>
  </g>
 </g>
 <defs>
  <clipPath id="pda78423f97">
   <rect x="80.399877" y="35.12" width="700.800123" height="294.107261"/>
  </clipPath>
 </defs>
</svg>
