<svg xmlns="http://www.w3.org/2000/svg" width="1120" height="620" viewBox="0 0 1120 620" role="img" aria-label="W02 metrics chart">
<rect width="100%" height="100%" fill="#ffffff"/>
<text x="92" y="38" font-family="Arial, sans-serif" font-size="24" font-weight="700" fill="#111111">W02 metrics from metrics_summary.csv</text>
<text x="92" y="62" font-family="Arial, sans-serif" font-size="13" fill="#5f6368">Data source: 04_experiment/outputs/metrics_summary.csv</text>
<rect x="92" y="76" width="970" height="412" fill="#fafafa" stroke="#d9d6cf"/>
<line x1="92" y1="488.0" x2="1062" y2="488.0" stroke="#e5e1da"/>
<text x="80" y="492.0" text-anchor="end" font-family="Arial, sans-serif" font-size="12" fill="#5f6368">0.805</text>
<line x1="92" y1="385.0" x2="1062" y2="385.0" stroke="#e5e1da"/>
<text x="80" y="389.0" text-anchor="end" font-family="Arial, sans-serif" font-size="12" fill="#5f6368">0.854</text>
<line x1="92" y1="282.0" x2="1062" y2="282.0" stroke="#e5e1da"/>
<text x="80" y="286.0" text-anchor="end" font-family="Arial, sans-serif" font-size="12" fill="#5f6368">0.903</text>
<line x1="92" y1="179.0" x2="1062" y2="179.0" stroke="#e5e1da"/>
<text x="80" y="183.0" text-anchor="end" font-family="Arial, sans-serif" font-size="12" fill="#5f6368">0.952</text>
<line x1="92" y1="76.0" x2="1062" y2="76.0" stroke="#e5e1da"/>
<text x="80" y="80.0" text-anchor="end" font-family="Arial, sans-serif" font-size="12" fill="#5f6368">1</text>
<line x1="92" y1="488" x2="1062" y2="488" stroke="#111111"/>
<line x1="92" y1="76" x2="92" y2="488" stroke="#111111"/>
<text x="92.0" y="534" transform="rotate(28 92.0,534)" text-anchor="start" font-family="Arial, sans-serif" font-size="12" fill="#5f6368">clean_baseline</text>
<text x="334.5" y="534" transform="rotate(28 334.5,534)" text-anchor="start" font-family="Arial, sans-serif" font-size="12" fill="#5f6368">label_flip</text>
<text x="577.0" y="534" transform="rotate(28 577.0,534)" text-anchor="start" font-family="Arial, sans-serif" font-size="12" fill="#5f6368">label_flip</text>
<text x="819.5" y="534" transform="rotate(28 819.5,534)" text-anchor="start" font-family="Arial, sans-serif" font-size="12" fill="#5f6368">label_flip</text>
<text x="1062.0" y="534" transform="rotate(28 1062.0,534)" text-anchor="start" font-family="Arial, sans-serif" font-size="12" fill="#5f6368">toy_backdoor</text>
<text x="577.0" y="596" text-anchor="middle" font-family="Arial, sans-serif" font-size="14" fill="#111111">condition</text>
<text x="24" y="282.0" transform="rotate(-90 24,282.0)" text-anchor="middle" font-family="Arial, sans-serif" font-size="14" fill="#111111">Metric value</text>
<polyline points="92.0,117.3 334.5,249.3 577.0,334.6 819.5,458.8 1062.0,140.6" fill="none" stroke="#1f3a5f" stroke-width="3"/>
<circle cx="92.0" cy="117.3" r="4" fill="#1f3a5f"/>
<circle cx="334.5" cy="249.3" r="4" fill="#1f3a5f"/>
<circle cx="577.0" cy="334.6" r="4" fill="#1f3a5f"/>
<circle cx="819.5" cy="458.8" r="4" fill="#1f3a5f"/>
<circle cx="1062.0" cy="140.6" r="4" fill="#1f3a5f"/>
<rect x="812" y="94" width="12" height="12" fill="#1f3a5f"/>
<text x="830" y="105" font-family="Arial, sans-serif" font-size="12" fill="#111111">accuracy</text>
<polyline points="92.0,117.4 334.5,249.4 577.0,335.0 819.5,459.6 1062.0,140.7" fill="none" stroke="#b3261e" stroke-width="3"/>
<circle cx="92.0" cy="117.4" r="4" fill="#b3261e"/>
<circle cx="334.5" cy="249.4" r="4" fill="#b3261e"/>
<circle cx="577.0" cy="335.0" r="4" fill="#b3261e"/>
<circle cx="819.5" cy="459.6" r="4" fill="#b3261e"/>
<circle cx="1062.0" cy="140.7" r="4" fill="#b3261e"/>
<rect x="812" y="114" width="12" height="12" fill="#b3261e"/>
<text x="830" y="125" font-family="Arial, sans-serif" font-size="12" fill="#111111">f1_macro</text>
<circle cx="1062.0" cy="104.4" r="5" fill="#166534"/>
<rect x="812" y="134" width="12" height="12" fill="#166534"/>
<text x="830" y="145" font-family="Arial, sans-serif" font-size="12" fill="#111111">asr</text>
</svg>
