<svg xmlns="http://www.w3.org/2000/svg" width="1120" height="620" viewBox="0 0 1120 620" role="img" aria-label="W11 metrics chart">
<rect width="100%" height="100%" fill="#ffffff"/>
<text x="92" y="38" font-family="Arial, sans-serif" font-size="24" font-weight="700" fill="#111111">W11 metrics from metrics_summary.csv</text>
<text x="92" y="62" font-family="Arial, sans-serif" font-size="13" fill="#5f6368">Data source: 04_experiment/outputs/metrics_summary.csv</text>
<rect x="92" y="76" width="970" height="412" fill="#fafafa" stroke="#d9d6cf"/>
<line x1="92" y1="488.0" x2="1062" y2="488.0" stroke="#e5e1da"/>
<text x="80" y="492.0" text-anchor="end" font-family="Arial, sans-serif" font-size="12" fill="#5f6368">-0.64</text>
<line x1="92" y1="385.0" x2="1062" y2="385.0" stroke="#e5e1da"/>
<text x="80" y="389.0" text-anchor="end" font-family="Arial, sans-serif" font-size="12" fill="#5f6368">1.68</text>
<line x1="92" y1="282.0" x2="1062" y2="282.0" stroke="#e5e1da"/>
<text x="80" y="286.0" text-anchor="end" font-family="Arial, sans-serif" font-size="12" fill="#5f6368">4</text>
<line x1="92" y1="179.0" x2="1062" y2="179.0" stroke="#e5e1da"/>
<text x="80" y="183.0" text-anchor="end" font-family="Arial, sans-serif" font-size="12" fill="#5f6368">6.32</text>
<line x1="92" y1="76.0" x2="1062" y2="76.0" stroke="#e5e1da"/>
<text x="80" y="80.0" text-anchor="end" font-family="Arial, sans-serif" font-size="12" fill="#5f6368">8.64</text>
<line x1="92" y1="488" x2="1062" y2="488" stroke="#111111"/>
<line x1="92" y1="76" x2="92" y2="488" stroke="#111111"/>
<text x="92.0" y="534" transform="rotate(28 92.0,534)" text-anchor="start" font-family="Arial, sans-serif" font-size="12" fill="#5f6368">Non-DP baseline</text>
<text x="415.3" y="534" transform="rotate(28 415.3,534)" text-anchor="start" font-family="Arial, sans-serif" font-size="12" fill="#5f6368">DP-like noise low</text>
<text x="738.7" y="534" transform="rotate(28 738.7,534)" text-anchor="start" font-family="Arial, sans-serif" font-size="12" fill="#5f6368">DP-like noise medium</text>
<text x="1062.0" y="534" transform="rotate(28 1062.0,534)" text-anchor="start" font-family="Arial, sans-serif" font-size="12" fill="#5f6368">DP-like noise high</text>
<text x="577.0" y="596" text-anchor="middle" font-family="Arial, sans-serif" font-size="14" fill="#111111">condition</text>
<text x="24" y="282.0" transform="rotate(-90 24,282.0)" text-anchor="middle" font-family="Arial, sans-serif" font-size="14" fill="#111111">Metric value</text>
<polyline points="92.0,417.1 415.3,417.1 738.7,416.9 1062.0,417.4" fill="none" stroke="#1f3a5f" stroke-width="3"/>
<circle cx="92.0" cy="417.1" r="4" fill="#1f3a5f"/>
<circle cx="415.3" cy="417.1" r="4" fill="#1f3a5f"/>
<circle cx="738.7" cy="416.9" r="4" fill="#1f3a5f"/>
<circle cx="1062.0" cy="417.4" r="4" fill="#1f3a5f"/>
<rect x="812" y="94" width="12" height="12" fill="#1f3a5f"/>
<text x="830" y="105" font-family="Arial, sans-serif" font-size="12" fill="#111111">accuracy</text>
<polyline points="92.0,436.7 415.3,436.7 738.7,436.8 1062.0,436.4" fill="none" stroke="#b3261e" stroke-width="3"/>
<circle cx="92.0" cy="436.7" r="4" fill="#b3261e"/>
<circle cx="415.3" cy="436.7" r="4" fill="#b3261e"/>
<circle cx="738.7" cy="436.8" r="4" fill="#b3261e"/>
<circle cx="1062.0" cy="436.4" r="4" fill="#b3261e"/>
<rect x="812" y="114" width="12" height="12" fill="#b3261e"/>
<text x="830" y="125" font-family="Arial, sans-serif" font-size="12" fill="#111111">mi_attack_accuracy</text>
<polyline points="415.3,104.4 738.7,326.4 1062.0,415.2" fill="none" stroke="#166534" stroke-width="3"/>
<circle cx="415.3" cy="104.4" r="4" fill="#166534"/>
<circle cx="738.7" cy="326.4" r="4" fill="#166534"/>
<circle cx="1062.0" cy="415.2" r="4" fill="#166534"/>
<rect x="812" y="134" width="12" height="12" fill="#166534"/>
<text x="830" y="145" font-family="Arial, sans-serif" font-size="12" fill="#111111">epsilon_proxy</text>
<polyline points="92.0,458.9 415.3,458.9 738.7,459.1 1062.0,458.9" fill="none" stroke="#6d5aa8" stroke-width="3"/>
<circle cx="92.0" cy="458.9" r="4" fill="#6d5aa8"/>
<circle cx="415.3" cy="458.9" r="4" fill="#6d5aa8"/>
<circle cx="738.7" cy="459.1" r="4" fill="#6d5aa8"/>
<circle cx="1062.0" cy="458.9" r="4" fill="#6d5aa8"/>
<rect x="812" y="154" width="12" height="12" fill="#6d5aa8"/>
<text x="830" y="165" font-family="Arial, sans-serif" font-size="12" fill="#111111">privacy_leakage_score</text>
<polyline points="92.0,459.6 415.3,459.6 738.7,459.6 1062.0,459.3" fill="none" stroke="#9a3412" stroke-width="3"/>
<circle cx="92.0" cy="459.6" r="4" fill="#9a3412"/>
<circle cx="415.3" cy="459.6" r="4" fill="#9a3412"/>
<circle cx="738.7" cy="459.6" r="4" fill="#9a3412"/>
<circle cx="1062.0" cy="459.3" r="4" fill="#9a3412"/>
<rect x="812" y="174" width="12" height="12" fill="#9a3412"/>
<text x="830" y="185" font-family="Arial, sans-serif" font-size="12" fill="#111111">utility_drop</text>
<polyline points="92.0,459.6 415.3,455.1 738.7,439.6 1062.0,406.3" fill="none" stroke="#0f766e" stroke-width="3"/>
<circle cx="92.0" cy="459.6" r="4" fill="#0f766e"/>
<circle cx="415.3" cy="455.1" r="4" fill="#0f766e"/>
<circle cx="738.7" cy="439.6" r="4" fill="#0f766e"/>
<circle cx="1062.0" cy="406.3" r="4" fill="#0f766e"/>
<rect x="812" y="194" width="12" height="12" fill="#0f766e"/>
<text x="830" y="205" font-family="Arial, sans-serif" font-size="12" fill="#111111">noise_multiplier</text>
</svg>
