<svg xmlns="http://www.w3.org/2000/svg" width="1120" height="620" viewBox="0 0 1120 620" role="img" aria-label="W15 metrics chart">
<rect width="100%" height="100%" fill="#ffffff"/>
<text x="92" y="38" font-family="Arial, sans-serif" font-size="24" font-weight="700" fill="#111111">W15 metrics from metrics_summary.csv</text>
<text x="92" y="62" font-family="Arial, sans-serif" font-size="13" fill="#5f6368">Data source: 04_experiment/outputs/metrics_summary.csv</text>
<rect x="92" y="76" width="970" height="412" fill="#fafafa" stroke="#d9d6cf"/>
<line x1="92" y1="488.0" x2="1062" y2="488.0" stroke="#e5e1da"/>
<text x="80" y="492.0" text-anchor="end" font-family="Arial, sans-serif" font-size="12" fill="#5f6368">-3.36</text>
<line x1="92" y1="385.0" x2="1062" y2="385.0" stroke="#e5e1da"/>
<text x="80" y="389.0" text-anchor="end" font-family="Arial, sans-serif" font-size="12" fill="#5f6368">8.82</text>
<line x1="92" y1="282.0" x2="1062" y2="282.0" stroke="#e5e1da"/>
<text x="80" y="286.0" text-anchor="end" font-family="Arial, sans-serif" font-size="12" fill="#5f6368">21</text>
<line x1="92" y1="179.0" x2="1062" y2="179.0" stroke="#e5e1da"/>
<text x="80" y="183.0" text-anchor="end" font-family="Arial, sans-serif" font-size="12" fill="#5f6368">33.2</text>
<line x1="92" y1="76.0" x2="1062" y2="76.0" stroke="#e5e1da"/>
<text x="80" y="80.0" text-anchor="end" font-family="Arial, sans-serif" font-size="12" fill="#5f6368">45.4</text>
<line x1="92" y1="488" x2="1062" y2="488" stroke="#111111"/>
<line x1="92" y1="76" x2="92" y2="488" stroke="#111111"/>
<text x="92.0" y="534" transform="rotate(28 92.0,534)" text-anchor="start" font-family="Arial, sans-serif" font-size="12" fill="#5f6368">w15_required_files</text>
<text x="199.8" y="534" transform="rotate(28 199.8,534)" text-anchor="start" font-family="Arial, sans-serif" font-size="12" fill="#5f6368">final_paper_link_files</text>
<text x="307.6" y="534" transform="rotate(28 307.6,534)" text-anchor="start" font-family="Arial, sans-serif" font-size="12" fill="#5f6368">local_pdf_count</text>
<text x="415.3" y="534" transform="rotate(28 415.3,534)" text-anchor="start" font-family="Arial, sans-serif" font-size="12" fill="#5f6368">doi_confirmed</text>
<text x="523.1" y="534" transform="rotate(28 523.1,534)" text-anchor="start" font-family="Arial, sans-serif" font-size="12" fill="#5f6368">doi_partial</text>
<text x="630.9" y="534" transform="rotate(28 630.9,534)" text-anchor="start" font-family="Arial, sans-serif" font-size="12" fill="#5f6368">doi_unverified</text>
<text x="738.7" y="534" transform="rotate(28 738.7,534)" text-anchor="start" font-family="Arial, sans-serif" font-size="12" fill="#5f6368">weighted_reference_verification_rate</text>
<text x="846.4" y="534" transform="rotate(28 846.4,534)" text-anchor="start" font-family="Arial, sans-serif" font-size="12" fill="#5f6368">ai_disclosure_completeness</text>
<text x="954.2" y="534" transform="rotate(28 954.2,534)" text-anchor="start" font-family="Arial, sans-serif" font-size="12" fill="#5f6368">config_present</text>
<text x="1062.0" y="534" transform="rotate(28 1062.0,534)" text-anchor="start" font-family="Arial, sans-serif" font-size="12" fill="#5f6368">seed_recorded</text>
<text x="577.0" y="596" text-anchor="middle" font-family="Arial, sans-serif" font-size="14" fill="#111111">metric</text>
<text x="24" y="282.0" transform="rotate(-90 24,282.0)" text-anchor="middle" font-family="Arial, sans-serif" font-size="14" fill="#111111">Metric value</text>
<polyline points="92.0,451.1 199.8,451.1 307.6,417.3 415.3,425.8 523.1,451.1 630.9,459.6 738.7,452.0 846.4,451.1 954.2,451.1 1062.0,104.4" fill="none" stroke="#1f3a5f" stroke-width="3"/>
<circle cx="92.0" cy="451.1" r="4" fill="#1f3a5f"/>
<circle cx="199.8" cy="451.1" r="4" fill="#1f3a5f"/>
<circle cx="307.6" cy="417.3" r="4" fill="#1f3a5f"/>
<circle cx="415.3" cy="425.8" r="4" fill="#1f3a5f"/>
<circle cx="523.1" cy="451.1" r="4" fill="#1f3a5f"/>
<circle cx="630.9" cy="459.6" r="4" fill="#1f3a5f"/>
<circle cx="738.7" cy="452.0" r="4" fill="#1f3a5f"/>
<circle cx="846.4" cy="451.1" r="4" fill="#1f3a5f"/>
<circle cx="954.2" cy="451.1" r="4" fill="#1f3a5f"/>
<circle cx="1062.0" cy="104.4" r="4" fill="#1f3a5f"/>
<rect x="812" y="94" width="12" height="12" fill="#1f3a5f"/>
<text x="830" y="105" font-family="Arial, sans-serif" font-size="12" fill="#111111">value</text>
</svg>
