<svg xmlns="http://www.w3.org/2000/svg" width="1120" height="620" viewBox="0 0 1120 620" role="img" aria-label="W05 metrics chart">
<rect width="100%" height="100%" fill="#ffffff"/>
<text x="92" y="38" font-family="Arial, sans-serif" font-size="24" font-weight="700" fill="#111111">W05 metrics from metrics_summary.csv</text>
<text x="92" y="62" font-family="Arial, sans-serif" font-size="13" fill="#5f6368">Data source: 04_experiment/outputs/metrics_summary.csv</text>
<rect x="92" y="76" width="970" height="412" fill="#fafafa" stroke="#d9d6cf"/>
<line x1="92" y1="488.0" x2="1062" y2="488.0" stroke="#e5e1da"/>
<text x="80" y="492.0" text-anchor="end" font-family="Arial, sans-serif" font-size="12" fill="#5f6368">-0.193</text>
<line x1="92" y1="385.0" x2="1062" y2="385.0" stroke="#e5e1da"/>
<text x="80" y="389.0" text-anchor="end" font-family="Arial, sans-serif" font-size="12" fill="#5f6368">0.508</text>
<line x1="92" y1="282.0" x2="1062" y2="282.0" stroke="#e5e1da"/>
<text x="80" y="286.0" text-anchor="end" font-family="Arial, sans-serif" font-size="12" fill="#5f6368">1.21</text>
<line x1="92" y1="179.0" x2="1062" y2="179.0" stroke="#e5e1da"/>
<text x="80" y="183.0" text-anchor="end" font-family="Arial, sans-serif" font-size="12" fill="#5f6368">1.91</text>
<line x1="92" y1="76.0" x2="1062" y2="76.0" stroke="#e5e1da"/>
<text x="80" y="80.0" text-anchor="end" font-family="Arial, sans-serif" font-size="12" fill="#5f6368">2.61</text>
<line x1="92" y1="488" x2="1062" y2="488" stroke="#111111"/>
<line x1="92" y1="76" x2="92" y2="488" stroke="#111111"/>
<text x="92.0" y="534" transform="rotate(28 92.0,534)" text-anchor="start" font-family="Arial, sans-serif" font-size="12" fill="#5f6368">Clean representation baseline</text>
<text x="577.0" y="534" transform="rotate(28 577.0,534)" text-anchor="start" font-family="Arial, sans-serif" font-size="12" fill="#5f6368">Poisoned/backdoor representation</text>
<text x="1062.0" y="534" transform="rotate(28 1062.0,534)" text-anchor="start" font-family="Arial, sans-serif" font-size="12" fill="#5f6368">Consistency defense check</text>
<text x="577.0" y="596" text-anchor="middle" font-family="Arial, sans-serif" font-size="14" fill="#111111">condition</text>
<text x="24" y="282.0" transform="rotate(-90 24,282.0)" text-anchor="middle" font-family="Arial, sans-serif" font-size="14" fill="#111111">Metric value</text>
<circle cx="92.0" cy="312.7" r="5" fill="#1f3a5f"/>
<rect x="812" y="94" width="12" height="12" fill="#1f3a5f"/>
<text x="830" y="105" font-family="Arial, sans-serif" font-size="12" fill="#111111">clean_accuracy</text>
<circle cx="577.0" cy="312.7" r="5" fill="#b3261e"/>
<rect x="812" y="114" width="12" height="12" fill="#b3261e"/>
<text x="830" y="125" font-family="Arial, sans-serif" font-size="12" fill="#111111">attack_success_rate</text>
<circle cx="1062.0" cy="459.6" r="5" fill="#166534"/>
<rect x="812" y="134" width="12" height="12" fill="#166534"/>
<text x="830" y="145" font-family="Arial, sans-serif" font-size="12" fill="#111111">attack_after_defense</text>
<polyline points="577.0,104.4 1062.0,446.3" fill="none" stroke="#6d5aa8" stroke-width="3"/>
<circle cx="577.0" cy="104.4" r="4" fill="#6d5aa8"/>
<circle cx="1062.0" cy="446.3" r="4" fill="#6d5aa8"/>
<rect x="812" y="154" width="12" height="12" fill="#6d5aa8"/>
<text x="830" y="165" font-family="Arial, sans-serif" font-size="12" fill="#111111">representation_shift</text>
<circle cx="1062.0" cy="312.7" r="5" fill="#9a3412"/>
<rect x="812" y="174" width="12" height="12" fill="#9a3412"/>
<text x="830" y="185" font-family="Arial, sans-serif" font-size="12" fill="#111111">trigger_detection_rate</text>
</svg>
