<?xml version="1.0" encoding="utf-8" standalone="no"?>
<!DOCTYPE svg PUBLIC "-//W3C//DTD SVG 1.1//EN"
  "http://www.w3.org/Graphics/SVG/1.1/DTD/svg11.dtd">
<svg xmlns:xlink="http://www.w3.org/1999/xlink" width="792pt" height="446.4pt" viewBox="0 0 792 446.4" xmlns="http://www.w3.org/2000/svg" version="1.1">
 <metadata>
  <rdf:RDF xmlns:dc="http://purl.org/dc/elements/1.1/" xmlns:cc="http://creativecommons.org/ns#" xmlns:rdf="http://www.w3.org/1999/02/22-rdf-syntax-ns#">
   <cc:Work>
    <dc:type rdf:resource="http://purl.org/dc/dcmitype/StillImage"/>
    <dc:date>2026-06-23T13:52:53.837575</dc:date>
    <dc:format>image/svg+xml</dc:format>
    <dc:creator>
     <cc:Agent>
      <dc:title>Matplotlib v3.11.0, https://matplotlib.org/</dc:title>
     </cc:Agent>
    </dc:creator>
   </cc:Work>
  </rdf:RDF>
 </metadata>
 <defs>
  <style type="text/css">*{stroke-linejoin: round; stroke-linecap: butt}</style>
 </defs>
 <g id="figure_1">
  <g id="patch_1">
   <path d="M 0 446.4 
L 792 446.4 
L 792 0 
L 0 0 
z
" style="fill: #ffffff"/>
  </g>
  <g id="axes_1">
   <g id="patch_2">
    <path d="M 47.16 336.792946 
L 781.2 336.792946 
L 781.2 35.12 
L 47.16 35.12 
z
" style="fill: #ffffff"/>
   </g>
   <g id="patch_3">
    <path d="M 80.525455 336.792946 
L 141.189917 336.792946 
L 141.189917 71.033446 
L 80.525455 71.033446 
z
" clip-path="url(#pa08b425db4)" style="fill: #2a6f97"/>
   </g>
   <g id="patch_4">
    <path d="M 156.356033 336.792946 
L 217.020496 336.792946 
L 217.020496 71.585938 
L 156.356033 71.585938 
z
" clip-path="url(#pa08b425db4)" style="fill: #2a6f97"/>
   </g>
   <g id="patch_5">
    <path d="M 232.186612 336.792946 
L 292.851074 336.792946 
L 292.851074 336.792946 
L 232.186612 336.792946 
z
" clip-path="url(#pa08b425db4)" style="fill: #2a6f97"/>
   </g>
   <g id="patch_6">
    <path d="M 308.01719 336.792946 
L 368.681653 336.792946 
L 368.681653 49.485378 
L 308.01719 49.485378 
z
" clip-path="url(#pa08b425db4)" style="fill: #2a6f97"/>
   </g>
   <g id="patch_7">
    <path d="M 383.847769 336.792946 
L 444.512231 336.792946 
L 444.512231 49.485378 
L 383.847769 49.485378 
z
" clip-path="url(#pa08b425db4)" style="fill: #2a6f97"/>
   </g>
   <g id="patch_8">
    <path d="M 459.678347 336.792946 
L 520.34281 336.792946 
L 520.34281 248.409668 
L 459.678347 248.409668 
z
" clip-path="url(#pa08b425db4)" style="fill: #2a6f97"/>
   </g>
   <g id="patch_9">
    <path d="M 535.508926 336.792946 
L 596.173388 336.792946 
L 596.173388 71.033446 
L 535.508926 71.033446 
z
" clip-path="url(#pa08b425db4)" style="fill: #2a6f97"/>
   </g>
   <g id="patch_10">
    <path d="M 611.339504 336.792946 
L 672.003967 336.792946 
L 672.003967 49.485378 
L 611.339504 49.485378 
z
" clip-path="url(#pa08b425db4)" style="fill: #2a6f97"/>
   </g>
   <g id="patch_11">
    <path d="M 687.170083 336.792946 
L 747.834545 336.792946 
L 747.834545 49.485378 
L 687.170083 49.485378 
z
" clip-path="url(#pa08b425db4)" style="fill: #2a6f97"/>
   </g>
   <g id="matplotlib.axis_1">
    <g id="xtick_1">
     <g id="line2d_1">
      <defs>
       <path id="mbe4d4b5b31" d="M 0 0 
L 0 3.5 
" style="stroke: #000000; stroke-width: 0.8"/>
      </defs>
      <g>
       <use xlink:href="#mbe4d4b5b31" x="110.857686" y="336.792946" style="stroke: #000000; stroke-width: 0.8"/>
      </g>
     </g>
     <g id="text_1">
      <!-- accuracy -->
      <g transform="translate(80.137784 364.129264) rotate(-25) scale(0.08 -0.08)">
       <defs>
        <path id="NotoSansCJKkr-Regular-42" d="M 1389 -83 
C 1818 -83 2208 141 2541 416 
L 2560 416 
L 2611 0 
L 3091 0 
L 3091 2138 
C 3091 3002 2739 3565 1888 3565 
C 1325 3565 838 3315 525 3110 
L 749 2707 
C 1024 2893 1389 3078 1792 3078 
C 2362 3078 2509 2650 2509 2202 
C 1030 2035 378 1658 378 902 
C 378 275 806 -83 1389 -83 
z
M 1555 390 
C 1210 390 941 544 941 941 
C 941 1389 1338 1677 2509 1811 
L 2509 845 
C 2170 544 1888 390 1555 390 
z
" transform="scale(0.015625)"/>
        <path id="NotoSansCJKkr-Regular-44" d="M 1958 -83 
C 2374 -83 2771 83 3085 352 
L 2829 749 
C 2611 557 2330 403 2010 403 
C 1370 403 934 934 934 1734 
C 934 2534 1395 3072 2029 3072 
C 2298 3072 2522 2950 2720 2771 
L 3014 3155 
C 2771 3373 2458 3565 2003 3565 
C 1107 3565 333 2893 333 1734 
C 333 582 1037 -83 1958 -83 
z
" transform="scale(0.015625)"/>
        <path id="NotoSansCJKkr-Regular-56" d="M 1606 -83 
C 2080 -83 2426 166 2752 544 
L 2771 544 
L 2816 0 
L 3302 0 
L 3302 3475 
L 2720 3475 
L 2720 1011 
C 2387 602 2138 422 1779 422 
C 1318 422 1126 698 1126 1344 
L 1126 3475 
L 538 3475 
L 538 1274 
C 538 384 870 -83 1606 -83 
z
" transform="scale(0.015625)"/>
        <path id="NotoSansCJKkr-Regular-53" d="M 589 0 
L 1178 0 
L 1178 2234 
C 1408 2822 1760 3040 2048 3040 
C 2195 3040 2272 3021 2387 2982 
L 2496 3488 
C 2387 3546 2278 3565 2125 3565 
C 1741 3565 1382 3283 1139 2842 
L 1126 2842 
L 1069 3475 
L 589 3475 
L 589 0 
z
" transform="scale(0.015625)"/>
        <path id="NotoSansCJKkr-Regular-5a" d="M 646 -1498 
C 1338 -1498 1702 -973 1946 -294 
L 3251 3475 
L 2682 3475 
L 2054 1549 
C 1965 1235 1862 883 1773 563 
L 1741 563 
C 1619 890 1504 1242 1395 1549 
L 691 3475 
L 83 3475 
L 1478 -6 
L 1402 -269 
C 1254 -698 1011 -1018 621 -1018 
C 525 -1018 422 -986 352 -960 
L 237 -1427 
C 346 -1472 486 -1498 646 -1498 
z
" transform="scale(0.015625)"/>
       </defs>
       <use xlink:href="#NotoSansCJKkr-Regular-42"/>
       <use xlink:href="#NotoSansCJKkr-Regular-44" transform="translate(56.296875 0)"/>
       <use xlink:href="#NotoSansCJKkr-Regular-44" transform="translate(104.890625 0)"/>
       <use xlink:href="#NotoSansCJKkr-Regular-56" transform="translate(155.890625 0)"/>
       <use xlink:href="#NotoSansCJKkr-Regular-53" transform="translate(216.59375 0)"/>
       <use xlink:href="#NotoSansCJKkr-Regular-42" transform="translate(252.6875 0)"/>
       <use xlink:href="#NotoSansCJKkr-Regular-44" transform="translate(308.984375 0)"/>
       <use xlink:href="#NotoSansCJKkr-Regular-5a" transform="translate(360.6875 0)"/>
      </g>
     </g>
    </g>
    <g id="xtick_2">
     <g id="line2d_2">
      <g>
       <use xlink:href="#mbe4d4b5b31" x="186.688264" y="336.792946" style="stroke: #000000; stroke-width: 0.8"/>
      </g>
     </g>
     <g id="text_2">
      <!-- f1 -->
      <g transform="translate(179.902144 353.148585) rotate(-25) scale(0.08 -0.08)">
       <defs>
        <path id="NotoSansCJKkr-Regular-47" d="M 211 3002 
L 685 3002 
L 685 0 
L 1267 0 
L 1267 3002 
L 2003 3002 
L 2003 3475 
L 1267 3475 
L 1267 4026 
C 1267 4474 1427 4710 1760 4710 
C 1882 4710 2022 4678 2150 4614 
L 2278 5069 
C 2118 5133 1914 5178 1696 5178 
C 1005 5178 685 4736 685 4032 
L 685 3475 
L 211 3443 
L 211 3002 
z
" transform="scale(0.015625)"/>
        <path id="NotoSansCJKkr-Regular-f6b2" d="M 563 0 
L 3136 0 
L 3136 486 
L 2195 486 
L 2195 4563 
L 1747 4563 
C 1491 4410 1190 4301 774 4224 
L 774 3853 
L 1613 3853 
L 1613 486 
L 563 486 
L 563 0 
z
" transform="scale(0.015625)"/>
       </defs>
       <use xlink:href="#NotoSansCJKkr-Regular-47"/>
       <use xlink:href="#NotoSansCJKkr-Regular-f6b2" transform="translate(32.5 0)"/>
      </g>
     </g>
    </g>
    <g id="xtick_3">
     <g id="line2d_3">
      <g>
       <use xlink:href="#mbe4d4b5b31" x="262.518843" y="336.792946" style="stroke: #000000; stroke-width: 0.8"/>
      </g>
     </g>
     <g id="text_3">
      <!-- dataset_sha256 -->
      <g transform="translate(208.870167 374.969423) rotate(-25) scale(0.08 -0.08)">
       <defs>
        <path id="NotoSansCJKkr-Regular-45" d="M 1773 -83 
C 2189 -83 2560 141 2829 410 
L 2848 410 
L 2899 0 
L 3379 0 
L 3379 5094 
L 2790 5094 
L 2790 3757 
L 2822 3162 
C 2515 3411 2253 3565 1843 3565 
C 1050 3565 339 2861 339 1734 
C 339 576 902 -83 1773 -83 
z
M 1901 410 
C 1293 410 941 902 941 1741 
C 941 2534 1389 3072 1946 3072 
C 2234 3072 2502 2970 2790 2707 
L 2790 883 
C 2502 563 2221 410 1901 410 
z
" transform="scale(0.015625)"/>
        <path id="NotoSansCJKkr-Regular-55" d="M 1677 -83 
C 1894 -83 2125 -19 2323 45 
L 2208 486 
C 2093 435 1939 390 1811 390 
C 1408 390 1274 634 1274 1056 
L 1274 3002 
L 2221 3002 
L 2221 3475 
L 1274 3475 
L 1274 4454 
L 787 4454 
L 723 3475 
L 173 3443 
L 173 3002 
L 691 3002 
L 691 1075 
C 691 378 941 -83 1677 -83 
z
" transform="scale(0.015625)"/>
        <path id="NotoSansCJKkr-Regular-54" d="M 1498 -83 
C 2317 -83 2758 384 2758 947 
C 2758 1606 2208 1811 1702 2003 
C 1312 2150 954 2278 954 2605 
C 954 2880 1158 3110 1600 3110 
C 1907 3110 2150 2976 2387 2803 
L 2669 3168 
C 2406 3386 2022 3565 1594 3565 
C 832 3565 397 3130 397 2579 
C 397 1984 922 1754 1408 1574 
C 1792 1434 2202 1267 2202 915 
C 2202 614 1978 371 1517 371 
C 1101 371 794 538 486 787 
L 205 397 
C 531 122 1005 -83 1498 -83 
z
" transform="scale(0.015625)"/>
        <path id="NotoSansCJKkr-Regular-46" d="M 1997 -83 
C 2464 -83 2835 70 3136 269 
L 2931 659 
C 2669 486 2400 384 2061 384 
C 1402 384 947 858 909 1600 
L 3251 1600 
C 3264 1690 3277 1805 3277 1933 
C 3277 2925 2778 3565 1888 3565 
C 1094 3565 333 2867 333 1734 
C 333 589 1069 -83 1997 -83 
z
M 902 2016 
C 973 2707 1408 3098 1901 3098 
C 2445 3098 2765 2720 2765 2016 
L 902 2016 
z
" transform="scale(0.015625)"/>
        <path id="NotoSansCJKkr-Regular-40" d="M 83 -896 
L 3488 -896 
L 3488 -512 
L 83 -512 
L 83 -896 
z
" transform="scale(0.015625)"/>
        <path id="NotoSansCJKkr-Regular-49" d="M 589 0 
L 1178 0 
L 1178 2522 
C 1523 2874 1766 3053 2125 3053 
C 2586 3053 2784 2778 2784 2125 
L 2784 0 
L 3366 0 
L 3366 2202 
C 3366 3085 3034 3565 2304 3565 
C 1830 3565 1472 3302 1152 2982 
L 1178 3699 
L 1178 5094 
L 589 5094 
L 589 0 
z
" transform="scale(0.015625)"/>
        <path id="NotoSansCJKkr-Regular-f6b3" d="M 282 0 
L 3232 0 
L 3232 506 
L 1907 506 
C 1670 506 1382 480 1139 461 
C 2221 1594 3008 2451 3008 3309 
C 3008 4115 2477 4646 1638 4646 
C 1043 4646 634 4378 256 3955 
L 595 3629 
C 858 3930 1184 4173 1568 4173 
C 2150 4173 2432 3802 2432 3283 
C 2432 2534 1658 1715 282 346 
L 282 0 
z
" transform="scale(0.015625)"/>
        <path id="NotoSansCJKkr-Regular-f6b6" d="M 1677 -83 
C 2464 -83 3213 474 3213 1459 
C 3213 2445 2573 2886 1798 2886 
C 1517 2886 1306 2822 1094 2701 
L 1216 4058 
L 2982 4058 
L 2982 4563 
L 704 4563 
L 550 2368 
L 864 2170 
C 1133 2349 1331 2451 1645 2451 
C 2234 2451 2618 2074 2618 1440 
C 2618 806 2176 403 1619 403 
C 1075 403 730 653 467 922 
L 173 538 
C 493 224 941 -83 1677 -83 
z
" transform="scale(0.015625)"/>
        <path id="NotoSansCJKkr-Regular-f6b7" d="M 1920 -83 
C 2650 -83 3264 506 3264 1376 
C 3264 2310 2752 2784 1958 2784 
C 1594 2784 1184 2566 896 2202 
C 922 3661 1459 4160 2106 4160 
C 2394 4160 2675 4026 2854 3802 
L 3181 4166 
C 2925 4442 2573 4646 2080 4646 
C 1171 4646 346 3942 346 2112 
C 346 646 1018 -83 1920 -83 
z
M 909 1741 
C 1222 2189 1574 2349 1869 2349 
C 2432 2349 2720 1971 2720 1376 
C 2720 774 2368 378 1914 378 
C 1338 378 986 851 909 1741 
z
" transform="scale(0.015625)"/>
       </defs>
       <use xlink:href="#NotoSansCJKkr-Regular-45"/>
       <use xlink:href="#NotoSansCJKkr-Regular-42" transform="translate(62 0)"/>
       <use xlink:href="#NotoSansCJKkr-Regular-55" transform="translate(116.796875 0)"/>
       <use xlink:href="#NotoSansCJKkr-Regular-42" transform="translate(152.09375 0)"/>
       <use xlink:href="#NotoSansCJKkr-Regular-54" transform="translate(208.390625 0)"/>
       <use xlink:href="#NotoSansCJKkr-Regular-46" transform="translate(255.1875 0)"/>
       <use xlink:href="#NotoSansCJKkr-Regular-55" transform="translate(309.5 0)"/>
       <use xlink:href="#NotoSansCJKkr-Regular-40" transform="translate(347.203125 0)"/>
       <use xlink:href="#NotoSansCJKkr-Regular-54" transform="translate(403.109375 0)"/>
       <use xlink:href="#NotoSansCJKkr-Regular-49" transform="translate(449.90625 0)"/>
       <use xlink:href="#NotoSansCJKkr-Regular-42" transform="translate(510.609375 0)"/>
       <use xlink:href="#NotoSansCJKkr-Regular-f6b3" transform="translate(566.90625 0)"/>
       <use xlink:href="#NotoSansCJKkr-Regular-f6b6" transform="translate(622.40625 0)"/>
       <use xlink:href="#NotoSansCJKkr-Regular-f6b7" transform="translate(677.90625 0)"/>
      </g>
     </g>
    </g>
    <g id="xtick_4">
     <g id="line2d_4">
      <g>
       <use xlink:href="#mbe4d4b5b31" x="338.349421" y="336.792946" style="stroke: #000000; stroke-width: 0.8"/>
      </g>
     </g>
     <g id="text_4">
      <!-- model_hash_match -->
      <g transform="translate(270.402607 381.636754) rotate(-25) scale(0.08 -0.08)">
       <defs>
        <path id="NotoSansCJKkr-Regular-4e" d="M 589 0 
L 1178 0 
L 1178 2522 
C 1491 2880 1786 3053 2048 3053 
C 2490 3053 2694 2778 2694 2125 
L 2694 0 
L 3277 0 
L 3277 2522 
C 3603 2880 3885 3053 4154 3053 
C 4595 3053 4800 2778 4800 2125 
L 4800 0 
L 5382 0 
L 5382 2202 
C 5382 3085 5043 3565 4333 3565 
C 3904 3565 3546 3290 3181 2899 
C 3040 3309 2758 3565 2221 3565 
C 1805 3565 1446 3302 1139 2970 
L 1126 2970 
L 1069 3475 
L 589 3475 
L 589 0 
z
" transform="scale(0.015625)"/>
        <path id="NotoSansCJKkr-Regular-50" d="M 1939 -83 
C 2790 -83 3546 582 3546 1734 
C 3546 2893 2790 3565 1939 3565 
C 1088 3565 333 2893 333 1734 
C 333 582 1088 -83 1939 -83 
z
M 1939 403 
C 1338 403 934 934 934 1734 
C 934 2534 1338 3072 1939 3072 
C 2541 3072 2950 2534 2950 1734 
C 2950 934 2541 403 1939 403 
z
" transform="scale(0.015625)"/>
        <path id="NotoSansCJKkr-Regular-4d" d="M 1203 -83 
C 1363 -83 1459 -58 1542 -32 
L 1459 416 
C 1395 403 1370 403 1338 403 
C 1248 403 1178 474 1178 653 
L 1178 5094 
L 589 5094 
L 589 691 
C 589 198 768 -83 1203 -83 
z
" transform="scale(0.015625)"/>
       </defs>
       <use xlink:href="#NotoSansCJKkr-Regular-4e"/>
       <use xlink:href="#NotoSansCJKkr-Regular-50" transform="translate(92.59375 0)"/>
       <use xlink:href="#NotoSansCJKkr-Regular-45" transform="translate(153.1875 0)"/>
       <use xlink:href="#NotoSansCJKkr-Regular-46" transform="translate(215.1875 0)"/>
       <use xlink:href="#NotoSansCJKkr-Regular-4d" transform="translate(270.59375 0)"/>
       <use xlink:href="#NotoSansCJKkr-Regular-40" transform="translate(299 0)"/>
       <use xlink:href="#NotoSansCJKkr-Regular-49" transform="translate(354.90625 0)"/>
       <use xlink:href="#NotoSansCJKkr-Regular-42" transform="translate(415.609375 0)"/>
       <use xlink:href="#NotoSansCJKkr-Regular-54" transform="translate(471.90625 0)"/>
       <use xlink:href="#NotoSansCJKkr-Regular-49" transform="translate(518.703125 0)"/>
       <use xlink:href="#NotoSansCJKkr-Regular-40" transform="translate(579.40625 0)"/>
       <use xlink:href="#NotoSansCJKkr-Regular-4e" transform="translate(635.3125 0)"/>
       <use xlink:href="#NotoSansCJKkr-Regular-42" transform="translate(727.90625 0)"/>
       <use xlink:href="#NotoSansCJKkr-Regular-55" transform="translate(782.703125 0)"/>
       <use xlink:href="#NotoSansCJKkr-Regular-44" transform="translate(818.90625 0)"/>
       <use xlink:href="#NotoSansCJKkr-Regular-49" transform="translate(869.90625 0)"/>
      </g>
     </g>
    </g>
    <g id="xtick_5">
     <g id="line2d_5">
      <g>
       <use xlink:href="#mbe4d4b5b31" x="414.18" y="336.792946" style="stroke: #000000; stroke-width: 0.8"/>
      </g>
     </g>
     <g id="text_5">
      <!-- model_and_dataset_hash_match -->
      <g transform="translate(299.952579 403.217756) rotate(-25) scale(0.08 -0.08)">
       <defs>
        <path id="NotoSansCJKkr-Regular-4f" d="M 589 0 
L 1178 0 
L 1178 2522 
C 1523 2874 1766 3053 2125 3053 
C 2586 3053 2784 2778 2784 2125 
L 2784 0 
L 3366 0 
L 3366 2202 
C 3366 3085 3034 3565 2304 3565 
C 1830 3565 1466 3302 1139 2970 
L 1126 2970 
L 1069 3475 
L 589 3475 
L 589 0 
z
" transform="scale(0.015625)"/>
       </defs>
       <use xlink:href="#NotoSansCJKkr-Regular-4e"/>
       <use xlink:href="#NotoSansCJKkr-Regular-50" transform="translate(92.59375 0)"/>
       <use xlink:href="#NotoSansCJKkr-Regular-45" transform="translate(153.1875 0)"/>
       <use xlink:href="#NotoSansCJKkr-Regular-46" transform="translate(215.1875 0)"/>
       <use xlink:href="#NotoSansCJKkr-Regular-4d" transform="translate(270.59375 0)"/>
       <use xlink:href="#NotoSansCJKkr-Regular-40" transform="translate(299 0)"/>
       <use xlink:href="#NotoSansCJKkr-Regular-42" transform="translate(354.90625 0)"/>
       <use xlink:href="#NotoSansCJKkr-Regular-4f" transform="translate(411.203125 0)"/>
       <use xlink:href="#NotoSansCJKkr-Regular-45" transform="translate(472.203125 0)"/>
       <use xlink:href="#NotoSansCJKkr-Regular-40" transform="translate(534.203125 0)"/>
       <use xlink:href="#NotoSansCJKkr-Regular-45" transform="translate(590.109375 0)"/>
       <use xlink:href="#NotoSansCJKkr-Regular-42" transform="translate(652.109375 0)"/>
       <use xlink:href="#NotoSansCJKkr-Regular-55" transform="translate(706.90625 0)"/>
       <use xlink:href="#NotoSansCJKkr-Regular-42" transform="translate(742.203125 0)"/>
       <use xlink:href="#NotoSansCJKkr-Regular-54" transform="translate(798.5 0)"/>
       <use xlink:href="#NotoSansCJKkr-Regular-46" transform="translate(845.296875 0)"/>
       <use xlink:href="#NotoSansCJKkr-Regular-55" transform="translate(899.609375 0)"/>
       <use xlink:href="#NotoSansCJKkr-Regular-40" transform="translate(937.3125 0)"/>
       <use xlink:href="#NotoSansCJKkr-Regular-49" transform="translate(993.21875 0)"/>
       <use xlink:href="#NotoSansCJKkr-Regular-42" transform="translate(1053.921875 0)"/>
       <use xlink:href="#NotoSansCJKkr-Regular-54" transform="translate(1110.21875 0)"/>
       <use xlink:href="#NotoSansCJKkr-Regular-49" transform="translate(1157.015625 0)"/>
       <use xlink:href="#NotoSansCJKkr-Regular-40" transform="translate(1217.71875 0)"/>
       <use xlink:href="#NotoSansCJKkr-Regular-4e" transform="translate(1273.625 0)"/>
       <use xlink:href="#NotoSansCJKkr-Regular-42" transform="translate(1366.21875 0)"/>
       <use xlink:href="#NotoSansCJKkr-Regular-55" transform="translate(1421.015625 0)"/>
       <use xlink:href="#NotoSansCJKkr-Regular-44" transform="translate(1457.21875 0)"/>
       <use xlink:href="#NotoSansCJKkr-Regular-49" transform="translate(1508.21875 0)"/>
      </g>
     </g>
    </g>
    <g id="xtick_6">
     <g id="line2d_6">
      <g>
       <use xlink:href="#mbe4d4b5b31" x="490.010579" y="336.792946" style="stroke: #000000; stroke-width: 0.8"/>
      </g>
     </g>
     <g id="text_6">
      <!-- mean_standardized_feature_shift -->
      <g transform="translate(375.367388 403.411632) rotate(-25) scale(0.08 -0.08)">
       <defs>
        <path id="NotoSansCJKkr-Regular-4a" d="M 589 0 
L 1178 0 
L 1178 3475 
L 589 3475 
L 589 0 
z
M 883 4192 
C 1114 4192 1274 4346 1274 4582 
C 1274 4806 1114 4960 883 4960 
C 653 4960 499 4806 499 4582 
C 499 4346 653 4192 883 4192 
z
" transform="scale(0.015625)"/>
        <path id="NotoSansCJKkr-Regular-5b" d="M 224 0 
L 2854 0 
L 2854 474 
L 960 474 
L 2797 3162 
L 2797 3475 
L 422 3475 
L 422 3002 
L 2054 3002 
L 224 314 
L 224 0 
z
" transform="scale(0.015625)"/>
       </defs>
       <use xlink:href="#NotoSansCJKkr-Regular-4e"/>
       <use xlink:href="#NotoSansCJKkr-Regular-46" transform="translate(92.59375 0)"/>
       <use xlink:href="#NotoSansCJKkr-Regular-42" transform="translate(146.40625 0)"/>
       <use xlink:href="#NotoSansCJKkr-Regular-4f" transform="translate(202.703125 0)"/>
       <use xlink:href="#NotoSansCJKkr-Regular-40" transform="translate(263.703125 0)"/>
       <use xlink:href="#NotoSansCJKkr-Regular-54" transform="translate(319.609375 0)"/>
       <use xlink:href="#NotoSansCJKkr-Regular-55" transform="translate(364.203125 0)"/>
       <use xlink:href="#NotoSansCJKkr-Regular-42" transform="translate(399.5 0)"/>
       <use xlink:href="#NotoSansCJKkr-Regular-4f" transform="translate(455.796875 0)"/>
       <use xlink:href="#NotoSansCJKkr-Regular-45" transform="translate(516.796875 0)"/>
       <use xlink:href="#NotoSansCJKkr-Regular-42" transform="translate(578.796875 0)"/>
       <use xlink:href="#NotoSansCJKkr-Regular-53" transform="translate(635.09375 0)"/>
       <use xlink:href="#NotoSansCJKkr-Regular-45" transform="translate(672.796875 0)"/>
       <use xlink:href="#NotoSansCJKkr-Regular-4a" transform="translate(734.796875 0)"/>
       <use xlink:href="#NotoSansCJKkr-Regular-5b" transform="translate(762.296875 0)"/>
       <use xlink:href="#NotoSansCJKkr-Regular-46" transform="translate(808.703125 0)"/>
       <use xlink:href="#NotoSansCJKkr-Regular-45" transform="translate(864.109375 0)"/>
       <use xlink:href="#NotoSansCJKkr-Regular-40" transform="translate(926.109375 0)"/>
       <use xlink:href="#NotoSansCJKkr-Regular-47" transform="translate(982.015625 0)"/>
       <use xlink:href="#NotoSansCJKkr-Regular-46" transform="translate(1013.421875 0)"/>
       <use xlink:href="#NotoSansCJKkr-Regular-42" transform="translate(1067.234375 0)"/>
       <use xlink:href="#NotoSansCJKkr-Regular-55" transform="translate(1122.03125 0)"/>
       <use xlink:href="#NotoSansCJKkr-Regular-56" transform="translate(1159.734375 0)"/>
       <use xlink:href="#NotoSansCJKkr-Regular-53" transform="translate(1220.4375 0)"/>
       <use xlink:href="#NotoSansCJKkr-Regular-46" transform="translate(1258.140625 0)"/>
       <use xlink:href="#NotoSansCJKkr-Regular-40" transform="translate(1313.546875 0)"/>
       <use xlink:href="#NotoSansCJKkr-Regular-54" transform="translate(1369.453125 0)"/>
       <use xlink:href="#NotoSansCJKkr-Regular-49" transform="translate(1416.25 0)"/>
       <use xlink:href="#NotoSansCJKkr-Regular-4a" transform="translate(1476.953125 0)"/>
       <use xlink:href="#NotoSansCJKkr-Regular-47" transform="translate(1504.453125 0)"/>
       <use xlink:href="#NotoSansCJKkr-Regular-55" transform="translate(1536.953125 0)"/>
      </g>
     </g>
    </g>
    <g id="xtick_7">
     <g id="line2d_7">
      <g>
       <use xlink:href="#mbe4d4b5b31" x="565.841157" y="336.792946" style="stroke: #000000; stroke-width: 0.8"/>
      </g>
     </g>
     <g id="text_7">
      <!-- drift_accuracy -->
      <g transform="translate(516.675626 372.730603) rotate(-25) scale(0.08 -0.08)">
       <use xlink:href="#NotoSansCJKkr-Regular-45"/>
       <use xlink:href="#NotoSansCJKkr-Regular-53" transform="translate(62 0)"/>
       <use xlink:href="#NotoSansCJKkr-Regular-4a" transform="translate(100.796875 0)"/>
       <use xlink:href="#NotoSansCJKkr-Regular-47" transform="translate(128.296875 0)"/>
       <use xlink:href="#NotoSansCJKkr-Regular-55" transform="translate(160.796875 0)"/>
       <use xlink:href="#NotoSansCJKkr-Regular-40" transform="translate(198.5 0)"/>
       <use xlink:href="#NotoSansCJKkr-Regular-42" transform="translate(254.40625 0)"/>
       <use xlink:href="#NotoSansCJKkr-Regular-44" transform="translate(310.703125 0)"/>
       <use xlink:href="#NotoSansCJKkr-Regular-44" transform="translate(359.296875 0)"/>
       <use xlink:href="#NotoSansCJKkr-Regular-56" transform="translate(410.296875 0)"/>
       <use xlink:href="#NotoSansCJKkr-Regular-53" transform="translate(471 0)"/>
       <use xlink:href="#NotoSansCJKkr-Regular-42" transform="translate(507.09375 0)"/>
       <use xlink:href="#NotoSansCJKkr-Regular-44" transform="translate(563.390625 0)"/>
       <use xlink:href="#NotoSansCJKkr-Regular-5a" transform="translate(615.09375 0)"/>
      </g>
     </g>
    </g>
    <g id="xtick_8">
     <g id="line2d_8">
      <g>
       <use xlink:href="#mbe4d4b5b31" x="641.671736" y="336.792946" style="stroke: #000000; stroke-width: 0.8"/>
      </g>
     </g>
     <g id="text_8">
      <!-- audit_coverage -->
      <g transform="translate(588.718333 374.47179) rotate(-25) scale(0.08 -0.08)">
       <defs>
        <path id="NotoSansCJKkr-Regular-57" d="M 1338 0 
L 2022 0 
L 3251 3475 
L 2675 3475 
L 2016 1498 
C 1914 1158 1798 806 1696 474 
L 1664 474 
C 1562 806 1453 1158 1344 1498 
L 691 3475 
L 83 3475 
L 1338 0 
z
" transform="scale(0.015625)"/>
        <path id="NotoSansCJKkr-Regular-48" d="M 1760 -1600 
C 2835 -1600 3520 -1043 3520 -397 
C 3520 179 3110 429 2310 429 
L 1626 429 
C 1158 429 1018 589 1018 806 
C 1018 998 1114 1114 1242 1222 
C 1395 1146 1587 1101 1754 1101 
C 2470 1101 3027 1568 3027 2310 
C 3027 2611 2912 2867 2746 3027 
L 3456 3027 
L 3456 3475 
L 2246 3475 
C 2125 3526 1952 3565 1754 3565 
C 1056 3565 454 3085 454 2323 
C 454 1907 678 1568 909 1389 
L 909 1363 
C 723 1235 525 1005 525 717 
C 525 442 659 256 838 147 
L 838 115 
C 512 -83 326 -371 326 -672 
C 326 -1267 915 -1600 1760 -1600 
z
M 1754 1498 
C 1357 1498 1018 1818 1018 2323 
C 1018 2835 1350 3136 1754 3136 
C 2170 3136 2496 2835 2496 2323 
C 2496 1818 2157 1498 1754 1498 
z
M 1843 -1197 
C 1210 -1197 838 -960 838 -589 
C 838 -390 941 -179 1190 0 
C 1344 -38 1510 -51 1638 -51 
L 2240 -51 
C 2701 -51 2944 -166 2944 -493 
C 2944 -851 2515 -1197 1843 -1197 
z
" transform="scale(0.015625)"/>
       </defs>
       <use xlink:href="#NotoSansCJKkr-Regular-42"/>
       <use xlink:href="#NotoSansCJKkr-Regular-56" transform="translate(56.296875 0)"/>
       <use xlink:href="#NotoSansCJKkr-Regular-45" transform="translate(117 0)"/>
       <use xlink:href="#NotoSansCJKkr-Regular-4a" transform="translate(179 0)"/>
       <use xlink:href="#NotoSansCJKkr-Regular-55" transform="translate(206.5 0)"/>
       <use xlink:href="#NotoSansCJKkr-Regular-40" transform="translate(244.203125 0)"/>
       <use xlink:href="#NotoSansCJKkr-Regular-44" transform="translate(300.109375 0)"/>
       <use xlink:href="#NotoSansCJKkr-Regular-50" transform="translate(348.703125 0)"/>
       <use xlink:href="#NotoSansCJKkr-Regular-57" transform="translate(408.890625 0)"/>
       <use xlink:href="#NotoSansCJKkr-Regular-46" transform="translate(460.578125 0)"/>
       <use xlink:href="#NotoSansCJKkr-Regular-53" transform="translate(515.984375 0)"/>
       <use xlink:href="#NotoSansCJKkr-Regular-42" transform="translate(552.078125 0)"/>
       <use xlink:href="#NotoSansCJKkr-Regular-48" transform="translate(608.375 0)"/>
       <use xlink:href="#NotoSansCJKkr-Regular-46" transform="translate(663.28125 0)"/>
      </g>
     </g>
    </g>
    <g id="xtick_9">
     <g id="line2d_9">
      <g>
       <use xlink:href="#mbe4d4b5b31" x="717.502314" y="336.792946" style="stroke: #000000; stroke-width: 0.8"/>
      </g>
     </g>
     <g id="text_9">
      <!-- inventory_coverage -->
      <g transform="translate(649.831606 381.334582) rotate(-25) scale(0.08 -0.08)">
       <use xlink:href="#NotoSansCJKkr-Regular-4a"/>
       <use xlink:href="#NotoSansCJKkr-Regular-4f" transform="translate(27.5 0)"/>
       <use xlink:href="#NotoSansCJKkr-Regular-57" transform="translate(88.5 0)"/>
       <use xlink:href="#NotoSansCJKkr-Regular-46" transform="translate(140.1875 0)"/>
       <use xlink:href="#NotoSansCJKkr-Regular-4f" transform="translate(195.59375 0)"/>
       <use xlink:href="#NotoSansCJKkr-Regular-55" transform="translate(256.59375 0)"/>
       <use xlink:href="#NotoSansCJKkr-Regular-50" transform="translate(292.796875 0)"/>
       <use xlink:href="#NotoSansCJKkr-Regular-53" transform="translate(353.390625 0)"/>
       <use xlink:href="#NotoSansCJKkr-Regular-5a" transform="translate(395.09375 0)"/>
       <use xlink:href="#NotoSansCJKkr-Regular-40" transform="translate(447.1875 0)"/>
       <use xlink:href="#NotoSansCJKkr-Regular-44" transform="translate(503.09375 0)"/>
       <use xlink:href="#NotoSansCJKkr-Regular-50" transform="translate(551.6875 0)"/>
       <use xlink:href="#NotoSansCJKkr-Regular-57" transform="translate(611.875 0)"/>
       <use xlink:href="#NotoSansCJKkr-Regular-46" transform="translate(663.5625 0)"/>
       <use xlink:href="#NotoSansCJKkr-Regular-53" transform="translate(718.96875 0)"/>
       <use xlink:href="#NotoSansCJKkr-Regular-42" transform="translate(755.0625 0)"/>
       <use xlink:href="#NotoSansCJKkr-Regular-48" transform="translate(811.359375 0)"/>
       <use xlink:href="#NotoSansCJKkr-Regular-46" transform="translate(866.265625 0)"/>
      </g>
     </g>
    </g>
    <g id="text_10">
     <!-- metric -->
     <g transform="translate(399.084688 417.226697) scale(0.1 -0.1)">
      <use xlink:href="#NotoSansCJKkr-Regular-4e"/>
      <use xlink:href="#NotoSansCJKkr-Regular-46" transform="translate(92.59375 0)"/>
      <use xlink:href="#NotoSansCJKkr-Regular-55" transform="translate(146.90625 0)"/>
      <use xlink:href="#NotoSansCJKkr-Regular-53" transform="translate(184.609375 0)"/>
      <use xlink:href="#NotoSansCJKkr-Regular-4a" transform="translate(223.40625 0)"/>
      <use xlink:href="#NotoSansCJKkr-Regular-44" transform="translate(250.90625 0)"/>
     </g>
    </g>
   </g>
   <g id="matplotlib.axis_2">
    <g id="ytick_1">
     <g id="line2d_10">
      <path d="M 47.16 336.792946 
L 781.2 336.792946 
" clip-path="url(#pa08b425db4)" style="fill: none; stroke: #b0b0b0; stroke-opacity: 0.25; stroke-width: 0.8; stroke-linecap: square"/>
     </g>
     <g id="line2d_11">
      <defs>
       <path id="m57882ee8a8" d="M 0 0 
L -3.5 0 
" style="stroke: #000000; stroke-width: 0.8"/>
      </defs>
      <g>
       <use xlink:href="#m57882ee8a8" x="47.16" y="336.792946" style="stroke: #000000; stroke-width: 0.8"/>
      </g>
     </g>
     <g id="text_11">
      <!-- 0.0 -->
      <g transform="translate(26.280313 341.192946) scale(0.1 -0.1)">
       <defs>
        <path id="NotoSansCJKkr-Regular-11" d="M 1779 -83 
C 2669 -83 3238 723 3238 2362 
C 3238 3987 2669 4774 1779 4774 
C 883 4774 320 3987 320 2362 
C 320 723 883 -83 1779 -83 
z
M 1779 390 
C 1248 390 883 986 883 2362 
C 883 3731 1248 4314 1779 4314 
C 2310 4314 2675 3731 2675 2362 
C 2675 986 2310 390 1779 390 
z
" transform="scale(0.015625)"/>
        <path id="NotoSansCJKkr-Regular-f" d="M 890 -83 
C 1120 -83 1312 96 1312 358 
C 1312 627 1120 806 890 806 
C 653 806 467 627 467 358 
C 467 96 653 -83 890 -83 
z
" transform="scale(0.015625)"/>
       </defs>
       <use xlink:href="#NotoSansCJKkr-Regular-11"/>
       <use xlink:href="#NotoSansCJKkr-Regular-f" transform="translate(55.5 0)"/>
       <use xlink:href="#NotoSansCJKkr-Regular-11" transform="translate(83.296875 0)"/>
      </g>
     </g>
    </g>
    <g id="ytick_2">
     <g id="line2d_12">
      <path d="M 47.16 279.331432 
L 781.2 279.331432 
" clip-path="url(#pa08b425db4)" style="fill: none; stroke: #b0b0b0; stroke-opacity: 0.25; stroke-width: 0.8; stroke-linecap: square"/>
     </g>
     <g id="line2d_13">
      <g>
       <use xlink:href="#m57882ee8a8" x="47.16" y="279.331432" style="stroke: #000000; stroke-width: 0.8"/>
      </g>
     </g>
     <g id="text_12">
      <!-- 0.2 -->
      <g transform="translate(26.280313 283.731432) scale(0.1 -0.1)">
       <defs>
        <path id="NotoSansCJKkr-Regular-13" d="M 282 0 
L 3232 0 
L 3232 506 
L 1933 506 
C 1696 506 1408 480 1165 461 
C 2266 1504 3008 2458 3008 3398 
C 3008 4230 2477 4774 1638 4774 
C 1043 4774 634 4506 256 4090 
L 595 3757 
C 858 4070 1184 4301 1568 4301 
C 2150 4301 2432 3910 2432 3373 
C 2432 2566 1754 1632 282 346 
L 282 0 
z
" transform="scale(0.015625)"/>
       </defs>
       <use xlink:href="#NotoSansCJKkr-Regular-11"/>
       <use xlink:href="#NotoSansCJKkr-Regular-f" transform="translate(55.5 0)"/>
       <use xlink:href="#NotoSansCJKkr-Regular-13" transform="translate(83.296875 0)"/>
      </g>
     </g>
    </g>
    <g id="ytick_3">
     <g id="line2d_14">
      <path d="M 47.16 221.869919 
L 781.2 221.869919 
" clip-path="url(#pa08b425db4)" style="fill: none; stroke: #b0b0b0; stroke-opacity: 0.25; stroke-width: 0.8; stroke-linecap: square"/>
     </g>
     <g id="line2d_15">
      <g>
       <use xlink:href="#m57882ee8a8" x="47.16" y="221.869919" style="stroke: #000000; stroke-width: 0.8"/>
      </g>
     </g>
     <g id="text_13">
      <!-- 0.4 -->
      <g transform="translate(26.280313 226.269919) scale(0.1 -0.1)">
       <defs>
        <path id="NotoSansCJKkr-Regular-15" d="M 2176 0 
L 2726 0 
L 2726 1293 
L 3354 1293 
L 3354 1760 
L 2726 1760 
L 2726 4691 
L 2080 4691 
L 128 1677 
L 128 1293 
L 2176 1293 
L 2176 0 
z
M 2176 1760 
L 736 1760 
L 1805 3360 
C 1939 3590 2067 3827 2182 4051 
L 2208 4051 
C 2195 3814 2176 3430 2176 3200 
L 2176 1760 
z
" transform="scale(0.015625)"/>
       </defs>
       <use xlink:href="#NotoSansCJKkr-Regular-11"/>
       <use xlink:href="#NotoSansCJKkr-Regular-f" transform="translate(55.5 0)"/>
       <use xlink:href="#NotoSansCJKkr-Regular-15" transform="translate(83.296875 0)"/>
      </g>
     </g>
    </g>
    <g id="ytick_4">
     <g id="line2d_16">
      <path d="M 47.16 164.408405 
L 781.2 164.408405 
" clip-path="url(#pa08b425db4)" style="fill: none; stroke: #b0b0b0; stroke-opacity: 0.25; stroke-width: 0.8; stroke-linecap: square"/>
     </g>
     <g id="line2d_17">
      <g>
       <use xlink:href="#m57882ee8a8" x="47.16" y="164.408405" style="stroke: #000000; stroke-width: 0.8"/>
      </g>
     </g>
     <g id="text_14">
      <!-- 0.6 -->
      <g transform="translate(26.280313 168.808405) scale(0.1 -0.1)">
       <defs>
        <path id="NotoSansCJKkr-Regular-17" d="M 1926 -83 
C 2656 -83 3277 531 3277 1440 
C 3277 2426 2765 2912 1971 2912 
C 1606 2912 1197 2701 909 2349 
C 934 3802 1466 4294 2118 4294 
C 2400 4294 2682 4154 2861 3936 
L 3194 4294 
C 2931 4576 2579 4774 2093 4774 
C 1184 4774 358 4077 358 2240 
C 358 691 1030 -83 1926 -83 
z
M 922 1882 
C 1229 2317 1587 2477 1875 2477 
C 2445 2477 2720 2074 2720 1440 
C 2720 800 2374 378 1926 378 
C 1338 378 986 909 922 1882 
z
" transform="scale(0.015625)"/>
       </defs>
       <use xlink:href="#NotoSansCJKkr-Regular-11"/>
       <use xlink:href="#NotoSansCJKkr-Regular-f" transform="translate(55.5 0)"/>
       <use xlink:href="#NotoSansCJKkr-Regular-17" transform="translate(83.296875 0)"/>
      </g>
     </g>
    </g>
    <g id="ytick_5">
     <g id="line2d_18">
      <path d="M 47.16 106.946892 
L 781.2 106.946892 
" clip-path="url(#pa08b425db4)" style="fill: none; stroke: #b0b0b0; stroke-opacity: 0.25; stroke-width: 0.8; stroke-linecap: square"/>
     </g>
     <g id="line2d_19">
      <g>
       <use xlink:href="#m57882ee8a8" x="47.16" y="106.946892" style="stroke: #000000; stroke-width: 0.8"/>
      </g>
     </g>
     <g id="text_15">
      <!-- 0.8 -->
      <g transform="translate(26.280313 111.346892) scale(0.1 -0.1)">
       <defs>
        <path id="NotoSansCJKkr-Regular-19" d="M 1792 -83 
C 2669 -83 3258 448 3258 1126 
C 3258 1773 2880 2125 2470 2362 
L 2470 2394 
C 2746 2611 3091 3034 3091 3526 
C 3091 4250 2605 4762 1805 4762 
C 1075 4762 518 4282 518 3571 
C 518 3078 813 2726 1152 2490 
L 1152 2464 
C 723 2234 294 1792 294 1165 
C 294 442 922 -83 1792 -83 
z
M 2112 2547 
C 1555 2765 1050 3014 1050 3571 
C 1050 4026 1363 4326 1798 4326 
C 2298 4326 2592 3962 2592 3494 
C 2592 3149 2426 2829 2112 2547 
z
M 1798 352 
C 1235 352 813 717 813 1216 
C 813 1664 1082 2035 1459 2278 
C 2125 2010 2701 1779 2701 1146 
C 2701 678 2342 352 1798 352 
z
" transform="scale(0.015625)"/>
       </defs>
       <use xlink:href="#NotoSansCJKkr-Regular-11"/>
       <use xlink:href="#NotoSansCJKkr-Regular-f" transform="translate(55.5 0)"/>
       <use xlink:href="#NotoSansCJKkr-Regular-19" transform="translate(83.296875 0)"/>
      </g>
     </g>
    </g>
    <g id="ytick_6">
     <g id="line2d_20">
      <path d="M 47.16 49.485378 
L 781.2 49.485378 
" clip-path="url(#pa08b425db4)" style="fill: none; stroke: #b0b0b0; stroke-opacity: 0.25; stroke-width: 0.8; stroke-linecap: square"/>
     </g>
     <g id="line2d_21">
      <g>
       <use xlink:href="#m57882ee8a8" x="47.16" y="49.485378" style="stroke: #000000; stroke-width: 0.8"/>
      </g>
     </g>
     <g id="text_16">
      <!-- 1.0 -->
      <g transform="translate(26.280313 53.885378) scale(0.1 -0.1)">
       <defs>
        <path id="NotoSansCJKkr-Regular-12" d="M 563 0 
L 3136 0 
L 3136 486 
L 2195 486 
L 2195 4691 
L 1747 4691 
C 1491 4544 1190 4435 774 4358 
L 774 3987 
L 1613 3987 
L 1613 486 
L 563 486 
L 563 0 
z
" transform="scale(0.015625)"/>
       </defs>
       <use xlink:href="#NotoSansCJKkr-Regular-12"/>
       <use xlink:href="#NotoSansCJKkr-Regular-f" transform="translate(55.5 0)"/>
       <use xlink:href="#NotoSansCJKkr-Regular-11" transform="translate(83.296875 0)"/>
      </g>
     </g>
    </g>
    <g id="text_17">
     <!-- Metric value (unitless unless noted) -->
     <g transform="translate(20.320938 267.714285) rotate(-90) scale(0.1 -0.1)">
      <defs>
       <path id="NotoSansCJKkr-Regular-2e" d="M 646 0 
L 1178 0 
L 1178 2598 
C 1178 3002 1139 3571 1101 3981 
L 1126 3981 
L 1504 2912 
L 2394 474 
L 2790 474 
L 3674 2912 
L 4051 3981 
L 4077 3981 
C 4045 3571 4000 3002 4000 2598 
L 4000 0 
L 4550 0 
L 4550 4691 
L 3840 4691 
L 2944 2182 
C 2835 1862 2739 1530 2618 1203 
L 2592 1203 
C 2477 1530 2374 1862 2253 2182 
L 1357 4691 
L 646 4691 
L 646 0 
z
" transform="scale(0.015625)"/>
       <path id="NotoSansCJKkr-Regular-1" transform="scale(0.015625)"/>
       <path id="NotoSansCJKkr-Regular-9" d="M 1530 -1254 
L 1888 -1094 
C 1338 -186 1075 902 1075 1990 
C 1075 3072 1338 4154 1888 5069 
L 1530 5235 
C 941 4275 589 3245 589 1990 
C 589 730 941 -301 1530 -1254 
z
" transform="scale(0.015625)"/>
       <path id="NotoSansCJKkr-Regular-a" d="M 634 -1254 
C 1222 -301 1574 730 1574 1990 
C 1574 3245 1222 4275 634 5235 
L 269 5069 
C 819 4154 1094 3072 1094 1990 
C 1094 902 819 -186 269 -1094 
L 634 -1254 
z
" transform="scale(0.015625)"/>
      </defs>
      <use xlink:href="#NotoSansCJKkr-Regular-2e"/>
      <use xlink:href="#NotoSansCJKkr-Regular-46" transform="translate(81.203125 0)"/>
      <use xlink:href="#NotoSansCJKkr-Regular-55" transform="translate(135.515625 0)"/>
      <use xlink:href="#NotoSansCJKkr-Regular-53" transform="translate(173.21875 0)"/>
      <use xlink:href="#NotoSansCJKkr-Regular-4a" transform="translate(212.015625 0)"/>
      <use xlink:href="#NotoSansCJKkr-Regular-44" transform="translate(239.515625 0)"/>
      <use xlink:href="#NotoSansCJKkr-Regular-1" transform="translate(290.515625 0)"/>
      <use xlink:href="#NotoSansCJKkr-Regular-57" transform="translate(312.921875 0)"/>
      <use xlink:href="#NotoSansCJKkr-Regular-42" transform="translate(362.8125 0)"/>
      <use xlink:href="#NotoSansCJKkr-Regular-4d" transform="translate(419.109375 0)"/>
      <use xlink:href="#NotoSansCJKkr-Regular-56" transform="translate(447.515625 0)"/>
      <use xlink:href="#NotoSansCJKkr-Regular-46" transform="translate(508.21875 0)"/>
      <use xlink:href="#NotoSansCJKkr-Regular-1" transform="translate(563.625 0)"/>
      <use xlink:href="#NotoSansCJKkr-Regular-9" transform="translate(586.03125 0)"/>
      <use xlink:href="#NotoSansCJKkr-Regular-56" transform="translate(619.828125 0)"/>
      <use xlink:href="#NotoSansCJKkr-Regular-4f" transform="translate(680.53125 0)"/>
      <use xlink:href="#NotoSansCJKkr-Regular-4a" transform="translate(741.53125 0)"/>
      <use xlink:href="#NotoSansCJKkr-Regular-55" transform="translate(769.03125 0)"/>
      <use xlink:href="#NotoSansCJKkr-Regular-4d" transform="translate(806.734375 0)"/>
      <use xlink:href="#NotoSansCJKkr-Regular-46" transform="translate(835.140625 0)"/>
      <use xlink:href="#NotoSansCJKkr-Regular-54" transform="translate(890.546875 0)"/>
      <use xlink:href="#NotoSansCJKkr-Regular-54" transform="translate(937.34375 0)"/>
      <use xlink:href="#NotoSansCJKkr-Regular-1" transform="translate(984.140625 0)"/>
      <use xlink:href="#NotoSansCJKkr-Regular-56" transform="translate(1006.546875 0)"/>
      <use xlink:href="#NotoSansCJKkr-Regular-4f" transform="translate(1067.25 0)"/>
      <use xlink:href="#NotoSansCJKkr-Regular-4d" transform="translate(1128.25 0)"/>
      <use xlink:href="#NotoSansCJKkr-Regular-46" transform="translate(1156.65625 0)"/>
      <use xlink:href="#NotoSansCJKkr-Regular-54" transform="translate(1212.0625 0)"/>
      <use xlink:href="#NotoSansCJKkr-Regular-54" transform="translate(1258.859375 0)"/>
      <use xlink:href="#NotoSansCJKkr-Regular-1" transform="translate(1305.65625 0)"/>
      <use xlink:href="#NotoSansCJKkr-Regular-4f" transform="translate(1328.0625 0)"/>
      <use xlink:href="#NotoSansCJKkr-Regular-50" transform="translate(1389.0625 0)"/>
      <use xlink:href="#NotoSansCJKkr-Regular-55" transform="translate(1447.75 0)"/>
      <use xlink:href="#NotoSansCJKkr-Regular-46" transform="translate(1483.953125 0)"/>
      <use xlink:href="#NotoSansCJKkr-Regular-45" transform="translate(1539.359375 0)"/>
      <use xlink:href="#NotoSansCJKkr-Regular-a" transform="translate(1601.359375 0)"/>
     </g>
    </g>
   </g>
   <g id="patch_12">
    <path d="M 47.16 336.792946 
L 47.16 35.12 
" style="fill: none; stroke: #000000; stroke-width: 0.8; stroke-linejoin: miter; stroke-linecap: square"/>
   </g>
   <g id="patch_13">
    <path d="M 781.2 336.792946 
L 781.2 35.12 
" style="fill: none; stroke: #000000; stroke-width: 0.8; stroke-linejoin: miter; stroke-linecap: square"/>
   </g>
   <g id="patch_14">
    <path d="M 47.16 336.792946 
L 781.2 336.792946 
" style="fill: none; stroke: #000000; stroke-width: 0.8; stroke-linejoin: miter; stroke-linecap: square"/>
   </g>
   <g id="patch_15">
    <path d="M 47.16 35.12 
L 781.2 35.12 
" style="fill: none; stroke: #000000; stroke-width: 0.8; stroke-linejoin: miter; stroke-linecap: square"/>
   </g>
   <g id="text_18">
    <!-- 0.925 -->
    <g transform="translate(100.865811 64.327295) scale(0.08 -0.08)">
     <defs>
      <path id="NotoSansCJKkr-Regular-1a" d="M 1504 -83 
C 2381 -83 3206 646 3206 2547 
C 3206 4038 2528 4774 1626 4774 
C 896 4774 282 4166 282 3251 
C 282 2285 794 1779 1574 1779 
C 1965 1779 2368 2003 2656 2349 
C 2611 896 2086 403 1485 403 
C 1178 403 896 538 691 762 
L 371 397 
C 634 122 992 -83 1504 -83 
z
M 2650 2842 
C 2336 2394 1984 2214 1670 2214 
C 1114 2214 832 2624 832 3251 
C 832 3898 1178 4320 1632 4320 
C 2227 4320 2586 3808 2650 2842 
z
" transform="scale(0.015625)"/>
      <path id="NotoSansCJKkr-Regular-16" d="M 1677 -83 
C 2464 -83 3213 499 3213 1523 
C 3213 2560 2573 3021 1798 3021 
C 1517 3021 1306 2950 1094 2835 
L 1216 4192 
L 2982 4192 
L 2982 4691 
L 704 4691 
L 550 2502 
L 864 2304 
C 1133 2483 1331 2579 1645 2579 
C 2234 2579 2618 2182 2618 1510 
C 2618 826 2176 403 1619 403 
C 1075 403 730 653 467 922 
L 173 538 
C 493 224 941 -83 1677 -83 
z
" transform="scale(0.015625)"/>
     </defs>
     <use xlink:href="#NotoSansCJKkr-Regular-11"/>
     <use xlink:href="#NotoSansCJKkr-Regular-f" transform="translate(55.5 0)"/>
     <use xlink:href="#NotoSansCJKkr-Regular-1a" transform="translate(83.296875 0)"/>
     <use xlink:href="#NotoSansCJKkr-Regular-13" transform="translate(138.796875 0)"/>
     <use xlink:href="#NotoSansCJKkr-Regular-16" transform="translate(194.296875 0)"/>
    </g>
   </g>
   <g id="text_19">
    <!-- 0.923 -->
    <g transform="translate(176.696389 64.879787) scale(0.08 -0.08)">
     <defs>
      <path id="NotoSansCJKkr-Regular-14" d="M 1683 -83 
C 2522 -83 3194 416 3194 1254 
C 3194 1901 2752 2310 2202 2445 
L 2202 2477 
C 2701 2650 3034 3034 3034 3603 
C 3034 4346 2458 4774 1664 4774 
C 1126 4774 710 4538 358 4218 
L 672 3846 
C 941 4115 1267 4301 1645 4301 
C 2138 4301 2438 4006 2438 3558 
C 2438 3053 2112 2662 1139 2662 
L 1139 2214 
C 2227 2214 2598 1843 2598 1274 
C 2598 736 2208 403 1645 403 
C 1114 403 762 659 486 941 
L 186 563 
C 493 224 954 -83 1683 -83 
z
" transform="scale(0.015625)"/>
     </defs>
     <use xlink:href="#NotoSansCJKkr-Regular-11"/>
     <use xlink:href="#NotoSansCJKkr-Regular-f" transform="translate(55.5 0)"/>
     <use xlink:href="#NotoSansCJKkr-Regular-1a" transform="translate(83.296875 0)"/>
     <use xlink:href="#NotoSansCJKkr-Regular-13" transform="translate(138.796875 0)"/>
     <use xlink:href="#NotoSansCJKkr-Regular-14" transform="translate(194.296875 0)"/>
    </g>
   </g>
   <g id="text_20">
    <!-- 1 -->
    <g transform="translate(336.129421 42.779227) scale(0.08 -0.08)">
     <use xlink:href="#NotoSansCJKkr-Regular-12"/>
    </g>
   </g>
   <g id="text_21">
    <!-- 1 -->
    <g transform="translate(411.96 42.779227) scale(0.08 -0.08)">
     <use xlink:href="#NotoSansCJKkr-Regular-12"/>
    </g>
   </g>
   <g id="text_22">
    <!-- 0.308 -->
    <g transform="translate(480.018704 241.703517) scale(0.08 -0.08)">
     <use xlink:href="#NotoSansCJKkr-Regular-11"/>
     <use xlink:href="#NotoSansCJKkr-Regular-f" transform="translate(55.5 0)"/>
     <use xlink:href="#NotoSansCJKkr-Regular-14" transform="translate(83.296875 0)"/>
     <use xlink:href="#NotoSansCJKkr-Regular-11" transform="translate(138.796875 0)"/>
     <use xlink:href="#NotoSansCJKkr-Regular-19" transform="translate(194.296875 0)"/>
    </g>
   </g>
   <g id="text_23">
    <!-- 0.925 -->
    <g transform="translate(555.849282 64.327295) scale(0.08 -0.08)">
     <use xlink:href="#NotoSansCJKkr-Regular-11"/>
     <use xlink:href="#NotoSansCJKkr-Regular-f" transform="translate(55.5 0)"/>
     <use xlink:href="#NotoSansCJKkr-Regular-1a" transform="translate(83.296875 0)"/>
     <use xlink:href="#NotoSansCJKkr-Regular-13" transform="translate(138.796875 0)"/>
     <use xlink:href="#NotoSansCJKkr-Regular-16" transform="translate(194.296875 0)"/>
    </g>
   </g>
   <g id="text_24">
    <!-- 1 -->
    <g transform="translate(639.451736 42.779227) scale(0.08 -0.08)">
     <use xlink:href="#NotoSansCJKkr-Regular-12"/>
    </g>
   </g>
   <g id="text_25">
    <!-- 1 -->
    <g transform="translate(715.282314 42.779227) scale(0.08 -0.08)">
     <use xlink:href="#NotoSansCJKkr-Regular-12"/>
    </g>
   </g>
   <g id="text_26">
    <!-- W14 metrics from metrics_summary.csv -->
    <g transform="translate(284.113438 23.12) scale(0.14 -0.14)">
     <defs>
      <path id="NotoSansCJKkr-Regular-38" d="M 1158 0 
L 1862 0 
L 2560 2829 
C 2637 3200 2726 3539 2797 3898 
L 2822 3898 
C 2899 3539 2970 3200 3053 2829 
L 3763 0 
L 4480 0 
L 5446 4691 
L 4883 4691 
L 4378 2138 
C 4294 1632 4205 1126 4122 614 
L 4083 614 
C 3968 1126 3866 1638 3750 2138 
L 3098 4691 
L 2554 4691 
L 1907 2138 
C 1792 1632 1677 1126 1574 614 
L 1549 614 
C 1453 1126 1363 1632 1267 2138 
L 774 4691 
L 166 4691 
L 1158 0 
z
" transform="scale(0.015625)"/>
      <path id="NotoSansCJKkr-Regular-f6b5" d="M 2176 0 
L 2726 0 
L 2726 1261 
L 3354 1261 
L 3354 1728 
L 2726 1728 
L 2726 4563 
L 2080 4563 
L 128 1645 
L 128 1261 
L 2176 1261 
L 2176 0 
z
M 2176 1728 
L 736 1728 
L 1805 3290 
C 1939 3520 2067 3718 2182 3936 
L 2208 3936 
C 2195 3699 2176 3296 2176 3066 
L 2176 1728 
z
" transform="scale(0.015625)"/>
     </defs>
     <use xlink:href="#NotoSansCJKkr-Regular-38"/>
     <use xlink:href="#NotoSansCJKkr-Regular-f6b2" transform="translate(87.796875 0)"/>
     <use xlink:href="#NotoSansCJKkr-Regular-f6b5" transform="translate(143.296875 0)"/>
     <use xlink:href="#NotoSansCJKkr-Regular-1" transform="translate(198.796875 0)"/>
     <use xlink:href="#NotoSansCJKkr-Regular-4e" transform="translate(221.203125 0)"/>
     <use xlink:href="#NotoSansCJKkr-Regular-46" transform="translate(313.796875 0)"/>
     <use xlink:href="#NotoSansCJKkr-Regular-55" transform="translate(368.109375 0)"/>
     <use xlink:href="#NotoSansCJKkr-Regular-53" transform="translate(405.8125 0)"/>
     <use xlink:href="#NotoSansCJKkr-Regular-4a" transform="translate(444.609375 0)"/>
     <use xlink:href="#NotoSansCJKkr-Regular-44" transform="translate(472.109375 0)"/>
     <use xlink:href="#NotoSansCJKkr-Regular-54" transform="translate(523.109375 0)"/>
     <use xlink:href="#NotoSansCJKkr-Regular-1" transform="translate(569.90625 0)"/>
     <use xlink:href="#NotoSansCJKkr-Regular-47" transform="translate(592.3125 0)"/>
     <use xlink:href="#NotoSansCJKkr-Regular-53" transform="translate(624.8125 0)"/>
     <use xlink:href="#NotoSansCJKkr-Regular-50" transform="translate(662.515625 0)"/>
     <use xlink:href="#NotoSansCJKkr-Regular-4e" transform="translate(723.109375 0)"/>
     <use xlink:href="#NotoSansCJKkr-Regular-1" transform="translate(815.703125 0)"/>
     <use xlink:href="#NotoSansCJKkr-Regular-4e" transform="translate(838.109375 0)"/>
     <use xlink:href="#NotoSansCJKkr-Regular-46" transform="translate(930.703125 0)"/>
     <use xlink:href="#NotoSansCJKkr-Regular-55" transform="translate(985.015625 0)"/>
     <use xlink:href="#NotoSansCJKkr-Regular-53" transform="translate(1022.71875 0)"/>
     <use xlink:href="#NotoSansCJKkr-Regular-4a" transform="translate(1061.515625 0)"/>
     <use xlink:href="#NotoSansCJKkr-Regular-44" transform="translate(1089.015625 0)"/>
     <use xlink:href="#NotoSansCJKkr-Regular-54" transform="translate(1140.015625 0)"/>
     <use xlink:href="#NotoSansCJKkr-Regular-40" transform="translate(1186.8125 0)"/>
     <use xlink:href="#NotoSansCJKkr-Regular-54" transform="translate(1242.71875 0)"/>
     <use xlink:href="#NotoSansCJKkr-Regular-56" transform="translate(1289.515625 0)"/>
     <use xlink:href="#NotoSansCJKkr-Regular-4e" transform="translate(1350.21875 0)"/>
     <use xlink:href="#NotoSansCJKkr-Regular-4e" transform="translate(1442.8125 0)"/>
     <use xlink:href="#NotoSansCJKkr-Regular-42" transform="translate(1535.40625 0)"/>
     <use xlink:href="#NotoSansCJKkr-Regular-53" transform="translate(1591.703125 0)"/>
     <use xlink:href="#NotoSansCJKkr-Regular-5a" transform="translate(1633.40625 0)"/>
     <use xlink:href="#NotoSansCJKkr-Regular-f" transform="translate(1681.703125 0)"/>
     <use xlink:href="#NotoSansCJKkr-Regular-44" transform="translate(1708.203125 0)"/>
     <use xlink:href="#NotoSansCJKkr-Regular-54" transform="translate(1759.203125 0)"/>
     <use xlink:href="#NotoSansCJKkr-Regular-57" transform="translate(1806 0)"/>
    </g>
   </g>
   <g id="legend_1">
    <g id="patch_16">
     <path d="M 52.76 53.52 
L 98.41625 53.52 
Q 100.01625 53.52 100.01625 51.92 
L 100.01625 40.72 
Q 100.01625 39.12 98.41625 39.12 
L 52.76 39.12 
Q 51.16 39.12 51.16 40.72 
L 51.16 51.92 
Q 51.16 53.52 52.76 53.52 
z
" style="fill: #ffffff; opacity: 0.8; stroke: #cccccc; stroke-linejoin: miter"/>
    </g>
    <g id="patch_17">
     <path d="M 54.36 49.36 
L 70.36 49.36 
L 70.36 43.76 
L 54.36 43.76 
z
" style="fill: #2a6f97"/>
    </g>
    <g id="text_27">
     <!-- value -->
     <g transform="translate(76.76 49.36) scale(0.08 -0.08)">
      <use xlink:href="#NotoSansCJKkr-Regular-57"/>
      <use xlink:href="#NotoSansCJKkr-Regular-42" transform="translate(49.890625 0)"/>
      <use xlink:href="#NotoSansCJKkr-Regular-4d" transform="translate(106.1875 0)"/>
      <use xlink:href="#NotoSansCJKkr-Regular-56" transform="translate(134.59375 0)"/>
      <use xlink:href="#NotoSansCJKkr-Regular-46" transform="translate(195.296875 0)"/>
     </g>
    </g>
   </g>
  </g>
  <g id="text_28">
   <!-- Data source: 04_experiment/outputs/metrics_summary.csv -->
   <g style="fill: #555555" transform="translate(7.92 441.936) scale(0.08 -0.08)">
    <defs>
     <path id="NotoSansCJKkr-Regular-25" d="M 646 0 
L 1843 0 
C 3258 0 4026 877 4026 2362 
C 4026 3859 3258 4691 1818 4691 
L 646 4691 
L 646 0 
z
M 1235 486 
L 1235 4211 
L 1766 4211 
C 2874 4211 3418 3552 3418 2362 
C 3418 1178 2874 486 1766 486 
L 1235 486 
z
" transform="scale(0.015625)"/>
     <path id="NotoSansCJKkr-Regular-1b" d="M 890 2496 
C 1120 2496 1312 2675 1312 2944 
C 1312 3206 1120 3392 890 3392 
C 653 3392 467 3206 467 2944 
C 467 2675 653 2496 890 2496 
z
M 890 -83 
C 1120 -83 1312 96 1312 358 
C 1312 627 1120 806 890 806 
C 653 806 467 627 467 358 
C 467 96 653 -83 890 -83 
z
" transform="scale(0.015625)"/>
     <path id="NotoSansCJKkr-Regular-f6b1" d="M 1779 -83 
C 2688 -83 3238 768 3238 2298 
C 3238 3821 2688 4646 1779 4646 
C 864 4646 320 3827 320 2298 
C 320 768 864 -83 1779 -83 
z
M 1779 390 
C 1248 390 883 960 883 2298 
C 883 3635 1248 4179 1779 4179 
C 2310 4179 2675 3635 2675 2298 
C 2675 960 2310 390 1779 390 
z
" transform="scale(0.015625)"/>
     <path id="NotoSansCJKkr-Regular-59" d="M 96 0 
L 710 0 
L 1178 813 
C 1299 1024 1408 1235 1530 1434 
L 1562 1434 
C 1696 1235 1824 1024 1939 813 
L 2451 0 
L 3091 0 
L 1946 1754 
L 3002 3475 
L 2394 3475 
L 1965 2714 
C 1856 2515 1760 2330 1658 2131 
L 1626 2131 
C 1510 2330 1389 2515 1286 2714 
L 819 3475 
L 186 3475 
L 1242 1811 
L 96 0 
z
" transform="scale(0.015625)"/>
     <path id="NotoSansCJKkr-Regular-51" d="M 589 -1466 
L 1178 -1466 
L 1178 -288 
L 1158 320 
C 1472 58 1805 -83 2118 -83 
C 2912 -83 3629 602 3629 1792 
C 3629 2867 3142 3565 2246 3565 
C 1843 3565 1453 3334 1139 3072 
L 1126 3072 
L 1069 3475 
L 589 3475 
L 589 -1466 
z
M 2022 410 
C 1792 410 1485 499 1178 768 
L 1178 2598 
C 1510 2906 1811 3072 2099 3072 
C 2765 3072 3021 2560 3021 1786 
C 3021 928 2598 410 2022 410 
z
" transform="scale(0.015625)"/>
     <path id="NotoSansCJKkr-Regular-10" d="M 70 -1146 
L 499 -1146 
L 2413 5082 
L 1990 5082 
L 70 -1146 
z
" transform="scale(0.015625)"/>
    </defs>
    <use xlink:href="#NotoSansCJKkr-Regular-25"/>
    <use xlink:href="#NotoSansCJKkr-Regular-42" transform="translate(68.796875 0)"/>
    <use xlink:href="#NotoSansCJKkr-Regular-55" transform="translate(123.59375 0)"/>
    <use xlink:href="#NotoSansCJKkr-Regular-42" transform="translate(158.890625 0)"/>
    <use xlink:href="#NotoSansCJKkr-Regular-1" transform="translate(215.1875 0)"/>
    <use xlink:href="#NotoSansCJKkr-Regular-54" transform="translate(237.59375 0)"/>
    <use xlink:href="#NotoSansCJKkr-Regular-50" transform="translate(284.390625 0)"/>
    <use xlink:href="#NotoSansCJKkr-Regular-56" transform="translate(344.984375 0)"/>
    <use xlink:href="#NotoSansCJKkr-Regular-53" transform="translate(405.6875 0)"/>
    <use xlink:href="#NotoSansCJKkr-Regular-44" transform="translate(443.390625 0)"/>
    <use xlink:href="#NotoSansCJKkr-Regular-46" transform="translate(491.984375 0)"/>
    <use xlink:href="#NotoSansCJKkr-Regular-1b" transform="translate(547.390625 0)"/>
    <use xlink:href="#NotoSansCJKkr-Regular-1" transform="translate(575.1875 0)"/>
    <use xlink:href="#NotoSansCJKkr-Regular-f6b1" transform="translate(597.59375 0)"/>
    <use xlink:href="#NotoSansCJKkr-Regular-f6b5" transform="translate(653.09375 0)"/>
    <use xlink:href="#NotoSansCJKkr-Regular-40" transform="translate(708.59375 0)"/>
    <use xlink:href="#NotoSansCJKkr-Regular-46" transform="translate(764.5 0)"/>
    <use xlink:href="#NotoSansCJKkr-Regular-59" transform="translate(819.109375 0)"/>
    <use xlink:href="#NotoSansCJKkr-Regular-51" transform="translate(868.90625 0)"/>
    <use xlink:href="#NotoSansCJKkr-Regular-46" transform="translate(930.90625 0)"/>
    <use xlink:href="#NotoSansCJKkr-Regular-53" transform="translate(986.3125 0)"/>
    <use xlink:href="#NotoSansCJKkr-Regular-4a" transform="translate(1025.109375 0)"/>
    <use xlink:href="#NotoSansCJKkr-Regular-4e" transform="translate(1052.609375 0)"/>
    <use xlink:href="#NotoSansCJKkr-Regular-46" transform="translate(1145.203125 0)"/>
    <use xlink:href="#NotoSansCJKkr-Regular-4f" transform="translate(1200.609375 0)"/>
    <use xlink:href="#NotoSansCJKkr-Regular-55" transform="translate(1261.609375 0)"/>
    <use xlink:href="#NotoSansCJKkr-Regular-10" transform="translate(1300.40625 0)"/>
    <use xlink:href="#NotoSansCJKkr-Regular-50" transform="translate(1336.109375 0)"/>
    <use xlink:href="#NotoSansCJKkr-Regular-56" transform="translate(1396.703125 0)"/>
    <use xlink:href="#NotoSansCJKkr-Regular-55" transform="translate(1457.40625 0)"/>
    <use xlink:href="#NotoSansCJKkr-Regular-51" transform="translate(1495.109375 0)"/>
    <use xlink:href="#NotoSansCJKkr-Regular-56" transform="translate(1557.109375 0)"/>
    <use xlink:href="#NotoSansCJKkr-Regular-55" transform="translate(1617.8125 0)"/>
    <use xlink:href="#NotoSansCJKkr-Regular-54" transform="translate(1654.421875 0)"/>
    <use xlink:href="#NotoSansCJKkr-Regular-10" transform="translate(1701.21875 0)"/>
    <use xlink:href="#NotoSansCJKkr-Regular-4e" transform="translate(1740.421875 0)"/>
    <use xlink:href="#NotoSansCJKkr-Regular-46" transform="translate(1833.015625 0)"/>
    <use xlink:href="#NotoSansCJKkr-Regular-55" transform="translate(1887.328125 0)"/>
    <use xlink:href="#NotoSansCJKkr-Regular-53" transform="translate(1925.03125 0)"/>
    <use xlink:href="#NotoSansCJKkr-Regular-4a" transform="translate(1963.828125 0)"/>
    <use xlink:href="#NotoSansCJKkr-Regular-44" transform="translate(1991.328125 0)"/>
    <use xlink:href="#NotoSansCJKkr-Regular-54" transform="translate(2042.328125 0)"/>
    <use xlink:href="#NotoSansCJKkr-Regular-40" transform="translate(2089.125 0)"/>
    <use xlink:href="#NotoSansCJKkr-Regular-54" transform="translate(2145.03125 0)"/>
    <use xlink:href="#NotoSansCJKkr-Regular-56" transform="translate(2191.828125 0)"/>
    <use xlink:href="#NotoSansCJKkr-Regular-4e" transform="translate(2252.53125 0)"/>
    <use xlink:href="#NotoSansCJKkr-Regular-4e" transform="translate(2345.125 0)"/>
    <use xlink:href="#NotoSansCJKkr-Regular-42" transform="translate(2437.71875 0)"/>
    <use xlink:href="#NotoSansCJKkr-Regular-53" transform="translate(2494.015625 0)"/>
    <use xlink:href="#NotoSansCJKkr-Regular-5a" transform="translate(2535.71875 0)"/>
    <use xlink:href="#NotoSansCJKkr-Regular-f" transform="translate(2584.015625 0)"/>
    <use xlink:href="#NotoSansCJKkr-Regular-44" transform="translate(2610.515625 0)"/>
    <use xlink:href="#NotoSansCJKkr-Regular-54" transform="translate(2661.515625 0)"/>
    <use xlink:href="#NotoSansCJKkr-Regular-57" transform="translate(2708.3125 0)"/>
   </g>
  </g>
 </g>
 <defs>
  <clipPath id="pa08b425db4">
   <rect x="47.16" y="35.12" width="734.04" height="301.672946"/>
  </clipPath>
 </defs>
</svg>
