<svg xmlns="http://www.w3.org/2000/svg" width="1120" height="620" viewBox="0 0 1120 620" role="img" aria-label="W14 metrics chart">
<rect width="100%" height="100%" fill="#ffffff"/>
<text x="92" y="38" font-family="Arial, sans-serif" font-size="24" font-weight="700" fill="#111111">W14 metrics from metrics_summary.csv</text>
<text x="92" y="62" font-family="Arial, sans-serif" font-size="13" fill="#5f6368">Data source: 04_experiment/outputs/metrics_summary.csv</text>
<rect x="92" y="76" width="970" height="412" fill="#fafafa" stroke="#d9d6cf"/>
<line x1="92" y1="488.0" x2="1062" y2="488.0" stroke="#e5e1da"/>
<text x="80" y="492.0" text-anchor="end" font-family="Arial, sans-serif" font-size="12" fill="#5f6368">0.252</text>
<line x1="92" y1="385.0" x2="1062" y2="385.0" stroke="#e5e1da"/>
<text x="80" y="389.0" text-anchor="end" font-family="Arial, sans-serif" font-size="12" fill="#5f6368">0.453</text>
<line x1="92" y1="282.0" x2="1062" y2="282.0" stroke="#e5e1da"/>
<text x="80" y="286.0" text-anchor="end" font-family="Arial, sans-serif" font-size="12" fill="#5f6368">0.654</text>
<line x1="92" y1="179.0" x2="1062" y2="179.0" stroke="#e5e1da"/>
<text x="80" y="183.0" text-anchor="end" font-family="Arial, sans-serif" font-size="12" fill="#5f6368">0.855</text>
<line x1="92" y1="76.0" x2="1062" y2="76.0" stroke="#e5e1da"/>
<text x="80" y="80.0" text-anchor="end" font-family="Arial, sans-serif" font-size="12" fill="#5f6368">1.06</text>
<line x1="92" y1="488" x2="1062" y2="488" stroke="#111111"/>
<line x1="92" y1="76" x2="92" y2="488" stroke="#111111"/>
<text x="92.0" y="534" transform="rotate(28 92.0,534)" text-anchor="start" font-family="Arial, sans-serif" font-size="12" fill="#5f6368">accuracy</text>
<text x="213.2" y="534" transform="rotate(28 213.2,534)" text-anchor="start" font-family="Arial, sans-serif" font-size="12" fill="#5f6368">f1</text>
<text x="334.5" y="534" transform="rotate(28 334.5,534)" text-anchor="start" font-family="Arial, sans-serif" font-size="12" fill="#5f6368">dataset_sha256</text>
<text x="455.8" y="534" transform="rotate(28 455.8,534)" text-anchor="start" font-family="Arial, sans-serif" font-size="12" fill="#5f6368">model_hash_match</text>
<text x="577.0" y="534" transform="rotate(28 577.0,534)" text-anchor="start" font-family="Arial, sans-serif" font-size="12" fill="#5f6368">model_and_dataset_hash_match</text>
<text x="698.2" y="534" transform="rotate(28 698.2,534)" text-anchor="start" font-family="Arial, sans-serif" font-size="12" fill="#5f6368">mean_standardized_feature_shift</text>
<text x="819.5" y="534" transform="rotate(28 819.5,534)" text-anchor="start" font-family="Arial, sans-serif" font-size="12" fill="#5f6368">drift_accuracy</text>
<text x="940.8" y="534" transform="rotate(28 940.8,534)" text-anchor="start" font-family="Arial, sans-serif" font-size="12" fill="#5f6368">audit_coverage</text>
<text x="1062.0" y="534" transform="rotate(28 1062.0,534)" text-anchor="start" font-family="Arial, sans-serif" font-size="12" fill="#5f6368">inventory_coverage</text>
<text x="577.0" y="596" text-anchor="middle" font-family="Arial, sans-serif" font-size="14" fill="#111111">metric</text>
<text x="24" y="282.0" transform="rotate(-90 24,282.0)" text-anchor="middle" font-family="Arial, sans-serif" font-size="14" fill="#111111">Metric value</text>
<polyline points="92.0,142.9 213.2,143.9 455.8,104.4 577.0,104.4 698.2,459.6 819.5,142.9 940.8,104.4 1062.0,104.4" fill="none" stroke="#1f3a5f" stroke-width="3"/>
<circle cx="92.0" cy="142.9" r="4" fill="#1f3a5f"/>
<circle cx="213.2" cy="143.9" r="4" fill="#1f3a5f"/>
<circle cx="455.8" cy="104.4" r="4" fill="#1f3a5f"/>
<circle cx="577.0" cy="104.4" r="4" fill="#1f3a5f"/>
<circle cx="698.2" cy="459.6" r="4" fill="#1f3a5f"/>
<circle cx="819.5" cy="142.9" r="4" fill="#1f3a5f"/>
<circle cx="940.8" cy="104.4" r="4" fill="#1f3a5f"/>
<circle cx="1062.0" cy="104.4" r="4" fill="#1f3a5f"/>
<rect x="812" y="94" width="12" height="12" fill="#1f3a5f"/>
<text x="830" y="105" font-family="Arial, sans-serif" font-size="12" fill="#111111">value</text>
</svg>
