<?xml version="1.0" encoding="utf-8" standalone="no"?>
<!DOCTYPE svg PUBLIC "-//W3C//DTD SVG 1.1//EN"
  "http://www.w3.org/Graphics/SVG/1.1/DTD/svg11.dtd">
<svg xmlns:xlink="http://www.w3.org/1999/xlink" width="792pt" height="446.4pt" viewBox="0 0 792 446.4" xmlns="http://www.w3.org/2000/svg" version="1.1">
 <metadata>
  <rdf:RDF xmlns:dc="http://purl.org/dc/elements/1.1/" xmlns:cc="http://creativecommons.org/ns#" xmlns:rdf="http://www.w3.org/1999/02/22-rdf-syntax-ns#">
   <cc:Work>
    <dc:type rdf:resource="http://purl.org/dc/dcmitype/StillImage"/>
    <dc:date>2026-06-23T13:52:52.604110</dc:date>
    <dc:format>image/svg+xml</dc:format>
    <dc:creator>
     <cc:Agent>
      <dc:title>Matplotlib v3.11.0, https://matplotlib.org/</dc:title>
     </cc:Agent>
    </dc:creator>
   </cc:Work>
  </rdf:RDF>
 </metadata>
 <defs>
  <style type="text/css">*{stroke-linejoin: round; stroke-linecap: butt}</style>
 </defs>
 <g id="figure_1">
  <g id="patch_1">
   <path d="M 0 446.4 
L 792 446.4 
L 792 0 
L 0 0 
z
" style="fill: #ffffff"/>
  </g>
  <g id="axes_1">
   <g id="patch_2">
    <path d="M 47.16 355.659081 
L 781.2 355.659081 
L 781.2 35.12 
L 47.16 35.12 
z
" style="fill: #ffffff"/>
   </g>
   <g id="matplotlib.axis_1">
    <g id="xtick_1">
     <g id="line2d_1">
      <defs>
       <path id="m789fbe6f7a" d="M 0 0 
L 0 3.5 
" style="stroke: #000000; stroke-width: 0.8"/>
      </defs>
      <g>
       <use xlink:href="#m789fbe6f7a" x="80.525455" y="355.659081" style="stroke: #000000; stroke-width: 0.8"/>
      </g>
     </g>
     <g id="text_1">
      <!-- Clean RAG -->
      <g transform="translate(45.504448 385.180864) rotate(-25) scale(0.08 -0.08)">
       <defs>
        <path id="NotoSansCJKkr-Regular-24" d="M 2413 -83 
C 3021 -83 3482 160 3853 589 
L 3526 966 
C 3226 634 2886 435 2438 435 
C 1542 435 979 1178 979 2362 
C 979 3533 1574 4256 2458 4256 
C 2861 4256 3168 4077 3418 3814 
L 3738 4198 
C 3469 4499 3021 4774 2451 4774 
C 1261 4774 371 3859 371 2342 
C 371 819 1242 -83 2413 -83 
z
" transform="scale(0.015625)"/>
        <path id="NotoSansCJKkr-Regular-4d" d="M 1203 -83 
C 1363 -83 1459 -58 1542 -32 
L 1459 416 
C 1395 403 1370 403 1338 403 
C 1248 403 1178 474 1178 653 
L 1178 5094 
L 589 5094 
L 589 691 
C 589 198 768 -83 1203 -83 
z
" transform="scale(0.015625)"/>
        <path id="NotoSansCJKkr-Regular-46" d="M 1997 -83 
C 2464 -83 2835 70 3136 269 
L 2931 659 
C 2669 486 2400 384 2061 384 
C 1402 384 947 858 909 1600 
L 3251 1600 
C 3264 1690 3277 1805 3277 1933 
C 3277 2925 2778 3565 1888 3565 
C 1094 3565 333 2867 333 1734 
C 333 589 1069 -83 1997 -83 
z
M 902 2016 
C 973 2707 1408 3098 1901 3098 
C 2445 3098 2765 2720 2765 2016 
L 902 2016 
z
" transform="scale(0.015625)"/>
        <path id="NotoSansCJKkr-Regular-42" d="M 1389 -83 
C 1818 -83 2208 141 2541 416 
L 2560 416 
L 2611 0 
L 3091 0 
L 3091 2138 
C 3091 3002 2739 3565 1888 3565 
C 1325 3565 838 3315 525 3110 
L 749 2707 
C 1024 2893 1389 3078 1792 3078 
C 2362 3078 2509 2650 2509 2202 
C 1030 2035 378 1658 378 902 
C 378 275 806 -83 1389 -83 
z
M 1555 390 
C 1210 390 941 544 941 941 
C 941 1389 1338 1677 2509 1811 
L 2509 845 
C 2170 544 1888 390 1555 390 
z
" transform="scale(0.015625)"/>
        <path id="NotoSansCJKkr-Regular-4f" d="M 589 0 
L 1178 0 
L 1178 2522 
C 1523 2874 1766 3053 2125 3053 
C 2586 3053 2784 2778 2784 2125 
L 2784 0 
L 3366 0 
L 3366 2202 
C 3366 3085 3034 3565 2304 3565 
C 1830 3565 1466 3302 1139 2970 
L 1126 2970 
L 1069 3475 
L 589 3475 
L 589 0 
z
" transform="scale(0.015625)"/>
        <path id="NotoSansCJKkr-Regular-1" transform="scale(0.015625)"/>
        <path id="NotoSansCJKkr-Regular-33" d="M 1235 2464 
L 1235 4211 
L 2022 4211 
C 2758 4211 3162 3994 3162 3379 
C 3162 2765 2758 2464 2022 2464 
L 1235 2464 
z
M 3219 0 
L 3885 0 
L 2694 2054 
C 3328 2208 3750 2643 3750 3379 
C 3750 4352 3066 4691 2112 4691 
L 646 4691 
L 646 0 
L 1235 0 
L 1235 1990 
L 2080 1990 
L 3219 0 
z
" transform="scale(0.015625)"/>
        <path id="NotoSansCJKkr-Regular-22" d="M 26 0 
L 621 0 
L 1075 1434 
L 2790 1434 
L 3238 0 
L 3866 0 
L 2272 4691 
L 1613 4691 
L 26 0 
z
M 1222 1901 
L 1453 2624 
C 1619 3155 1773 3661 1920 4211 
L 1946 4211 
C 2099 3667 2246 3155 2419 2624 
L 2643 1901 
L 1222 1901 
z
" transform="scale(0.015625)"/>
        <path id="NotoSansCJKkr-Regular-28" d="M 2490 -83 
C 3117 -83 3635 147 3936 461 
L 3936 2432 
L 2394 2432 
L 2394 1939 
L 3392 1939 
L 3392 710 
C 3206 538 2880 435 2547 435 
C 1542 435 979 1178 979 2362 
C 979 3533 1594 4256 2541 4256 
C 3008 4256 3315 4058 3552 3814 
L 3872 4198 
C 3603 4480 3174 4774 2522 4774 
C 1280 4774 371 3859 371 2342 
C 371 819 1254 -83 2490 -83 
z
" transform="scale(0.015625)"/>
       </defs>
       <use xlink:href="#NotoSansCJKkr-Regular-24"/>
       <use xlink:href="#NotoSansCJKkr-Regular-4d" transform="translate(63.796875 0)"/>
       <use xlink:href="#NotoSansCJKkr-Regular-46" transform="translate(92.203125 0)"/>
       <use xlink:href="#NotoSansCJKkr-Regular-42" transform="translate(146.015625 0)"/>
       <use xlink:href="#NotoSansCJKkr-Regular-4f" transform="translate(202.3125 0)"/>
       <use xlink:href="#NotoSansCJKkr-Regular-1" transform="translate(263.3125 0)"/>
       <use xlink:href="#NotoSansCJKkr-Regular-33" transform="translate(285.71875 0)"/>
       <use xlink:href="#NotoSansCJKkr-Regular-22" transform="translate(348.8125 0)"/>
       <use xlink:href="#NotoSansCJKkr-Regular-28" transform="translate(408.515625 0)"/>
      </g>
     </g>
    </g>
    <g id="xtick_2">
     <g id="line2d_2">
      <g>
       <use xlink:href="#m789fbe6f7a" x="302.961818" y="355.659081" style="stroke: #000000; stroke-width: 0.8"/>
      </g>
     </g>
     <g id="text_2">
      <!-- Poisoned document -->
      <g transform="translate(234.554699 400.749064) rotate(-25) scale(0.08 -0.08)">
       <defs>
        <path id="NotoSansCJKkr-Regular-31" d="M 646 0 
L 1235 0 
L 1235 1869 
L 2010 1869 
C 3040 1869 3738 2323 3738 3315 
C 3738 4339 3034 4691 1984 4691 
L 646 4691 
L 646 0 
z
M 1235 2349 
L 1235 4211 
L 1907 4211 
C 2733 4211 3149 4000 3149 3315 
C 3149 2643 2758 2349 1933 2349 
L 1235 2349 
z
" transform="scale(0.015625)"/>
        <path id="NotoSansCJKkr-Regular-50" d="M 1939 -83 
C 2790 -83 3546 582 3546 1734 
C 3546 2893 2790 3565 1939 3565 
C 1088 3565 333 2893 333 1734 
C 333 582 1088 -83 1939 -83 
z
M 1939 403 
C 1338 403 934 934 934 1734 
C 934 2534 1338 3072 1939 3072 
C 2541 3072 2950 2534 2950 1734 
C 2950 934 2541 403 1939 403 
z
" transform="scale(0.015625)"/>
        <path id="NotoSansCJKkr-Regular-4a" d="M 589 0 
L 1178 0 
L 1178 3475 
L 589 3475 
L 589 0 
z
M 883 4192 
C 1114 4192 1274 4346 1274 4582 
C 1274 4806 1114 4960 883 4960 
C 653 4960 499 4806 499 4582 
C 499 4346 653 4192 883 4192 
z
" transform="scale(0.015625)"/>
        <path id="NotoSansCJKkr-Regular-54" d="M 1498 -83 
C 2317 -83 2758 384 2758 947 
C 2758 1606 2208 1811 1702 2003 
C 1312 2150 954 2278 954 2605 
C 954 2880 1158 3110 1600 3110 
C 1907 3110 2150 2976 2387 2803 
L 2669 3168 
C 2406 3386 2022 3565 1594 3565 
C 832 3565 397 3130 397 2579 
C 397 1984 922 1754 1408 1574 
C 1792 1434 2202 1267 2202 915 
C 2202 614 1978 371 1517 371 
C 1101 371 794 538 486 787 
L 205 397 
C 531 122 1005 -83 1498 -83 
z
" transform="scale(0.015625)"/>
        <path id="NotoSansCJKkr-Regular-45" d="M 1773 -83 
C 2189 -83 2560 141 2829 410 
L 2848 410 
L 2899 0 
L 3379 0 
L 3379 5094 
L 2790 5094 
L 2790 3757 
L 2822 3162 
C 2515 3411 2253 3565 1843 3565 
C 1050 3565 339 2861 339 1734 
C 339 576 902 -83 1773 -83 
z
M 1901 410 
C 1293 410 941 902 941 1741 
C 941 2534 1389 3072 1946 3072 
C 2234 3072 2502 2970 2790 2707 
L 2790 883 
C 2502 563 2221 410 1901 410 
z
" transform="scale(0.015625)"/>
        <path id="NotoSansCJKkr-Regular-44" d="M 1958 -83 
C 2374 -83 2771 83 3085 352 
L 2829 749 
C 2611 557 2330 403 2010 403 
C 1370 403 934 934 934 1734 
C 934 2534 1395 3072 2029 3072 
C 2298 3072 2522 2950 2720 2771 
L 3014 3155 
C 2771 3373 2458 3565 2003 3565 
C 1107 3565 333 2893 333 1734 
C 333 582 1037 -83 1958 -83 
z
" transform="scale(0.015625)"/>
        <path id="NotoSansCJKkr-Regular-56" d="M 1606 -83 
C 2080 -83 2426 166 2752 544 
L 2771 544 
L 2816 0 
L 3302 0 
L 3302 3475 
L 2720 3475 
L 2720 1011 
C 2387 602 2138 422 1779 422 
C 1318 422 1126 698 1126 1344 
L 1126 3475 
L 538 3475 
L 538 1274 
C 538 384 870 -83 1606 -83 
z
" transform="scale(0.015625)"/>
        <path id="NotoSansCJKkr-Regular-4e" d="M 589 0 
L 1178 0 
L 1178 2522 
C 1491 2880 1786 3053 2048 3053 
C 2490 3053 2694 2778 2694 2125 
L 2694 0 
L 3277 0 
L 3277 2522 
C 3603 2880 3885 3053 4154 3053 
C 4595 3053 4800 2778 4800 2125 
L 4800 0 
L 5382 0 
L 5382 2202 
C 5382 3085 5043 3565 4333 3565 
C 3904 3565 3546 3290 3181 2899 
C 3040 3309 2758 3565 2221 3565 
C 1805 3565 1446 3302 1139 2970 
L 1126 2970 
L 1069 3475 
L 589 3475 
L 589 0 
z
" transform="scale(0.015625)"/>
        <path id="NotoSansCJKkr-Regular-55" d="M 1677 -83 
C 1894 -83 2125 -19 2323 45 
L 2208 486 
C 2093 435 1939 390 1811 390 
C 1408 390 1274 634 1274 1056 
L 1274 3002 
L 2221 3002 
L 2221 3475 
L 1274 3475 
L 1274 4454 
L 787 4454 
L 723 3475 
L 173 3443 
L 173 3002 
L 691 3002 
L 691 1075 
C 691 378 941 -83 1677 -83 
z
" transform="scale(0.015625)"/>
       </defs>
       <use xlink:href="#NotoSansCJKkr-Regular-31"/>
       <use xlink:href="#NotoSansCJKkr-Regular-50" transform="translate(60.59375 0)"/>
       <use xlink:href="#NotoSansCJKkr-Regular-4a" transform="translate(121.1875 0)"/>
       <use xlink:href="#NotoSansCJKkr-Regular-54" transform="translate(148.6875 0)"/>
       <use xlink:href="#NotoSansCJKkr-Regular-50" transform="translate(195.484375 0)"/>
       <use xlink:href="#NotoSansCJKkr-Regular-4f" transform="translate(256.078125 0)"/>
       <use xlink:href="#NotoSansCJKkr-Regular-46" transform="translate(317.078125 0)"/>
       <use xlink:href="#NotoSansCJKkr-Regular-45" transform="translate(372.484375 0)"/>
       <use xlink:href="#NotoSansCJKkr-Regular-1" transform="translate(434.484375 0)"/>
       <use xlink:href="#NotoSansCJKkr-Regular-45" transform="translate(456.890625 0)"/>
       <use xlink:href="#NotoSansCJKkr-Regular-50" transform="translate(518.890625 0)"/>
       <use xlink:href="#NotoSansCJKkr-Regular-44" transform="translate(579.484375 0)"/>
       <use xlink:href="#NotoSansCJKkr-Regular-56" transform="translate(630.484375 0)"/>
       <use xlink:href="#NotoSansCJKkr-Regular-4e" transform="translate(691.1875 0)"/>
       <use xlink:href="#NotoSansCJKkr-Regular-46" transform="translate(783.78125 0)"/>
       <use xlink:href="#NotoSansCJKkr-Regular-4f" transform="translate(839.1875 0)"/>
       <use xlink:href="#NotoSansCJKkr-Regular-55" transform="translate(900.1875 0)"/>
      </g>
     </g>
    </g>
    <g id="xtick_3">
     <g id="line2d_3">
      <g>
       <use xlink:href="#m789fbe6f7a" x="525.398182" y="355.659081" style="stroke: #000000; stroke-width: 0.8"/>
      </g>
     </g>
     <g id="text_3">
      <!-- Source filter 적용 -->
      <g transform="translate(469.148048 395.080168) rotate(-25) scale(0.08 -0.08)">
       <defs>
        <path id="NotoSansCJKkr-Regular-34" d="M 1946 -83 
C 2925 -83 3539 506 3539 1248 
C 3539 1946 3117 2266 2573 2502 
L 1907 2790 
C 1542 2944 1126 3117 1126 3578 
C 1126 3994 1472 4256 2003 4256 
C 2438 4256 2784 4090 3072 3821 
L 3379 4198 
C 3053 4538 2560 4774 2003 4774 
C 1152 4774 525 4256 525 3533 
C 525 2848 1043 2515 1478 2330 
L 2150 2035 
C 2598 1837 2938 1683 2938 1197 
C 2938 742 2573 435 1952 435 
C 1466 435 992 666 659 1018 
L 307 608 
C 710 186 1280 -83 1946 -83 
z
" transform="scale(0.015625)"/>
        <path id="NotoSansCJKkr-Regular-53" d="M 589 0 
L 1178 0 
L 1178 2234 
C 1408 2822 1760 3040 2048 3040 
C 2195 3040 2272 3021 2387 2982 
L 2496 3488 
C 2387 3546 2278 3565 2125 3565 
C 1741 3565 1382 3283 1139 2842 
L 1126 2842 
L 1069 3475 
L 589 3475 
L 589 0 
z
" transform="scale(0.015625)"/>
        <path id="NotoSansCJKkr-Regular-e65f" d="M 2669 0 
L 3258 0 
L 3258 3475 
L 2669 3475 
L 2669 0 
z
M 2963 4192 
C 3194 4192 3360 4346 3360 4582 
C 3360 4806 3194 4960 2963 4960 
C 2739 4960 2579 4806 2579 4582 
C 2579 4346 2739 4192 2963 4192 
z
M 211 3002 
L 685 3002 
L 685 0 
L 1267 0 
L 1267 3002 
L 2003 3002 
L 2003 3475 
L 1267 3475 
L 1267 4026 
C 1267 4474 1427 4710 1760 4710 
C 1882 4710 2022 4678 2150 4614 
L 2278 5069 
C 2118 5133 1914 5178 1696 5178 
C 1005 5178 685 4736 685 4032 
L 685 3475 
L 211 3443 
L 211 3002 
z
" transform="scale(0.015625)"/>
        <path id="NotoSansCJKkr-Regular-d5fc" d="M 1216 1517 
L 1216 1082 
L 4550 1082 
L 4550 -499 
L 5082 -499 
L 5082 1517 
L 1216 1517 
z
M 506 4896 
L 506 4461 
L 1792 4461 
L 1792 4230 
C 1792 3418 1197 2643 339 2342 
L 614 1920 
C 1299 2170 1824 2701 2074 3360 
C 2317 2765 2816 2285 3462 2054 
L 3731 2470 
C 2893 2765 2330 3488 2330 4237 
L 2330 4461 
L 3597 4461 
L 3597 4896 
L 506 4896 
z
M 4550 5293 
L 4550 3782 
L 3418 3782 
L 3418 3341 
L 4550 3341 
L 4550 1830 
L 5082 1830 
L 5082 5293 
L 4550 5293 
z
" transform="scale(0.015625)"/>
        <path id="NotoSansCJKkr-Regular-d4a4" d="M 2931 1562 
C 1690 1562 947 1197 947 544 
C 947 -122 1690 -486 2931 -486 
C 4166 -486 4909 -122 4909 544 
C 4909 1197 4166 1562 2931 1562 
z
M 2931 1152 
C 3834 1152 4378 928 4378 544 
C 4378 147 3834 -77 2931 -77 
C 2022 -77 1485 147 1485 544 
C 1485 928 2022 1152 2931 1152 
z
M 2931 4768 
C 3853 4768 4422 4525 4422 4109 
C 4422 3693 3853 3450 2931 3450 
C 2010 3450 1440 3693 1440 4109 
C 1440 4525 2010 4768 2931 4768 
z
M 2931 5184 
C 1677 5184 896 4787 896 4109 
C 896 3718 1152 3424 1606 3245 
L 1606 2432 
L 320 2432 
L 320 2003 
L 5549 2003 
L 5549 2432 
L 4256 2432 
L 4256 3245 
C 4710 3424 4966 3718 4966 4109 
C 4966 4787 4186 5184 2931 5184 
z
M 2138 2432 
L 2138 3104 
C 2374 3059 2637 3040 2931 3040 
C 3226 3040 3494 3059 3731 3104 
L 3731 2432 
L 2138 2432 
z
" transform="scale(0.015625)"/>
       </defs>
       <use xlink:href="#NotoSansCJKkr-Regular-34"/>
       <use xlink:href="#NotoSansCJKkr-Regular-50" transform="translate(59.59375 0)"/>
       <use xlink:href="#NotoSansCJKkr-Regular-56" transform="translate(120.1875 0)"/>
       <use xlink:href="#NotoSansCJKkr-Regular-53" transform="translate(180.890625 0)"/>
       <use xlink:href="#NotoSansCJKkr-Regular-44" transform="translate(218.59375 0)"/>
       <use xlink:href="#NotoSansCJKkr-Regular-46" transform="translate(267.1875 0)"/>
       <use xlink:href="#NotoSansCJKkr-Regular-1" transform="translate(322.59375 0)"/>
       <use xlink:href="#NotoSansCJKkr-Regular-e65f" transform="translate(345 0)"/>
       <use xlink:href="#NotoSansCJKkr-Regular-4d" transform="translate(405 0)"/>
       <use xlink:href="#NotoSansCJKkr-Regular-55" transform="translate(433.40625 0)"/>
       <use xlink:href="#NotoSansCJKkr-Regular-46" transform="translate(469.609375 0)"/>
       <use xlink:href="#NotoSansCJKkr-Regular-53" transform="translate(525.015625 0)"/>
       <use xlink:href="#NotoSansCJKkr-Regular-1" transform="translate(563.8125 0)"/>
       <use xlink:href="#NotoSansCJKkr-Regular-d5fc" transform="translate(586.21875 0)"/>
       <use xlink:href="#NotoSansCJKkr-Regular-d4a4" transform="translate(678.21875 0)"/>
      </g>
     </g>
    </g>
    <g id="xtick_4">
     <g id="line2d_4">
      <g>
       <use xlink:href="#m789fbe6f7a" x="747.834545" y="355.659081" style="stroke: #000000; stroke-width: 0.8"/>
      </g>
     </g>
     <g id="text_4">
      <!-- Human approval 적용 -->
      <g transform="translate(675.644177 402.341278) rotate(-25) scale(0.08 -0.08)">
       <defs>
        <path id="NotoSansCJKkr-Regular-29" d="M 646 0 
L 1235 0 
L 1235 2214 
L 3424 2214 
L 3424 0 
L 4019 0 
L 4019 4691 
L 3424 4691 
L 3424 2726 
L 1235 2726 
L 1235 4691 
L 646 4691 
L 646 0 
z
" transform="scale(0.015625)"/>
        <path id="NotoSansCJKkr-Regular-51" d="M 589 -1466 
L 1178 -1466 
L 1178 -288 
L 1158 320 
C 1472 58 1805 -83 2118 -83 
C 2912 -83 3629 602 3629 1792 
C 3629 2867 3142 3565 2246 3565 
C 1843 3565 1453 3334 1139 3072 
L 1126 3072 
L 1069 3475 
L 589 3475 
L 589 -1466 
z
M 2022 410 
C 1792 410 1485 499 1178 768 
L 1178 2598 
C 1510 2906 1811 3072 2099 3072 
C 2765 3072 3021 2560 3021 1786 
C 3021 928 2598 410 2022 410 
z
" transform="scale(0.015625)"/>
        <path id="NotoSansCJKkr-Regular-57" d="M 1338 0 
L 2022 0 
L 3251 3475 
L 2675 3475 
L 2016 1498 
C 1914 1158 1798 806 1696 474 
L 1664 474 
C 1562 806 1453 1158 1344 1498 
L 691 3475 
L 83 3475 
L 1338 0 
z
" transform="scale(0.015625)"/>
       </defs>
       <use xlink:href="#NotoSansCJKkr-Regular-29"/>
       <use xlink:href="#NotoSansCJKkr-Regular-56" transform="translate(72.796875 0)"/>
       <use xlink:href="#NotoSansCJKkr-Regular-4e" transform="translate(133.5 0)"/>
       <use xlink:href="#NotoSansCJKkr-Regular-42" transform="translate(226.09375 0)"/>
       <use xlink:href="#NotoSansCJKkr-Regular-4f" transform="translate(282.390625 0)"/>
       <use xlink:href="#NotoSansCJKkr-Regular-1" transform="translate(343.390625 0)"/>
       <use xlink:href="#NotoSansCJKkr-Regular-42" transform="translate(365.796875 0)"/>
       <use xlink:href="#NotoSansCJKkr-Regular-51" transform="translate(422.09375 0)"/>
       <use xlink:href="#NotoSansCJKkr-Regular-51" transform="translate(484.09375 0)"/>
       <use xlink:href="#NotoSansCJKkr-Regular-53" transform="translate(546.09375 0)"/>
       <use xlink:href="#NotoSansCJKkr-Regular-50" transform="translate(583.796875 0)"/>
       <use xlink:href="#NotoSansCJKkr-Regular-57" transform="translate(643.984375 0)"/>
       <use xlink:href="#NotoSansCJKkr-Regular-42" transform="translate(693.875 0)"/>
       <use xlink:href="#NotoSansCJKkr-Regular-4d" transform="translate(750.171875 0)"/>
       <use xlink:href="#NotoSansCJKkr-Regular-1" transform="translate(778.578125 0)"/>
       <use xlink:href="#NotoSansCJKkr-Regular-d5fc" transform="translate(800.984375 0)"/>
       <use xlink:href="#NotoSansCJKkr-Regular-d4a4" transform="translate(892.984375 0)"/>
      </g>
     </g>
    </g>
    <g id="text_5">
     <!-- condition -->
     <g transform="translate(391.855781 416.802087) scale(0.1 -0.1)">
      <use xlink:href="#NotoSansCJKkr-Regular-44"/>
      <use xlink:href="#NotoSansCJKkr-Regular-50" transform="translate(48.59375 0)"/>
      <use xlink:href="#NotoSansCJKkr-Regular-4f" transform="translate(109.1875 0)"/>
      <use xlink:href="#NotoSansCJKkr-Regular-45" transform="translate(170.1875 0)"/>
      <use xlink:href="#NotoSansCJKkr-Regular-4a" transform="translate(232.1875 0)"/>
      <use xlink:href="#NotoSansCJKkr-Regular-55" transform="translate(259.6875 0)"/>
      <use xlink:href="#NotoSansCJKkr-Regular-4a" transform="translate(297.390625 0)"/>
      <use xlink:href="#NotoSansCJKkr-Regular-50" transform="translate(324.890625 0)"/>
      <use xlink:href="#NotoSansCJKkr-Regular-4f" transform="translate(385.484375 0)"/>
     </g>
    </g>
   </g>
   <g id="matplotlib.axis_2">
    <g id="ytick_1">
     <g id="line2d_5">
      <path d="M 47.16 341.089123 
L 781.2 341.089123 
" clip-path="url(#p39364988d7)" style="fill: none; stroke: #b0b0b0; stroke-opacity: 0.25; stroke-width: 0.8; stroke-linecap: square"/>
     </g>
     <g id="line2d_6">
      <defs>
       <path id="m73bc05a050" d="M 0 0 
L -3.5 0 
" style="stroke: #000000; stroke-width: 0.8"/>
      </defs>
      <g>
       <use xlink:href="#m73bc05a050" x="47.16" y="341.089123" style="stroke: #000000; stroke-width: 0.8"/>
      </g>
     </g>
     <g id="text_6">
      <!-- 0.0 -->
      <g transform="translate(26.280313 345.489123) scale(0.1 -0.1)">
       <defs>
        <path id="NotoSansCJKkr-Regular-11" d="M 1779 -83 
C 2669 -83 3238 723 3238 2362 
C 3238 3987 2669 4774 1779 4774 
C 883 4774 320 3987 320 2362 
C 320 723 883 -83 1779 -83 
z
M 1779 390 
C 1248 390 883 986 883 2362 
C 883 3731 1248 4314 1779 4314 
C 2310 4314 2675 3731 2675 2362 
C 2675 986 2310 390 1779 390 
z
" transform="scale(0.015625)"/>
        <path id="NotoSansCJKkr-Regular-f" d="M 890 -83 
C 1120 -83 1312 96 1312 358 
C 1312 627 1120 806 890 806 
C 653 806 467 627 467 358 
C 467 96 653 -83 890 -83 
z
" transform="scale(0.015625)"/>
       </defs>
       <use xlink:href="#NotoSansCJKkr-Regular-11"/>
       <use xlink:href="#NotoSansCJKkr-Regular-f" transform="translate(55.5 0)"/>
       <use xlink:href="#NotoSansCJKkr-Regular-11" transform="translate(83.296875 0)"/>
      </g>
     </g>
    </g>
    <g id="ytick_2">
     <g id="line2d_7">
      <path d="M 47.16 282.80929 
L 781.2 282.80929 
" clip-path="url(#p39364988d7)" style="fill: none; stroke: #b0b0b0; stroke-opacity: 0.25; stroke-width: 0.8; stroke-linecap: square"/>
     </g>
     <g id="line2d_8">
      <g>
       <use xlink:href="#m73bc05a050" x="47.16" y="282.80929" style="stroke: #000000; stroke-width: 0.8"/>
      </g>
     </g>
     <g id="text_7">
      <!-- 0.2 -->
      <g transform="translate(26.280313 287.20929) scale(0.1 -0.1)">
       <defs>
        <path id="NotoSansCJKkr-Regular-13" d="M 282 0 
L 3232 0 
L 3232 506 
L 1933 506 
C 1696 506 1408 480 1165 461 
C 2266 1504 3008 2458 3008 3398 
C 3008 4230 2477 4774 1638 4774 
C 1043 4774 634 4506 256 4090 
L 595 3757 
C 858 4070 1184 4301 1568 4301 
C 2150 4301 2432 3910 2432 3373 
C 2432 2566 1754 1632 282 346 
L 282 0 
z
" transform="scale(0.015625)"/>
       </defs>
       <use xlink:href="#NotoSansCJKkr-Regular-11"/>
       <use xlink:href="#NotoSansCJKkr-Regular-f" transform="translate(55.5 0)"/>
       <use xlink:href="#NotoSansCJKkr-Regular-13" transform="translate(83.296875 0)"/>
      </g>
     </g>
    </g>
    <g id="ytick_3">
     <g id="line2d_9">
      <path d="M 47.16 224.529457 
L 781.2 224.529457 
" clip-path="url(#p39364988d7)" style="fill: none; stroke: #b0b0b0; stroke-opacity: 0.25; stroke-width: 0.8; stroke-linecap: square"/>
     </g>
     <g id="line2d_10">
      <g>
       <use xlink:href="#m73bc05a050" x="47.16" y="224.529457" style="stroke: #000000; stroke-width: 0.8"/>
      </g>
     </g>
     <g id="text_8">
      <!-- 0.4 -->
      <g transform="translate(26.280313 228.929457) scale(0.1 -0.1)">
       <defs>
        <path id="NotoSansCJKkr-Regular-15" d="M 2176 0 
L 2726 0 
L 2726 1293 
L 3354 1293 
L 3354 1760 
L 2726 1760 
L 2726 4691 
L 2080 4691 
L 128 1677 
L 128 1293 
L 2176 1293 
L 2176 0 
z
M 2176 1760 
L 736 1760 
L 1805 3360 
C 1939 3590 2067 3827 2182 4051 
L 2208 4051 
C 2195 3814 2176 3430 2176 3200 
L 2176 1760 
z
" transform="scale(0.015625)"/>
       </defs>
       <use xlink:href="#NotoSansCJKkr-Regular-11"/>
       <use xlink:href="#NotoSansCJKkr-Regular-f" transform="translate(55.5 0)"/>
       <use xlink:href="#NotoSansCJKkr-Regular-15" transform="translate(83.296875 0)"/>
      </g>
     </g>
    </g>
    <g id="ytick_4">
     <g id="line2d_11">
      <path d="M 47.16 166.249624 
L 781.2 166.249624 
" clip-path="url(#p39364988d7)" style="fill: none; stroke: #b0b0b0; stroke-opacity: 0.25; stroke-width: 0.8; stroke-linecap: square"/>
     </g>
     <g id="line2d_12">
      <g>
       <use xlink:href="#m73bc05a050" x="47.16" y="166.249624" style="stroke: #000000; stroke-width: 0.8"/>
      </g>
     </g>
     <g id="text_9">
      <!-- 0.6 -->
      <g transform="translate(26.280313 170.649624) scale(0.1 -0.1)">
       <defs>
        <path id="NotoSansCJKkr-Regular-17" d="M 1926 -83 
C 2656 -83 3277 531 3277 1440 
C 3277 2426 2765 2912 1971 2912 
C 1606 2912 1197 2701 909 2349 
C 934 3802 1466 4294 2118 4294 
C 2400 4294 2682 4154 2861 3936 
L 3194 4294 
C 2931 4576 2579 4774 2093 4774 
C 1184 4774 358 4077 358 2240 
C 358 691 1030 -83 1926 -83 
z
M 922 1882 
C 1229 2317 1587 2477 1875 2477 
C 2445 2477 2720 2074 2720 1440 
C 2720 800 2374 378 1926 378 
C 1338 378 986 909 922 1882 
z
" transform="scale(0.015625)"/>
       </defs>
       <use xlink:href="#NotoSansCJKkr-Regular-11"/>
       <use xlink:href="#NotoSansCJKkr-Regular-f" transform="translate(55.5 0)"/>
       <use xlink:href="#NotoSansCJKkr-Regular-17" transform="translate(83.296875 0)"/>
      </g>
     </g>
    </g>
    <g id="ytick_5">
     <g id="line2d_13">
      <path d="M 47.16 107.969791 
L 781.2 107.969791 
" clip-path="url(#p39364988d7)" style="fill: none; stroke: #b0b0b0; stroke-opacity: 0.25; stroke-width: 0.8; stroke-linecap: square"/>
     </g>
     <g id="line2d_14">
      <g>
       <use xlink:href="#m73bc05a050" x="47.16" y="107.969791" style="stroke: #000000; stroke-width: 0.8"/>
      </g>
     </g>
     <g id="text_10">
      <!-- 0.8 -->
      <g transform="translate(26.280313 112.369791) scale(0.1 -0.1)">
       <defs>
        <path id="NotoSansCJKkr-Regular-19" d="M 1792 -83 
C 2669 -83 3258 448 3258 1126 
C 3258 1773 2880 2125 2470 2362 
L 2470 2394 
C 2746 2611 3091 3034 3091 3526 
C 3091 4250 2605 4762 1805 4762 
C 1075 4762 518 4282 518 3571 
C 518 3078 813 2726 1152 2490 
L 1152 2464 
C 723 2234 294 1792 294 1165 
C 294 442 922 -83 1792 -83 
z
M 2112 2547 
C 1555 2765 1050 3014 1050 3571 
C 1050 4026 1363 4326 1798 4326 
C 2298 4326 2592 3962 2592 3494 
C 2592 3149 2426 2829 2112 2547 
z
M 1798 352 
C 1235 352 813 717 813 1216 
C 813 1664 1082 2035 1459 2278 
C 2125 2010 2701 1779 2701 1146 
C 2701 678 2342 352 1798 352 
z
" transform="scale(0.015625)"/>
       </defs>
       <use xlink:href="#NotoSansCJKkr-Regular-11"/>
       <use xlink:href="#NotoSansCJKkr-Regular-f" transform="translate(55.5 0)"/>
       <use xlink:href="#NotoSansCJKkr-Regular-19" transform="translate(83.296875 0)"/>
      </g>
     </g>
    </g>
    <g id="ytick_6">
     <g id="line2d_15">
      <path d="M 47.16 49.689958 
L 781.2 49.689958 
" clip-path="url(#p39364988d7)" style="fill: none; stroke: #b0b0b0; stroke-opacity: 0.25; stroke-width: 0.8; stroke-linecap: square"/>
     </g>
     <g id="line2d_16">
      <g>
       <use xlink:href="#m73bc05a050" x="47.16" y="49.689958" style="stroke: #000000; stroke-width: 0.8"/>
      </g>
     </g>
     <g id="text_11">
      <!-- 1.0 -->
      <g transform="translate(26.280313 54.089958) scale(0.1 -0.1)">
       <defs>
        <path id="NotoSansCJKkr-Regular-12" d="M 563 0 
L 3136 0 
L 3136 486 
L 2195 486 
L 2195 4691 
L 1747 4691 
C 1491 4544 1190 4435 774 4358 
L 774 3987 
L 1613 3987 
L 1613 486 
L 563 486 
L 563 0 
z
" transform="scale(0.015625)"/>
       </defs>
       <use xlink:href="#NotoSansCJKkr-Regular-12"/>
       <use xlink:href="#NotoSansCJKkr-Regular-f" transform="translate(55.5 0)"/>
       <use xlink:href="#NotoSansCJKkr-Regular-11" transform="translate(83.296875 0)"/>
      </g>
     </g>
    </g>
    <g id="text_12">
     <!-- Metric value (unitless unless noted) -->
     <g transform="translate(20.320938 277.147353) rotate(-90) scale(0.1 -0.1)">
      <defs>
       <path id="NotoSansCJKkr-Regular-2e" d="M 646 0 
L 1178 0 
L 1178 2598 
C 1178 3002 1139 3571 1101 3981 
L 1126 3981 
L 1504 2912 
L 2394 474 
L 2790 474 
L 3674 2912 
L 4051 3981 
L 4077 3981 
C 4045 3571 4000 3002 4000 2598 
L 4000 0 
L 4550 0 
L 4550 4691 
L 3840 4691 
L 2944 2182 
C 2835 1862 2739 1530 2618 1203 
L 2592 1203 
C 2477 1530 2374 1862 2253 2182 
L 1357 4691 
L 646 4691 
L 646 0 
z
" transform="scale(0.015625)"/>
       <path id="NotoSansCJKkr-Regular-9" d="M 1530 -1254 
L 1888 -1094 
C 1338 -186 1075 902 1075 1990 
C 1075 3072 1338 4154 1888 5069 
L 1530 5235 
C 941 4275 589 3245 589 1990 
C 589 730 941 -301 1530 -1254 
z
" transform="scale(0.015625)"/>
       <path id="NotoSansCJKkr-Regular-a" d="M 634 -1254 
C 1222 -301 1574 730 1574 1990 
C 1574 3245 1222 4275 634 5235 
L 269 5069 
C 819 4154 1094 3072 1094 1990 
C 1094 902 819 -186 269 -1094 
L 634 -1254 
z
" transform="scale(0.015625)"/>
      </defs>
      <use xlink:href="#NotoSansCJKkr-Regular-2e"/>
      <use xlink:href="#NotoSansCJKkr-Regular-46" transform="translate(81.203125 0)"/>
      <use xlink:href="#NotoSansCJKkr-Regular-55" transform="translate(135.515625 0)"/>
      <use xlink:href="#NotoSansCJKkr-Regular-53" transform="translate(173.21875 0)"/>
      <use xlink:href="#NotoSansCJKkr-Regular-4a" transform="translate(212.015625 0)"/>
      <use xlink:href="#NotoSansCJKkr-Regular-44" transform="translate(239.515625 0)"/>
      <use xlink:href="#NotoSansCJKkr-Regular-1" transform="translate(290.515625 0)"/>
      <use xlink:href="#NotoSansCJKkr-Regular-57" transform="translate(312.921875 0)"/>
      <use xlink:href="#NotoSansCJKkr-Regular-42" transform="translate(362.8125 0)"/>
      <use xlink:href="#NotoSansCJKkr-Regular-4d" transform="translate(419.109375 0)"/>
      <use xlink:href="#NotoSansCJKkr-Regular-56" transform="translate(447.515625 0)"/>
      <use xlink:href="#NotoSansCJKkr-Regular-46" transform="translate(508.21875 0)"/>
      <use xlink:href="#NotoSansCJKkr-Regular-1" transform="translate(563.625 0)"/>
      <use xlink:href="#NotoSansCJKkr-Regular-9" transform="translate(586.03125 0)"/>
      <use xlink:href="#NotoSansCJKkr-Regular-56" transform="translate(619.828125 0)"/>
      <use xlink:href="#NotoSansCJKkr-Regular-4f" transform="translate(680.53125 0)"/>
      <use xlink:href="#NotoSansCJKkr-Regular-4a" transform="translate(741.53125 0)"/>
      <use xlink:href="#NotoSansCJKkr-Regular-55" transform="translate(769.03125 0)"/>
      <use xlink:href="#NotoSansCJKkr-Regular-4d" transform="translate(806.734375 0)"/>
      <use xlink:href="#NotoSansCJKkr-Regular-46" transform="translate(835.140625 0)"/>
      <use xlink:href="#NotoSansCJKkr-Regular-54" transform="translate(890.546875 0)"/>
      <use xlink:href="#NotoSansCJKkr-Regular-54" transform="translate(937.34375 0)"/>
      <use xlink:href="#NotoSansCJKkr-Regular-1" transform="translate(984.140625 0)"/>
      <use xlink:href="#NotoSansCJKkr-Regular-56" transform="translate(1006.546875 0)"/>
      <use xlink:href="#NotoSansCJKkr-Regular-4f" transform="translate(1067.25 0)"/>
      <use xlink:href="#NotoSansCJKkr-Regular-4d" transform="translate(1128.25 0)"/>
      <use xlink:href="#NotoSansCJKkr-Regular-46" transform="translate(1156.65625 0)"/>
      <use xlink:href="#NotoSansCJKkr-Regular-54" transform="translate(1212.0625 0)"/>
      <use xlink:href="#NotoSansCJKkr-Regular-54" transform="translate(1258.859375 0)"/>
      <use xlink:href="#NotoSansCJKkr-Regular-1" transform="translate(1305.65625 0)"/>
      <use xlink:href="#NotoSansCJKkr-Regular-4f" transform="translate(1328.0625 0)"/>
      <use xlink:href="#NotoSansCJKkr-Regular-50" transform="translate(1389.0625 0)"/>
      <use xlink:href="#NotoSansCJKkr-Regular-55" transform="translate(1447.75 0)"/>
      <use xlink:href="#NotoSansCJKkr-Regular-46" transform="translate(1483.953125 0)"/>
      <use xlink:href="#NotoSansCJKkr-Regular-45" transform="translate(1539.359375 0)"/>
      <use xlink:href="#NotoSansCJKkr-Regular-a" transform="translate(1601.359375 0)"/>
     </g>
    </g>
   </g>
   <g id="line2d_17">
    <path d="M 80.525455 76.531609 
L 302.961818 139.997182 
L 525.398182 114.693535 
L 747.834545 118.190325 
" clip-path="url(#p39364988d7)" style="fill: none; stroke: #1f77b4; stroke-width: 2; stroke-linecap: square"/>
    <defs>
     <path id="m8ed1687d85" d="M 0 3 
C 0.795609 3 1.55874 2.683901 2.12132 2.12132 
C 2.683901 1.55874 3 0.795609 3 0 
C 3 -0.795609 2.683901 -1.55874 2.12132 -2.12132 
C 1.55874 -2.683901 0.795609 -3 0 -3 
C -0.795609 -3 -1.55874 -2.683901 -2.12132 -2.12132 
C -2.683901 -1.55874 -3 -0.795609 -3 0 
C -3 0.795609 -2.683901 1.55874 -2.12132 2.12132 
C -1.55874 2.683901 -0.795609 3 0 3 
z
" style="stroke: #1f77b4"/>
    </defs>
    <g clip-path="url(#p39364988d7)">
     <use xlink:href="#m8ed1687d85" x="80.525455" y="76.531609" style="fill: #1f77b4; stroke: #1f77b4"/>
     <use xlink:href="#m8ed1687d85" x="302.961818" y="139.997182" style="fill: #1f77b4; stroke: #1f77b4"/>
     <use xlink:href="#m8ed1687d85" x="525.398182" y="114.693535" style="fill: #1f77b4; stroke: #1f77b4"/>
     <use xlink:href="#m8ed1687d85" x="747.834545" y="118.190325" style="fill: #1f77b4; stroke: #1f77b4"/>
    </g>
   </g>
   <g id="line2d_18">
    <path d="M 80.525455 341.089123 
L 302.961818 173.534603 
L 525.398182 326.519164 
L 747.834545 333.804144 
" clip-path="url(#p39364988d7)" style="fill: none; stroke: #ff7f0e; stroke-width: 2; stroke-linecap: square"/>
    <defs>
     <path id="m5979d4cd76" d="M 0 3 
C 0.795609 3 1.55874 2.683901 2.12132 2.12132 
C 2.683901 1.55874 3 0.795609 3 0 
C 3 -0.795609 2.683901 -1.55874 2.12132 -2.12132 
C 1.55874 -2.683901 0.795609 -3 0 -3 
C -0.795609 -3 -1.55874 -2.683901 -2.12132 -2.12132 
C -2.683901 -1.55874 -3 -0.795609 -3 0 
C -3 0.795609 -2.683901 1.55874 -2.12132 2.12132 
C -1.55874 2.683901 -0.795609 3 0 3 
z
" style="stroke: #ff7f0e"/>
    </defs>
    <g clip-path="url(#p39364988d7)">
     <use xlink:href="#m5979d4cd76" x="80.525455" y="341.089123" style="fill: #ff7f0e; stroke: #ff7f0e"/>
     <use xlink:href="#m5979d4cd76" x="302.961818" y="173.534603" style="fill: #ff7f0e; stroke: #ff7f0e"/>
     <use xlink:href="#m5979d4cd76" x="525.398182" y="326.519164" style="fill: #ff7f0e; stroke: #ff7f0e"/>
     <use xlink:href="#m5979d4cd76" x="747.834545" y="333.804144" style="fill: #ff7f0e; stroke: #ff7f0e"/>
    </g>
   </g>
   <g id="line2d_19">
    <path d="M 80.525455 49.689958 
L 302.961818 260.954352 
L 525.398182 49.689958 
L 747.834545 49.689958 
" clip-path="url(#p39364988d7)" style="fill: none; stroke: #2ca02c; stroke-width: 2; stroke-linecap: square"/>
    <defs>
     <path id="m8d1d18c651" d="M 0 3 
C 0.795609 3 1.55874 2.683901 2.12132 2.12132 
C 2.683901 1.55874 3 0.795609 3 0 
C 3 -0.795609 2.683901 -1.55874 2.12132 -2.12132 
C 1.55874 -2.683901 0.795609 -3 0 -3 
C -0.795609 -3 -1.55874 -2.683901 -2.12132 -2.12132 
C -2.683901 -1.55874 -3 -0.795609 -3 0 
C -3 0.795609 -2.683901 1.55874 -2.12132 2.12132 
C -1.55874 2.683901 -0.795609 3 0 3 
z
" style="stroke: #2ca02c"/>
    </defs>
    <g clip-path="url(#p39364988d7)">
     <use xlink:href="#m8d1d18c651" x="80.525455" y="49.689958" style="fill: #2ca02c; stroke: #2ca02c"/>
     <use xlink:href="#m8d1d18c651" x="302.961818" y="260.954352" style="fill: #2ca02c; stroke: #2ca02c"/>
     <use xlink:href="#m8d1d18c651" x="525.398182" y="49.689958" style="fill: #2ca02c; stroke: #2ca02c"/>
     <use xlink:href="#m8d1d18c651" x="747.834545" y="49.689958" style="fill: #2ca02c; stroke: #2ca02c"/>
    </g>
   </g>
   <g id="line2d_20">
    <path d="M 80.525455 341.089123 
L 302.961818 304.664227 
L 525.398182 333.804144 
L 747.834545 341.089123 
" clip-path="url(#p39364988d7)" style="fill: none; stroke: #d62728; stroke-width: 2; stroke-linecap: square"/>
    <defs>
     <path id="m44d66f60bc" d="M 0 3 
C 0.795609 3 1.55874 2.683901 2.12132 2.12132 
C 2.683901 1.55874 3 0.795609 3 0 
C 3 -0.795609 2.683901 -1.55874 2.12132 -2.12132 
C 1.55874 -2.683901 0.795609 -3 0 -3 
C -0.795609 -3 -1.55874 -2.683901 -2.12132 -2.12132 
C -2.683901 -1.55874 -3 -0.795609 -3 0 
C -3 0.795609 -2.683901 1.55874 -2.12132 2.12132 
C -1.55874 2.683901 -0.795609 3 0 3 
z
" style="stroke: #d62728"/>
    </defs>
    <g clip-path="url(#p39364988d7)">
     <use xlink:href="#m44d66f60bc" x="80.525455" y="341.089123" style="fill: #d62728; stroke: #d62728"/>
     <use xlink:href="#m44d66f60bc" x="302.961818" y="304.664227" style="fill: #d62728; stroke: #d62728"/>
     <use xlink:href="#m44d66f60bc" x="525.398182" y="333.804144" style="fill: #d62728; stroke: #d62728"/>
     <use xlink:href="#m44d66f60bc" x="747.834545" y="341.089123" style="fill: #d62728; stroke: #d62728"/>
    </g>
   </g>
   <g id="line2d_21">
    <path d="M 80.525455 76.611453 
L 302.961818 207.608199 
L 525.398182 114.178633 
L 747.834545 96.079248 
" clip-path="url(#p39364988d7)" style="fill: none; stroke: #9467bd; stroke-width: 2; stroke-linecap: square"/>
    <defs>
     <path id="m705a8080c9" d="M 0 3 
C 0.795609 3 1.55874 2.683901 2.12132 2.12132 
C 2.683901 1.55874 3 0.795609 3 0 
C 3 -0.795609 2.683901 -1.55874 2.12132 -2.12132 
C 1.55874 -2.683901 0.795609 -3 0 -3 
C -0.795609 -3 -1.55874 -2.683901 -2.12132 -2.12132 
C -2.683901 -1.55874 -3 -0.795609 -3 0 
C -3 0.795609 -2.683901 1.55874 -2.12132 2.12132 
C -1.55874 2.683901 -0.795609 3 0 3 
z
" style="stroke: #9467bd"/>
    </defs>
    <g clip-path="url(#p39364988d7)">
     <use xlink:href="#m705a8080c9" x="80.525455" y="76.611453" style="fill: #9467bd; stroke: #9467bd"/>
     <use xlink:href="#m705a8080c9" x="302.961818" y="207.608199" style="fill: #9467bd; stroke: #9467bd"/>
     <use xlink:href="#m705a8080c9" x="525.398182" y="114.178633" style="fill: #9467bd; stroke: #9467bd"/>
     <use xlink:href="#m705a8080c9" x="747.834545" y="96.079248" style="fill: #9467bd; stroke: #9467bd"/>
    </g>
   </g>
   <g id="patch_3">
    <path d="M 47.16 355.659081 
L 47.16 35.12 
" style="fill: none; stroke: #000000; stroke-width: 0.8; stroke-linejoin: miter; stroke-linecap: square"/>
   </g>
   <g id="patch_4">
    <path d="M 781.2 355.659081 
L 781.2 35.12 
" style="fill: none; stroke: #000000; stroke-width: 0.8; stroke-linejoin: miter; stroke-linecap: square"/>
   </g>
   <g id="patch_5">
    <path d="M 47.16 355.659081 
L 781.2 355.659081 
" style="fill: none; stroke: #000000; stroke-width: 0.8; stroke-linejoin: miter; stroke-linecap: square"/>
   </g>
   <g id="patch_6">
    <path d="M 47.16 35.12 
L 781.2 35.12 
" style="fill: none; stroke: #000000; stroke-width: 0.8; stroke-linejoin: miter; stroke-linecap: square"/>
   </g>
   <g id="text_13">
    <!-- W08 metrics from metrics_summary.csv -->
    <g transform="translate(284.113438 23.12) scale(0.14 -0.14)">
     <defs>
      <path id="NotoSansCJKkr-Regular-38" d="M 1158 0 
L 1862 0 
L 2560 2829 
C 2637 3200 2726 3539 2797 3898 
L 2822 3898 
C 2899 3539 2970 3200 3053 2829 
L 3763 0 
L 4480 0 
L 5446 4691 
L 4883 4691 
L 4378 2138 
C 4294 1632 4205 1126 4122 614 
L 4083 614 
C 3968 1126 3866 1638 3750 2138 
L 3098 4691 
L 2554 4691 
L 1907 2138 
C 1792 1632 1677 1126 1574 614 
L 1549 614 
C 1453 1126 1363 1632 1267 2138 
L 774 4691 
L 166 4691 
L 1158 0 
z
" transform="scale(0.015625)"/>
      <path id="NotoSansCJKkr-Regular-f6b1" d="M 1779 -83 
C 2688 -83 3238 768 3238 2298 
C 3238 3821 2688 4646 1779 4646 
C 864 4646 320 3827 320 2298 
C 320 768 864 -83 1779 -83 
z
M 1779 390 
C 1248 390 883 960 883 2298 
C 883 3635 1248 4179 1779 4179 
C 2310 4179 2675 3635 2675 2298 
C 2675 960 2310 390 1779 390 
z
" transform="scale(0.015625)"/>
      <path id="NotoSansCJKkr-Regular-f6b9" d="M 1792 -83 
C 2669 -83 3258 448 3258 1126 
C 3258 1741 2874 2067 2470 2310 
L 2470 2336 
C 2746 2547 3091 2957 3091 3437 
C 3091 4141 2605 4646 1805 4646 
C 1075 4646 518 4179 518 3482 
C 518 3002 813 2662 1152 2426 
L 1152 2400 
C 730 2170 294 1760 294 1165 
C 294 442 922 -83 1792 -83 
z
M 2112 2483 
C 1562 2701 1050 2931 1050 3482 
C 1050 3923 1363 4211 1798 4211 
C 2298 4211 2592 3853 2592 3405 
C 2592 3066 2419 2765 2112 2483 
z
M 1798 352 
C 1235 352 813 717 813 1216 
C 813 1645 1088 1978 1459 2214 
C 2118 1946 2701 1747 2701 1146 
C 2701 678 2342 352 1798 352 
z
" transform="scale(0.015625)"/>
      <path id="NotoSansCJKkr-Regular-47" d="M 211 3002 
L 685 3002 
L 685 0 
L 1267 0 
L 1267 3002 
L 2003 3002 
L 2003 3475 
L 1267 3475 
L 1267 4026 
C 1267 4474 1427 4710 1760 4710 
C 1882 4710 2022 4678 2150 4614 
L 2278 5069 
C 2118 5133 1914 5178 1696 5178 
C 1005 5178 685 4736 685 4032 
L 685 3475 
L 211 3443 
L 211 3002 
z
" transform="scale(0.015625)"/>
      <path id="NotoSansCJKkr-Regular-40" d="M 83 -896 
L 3488 -896 
L 3488 -512 
L 83 -512 
L 83 -896 
z
" transform="scale(0.015625)"/>
      <path id="NotoSansCJKkr-Regular-5a" d="M 646 -1498 
C 1338 -1498 1702 -973 1946 -294 
L 3251 3475 
L 2682 3475 
L 2054 1549 
C 1965 1235 1862 883 1773 563 
L 1741 563 
C 1619 890 1504 1242 1395 1549 
L 691 3475 
L 83 3475 
L 1478 -6 
L 1402 -269 
C 1254 -698 1011 -1018 621 -1018 
C 525 -1018 422 -986 352 -960 
L 237 -1427 
C 346 -1472 486 -1498 646 -1498 
z
" transform="scale(0.015625)"/>
     </defs>
     <use xlink:href="#NotoSansCJKkr-Regular-38"/>
     <use xlink:href="#NotoSansCJKkr-Regular-f6b1" transform="translate(87.796875 0)"/>
     <use xlink:href="#NotoSansCJKkr-Regular-f6b9" transform="translate(143.296875 0)"/>
     <use xlink:href="#NotoSansCJKkr-Regular-1" transform="translate(198.796875 0)"/>
     <use xlink:href="#NotoSansCJKkr-Regular-4e" transform="translate(221.203125 0)"/>
     <use xlink:href="#NotoSansCJKkr-Regular-46" transform="translate(313.796875 0)"/>
     <use xlink:href="#NotoSansCJKkr-Regular-55" transform="translate(368.109375 0)"/>
     <use xlink:href="#NotoSansCJKkr-Regular-53" transform="translate(405.8125 0)"/>
     <use xlink:href="#NotoSansCJKkr-Regular-4a" transform="translate(444.609375 0)"/>
     <use xlink:href="#NotoSansCJKkr-Regular-44" transform="translate(472.109375 0)"/>
     <use xlink:href="#NotoSansCJKkr-Regular-54" transform="translate(523.109375 0)"/>
     <use xlink:href="#NotoSansCJKkr-Regular-1" transform="translate(569.90625 0)"/>
     <use xlink:href="#NotoSansCJKkr-Regular-47" transform="translate(592.3125 0)"/>
     <use xlink:href="#NotoSansCJKkr-Regular-53" transform="translate(624.8125 0)"/>
     <use xlink:href="#NotoSansCJKkr-Regular-50" transform="translate(662.515625 0)"/>
     <use xlink:href="#NotoSansCJKkr-Regular-4e" transform="translate(723.109375 0)"/>
     <use xlink:href="#NotoSansCJKkr-Regular-1" transform="translate(815.703125 0)"/>
     <use xlink:href="#NotoSansCJKkr-Regular-4e" transform="translate(838.109375 0)"/>
     <use xlink:href="#NotoSansCJKkr-Regular-46" transform="translate(930.703125 0)"/>
     <use xlink:href="#NotoSansCJKkr-Regular-55" transform="translate(985.015625 0)"/>
     <use xlink:href="#NotoSansCJKkr-Regular-53" transform="translate(1022.71875 0)"/>
     <use xlink:href="#NotoSansCJKkr-Regular-4a" transform="translate(1061.515625 0)"/>
     <use xlink:href="#NotoSansCJKkr-Regular-44" transform="translate(1089.015625 0)"/>
     <use xlink:href="#NotoSansCJKkr-Regular-54" transform="translate(1140.015625 0)"/>
     <use xlink:href="#NotoSansCJKkr-Regular-40" transform="translate(1186.8125 0)"/>
     <use xlink:href="#NotoSansCJKkr-Regular-54" transform="translate(1242.71875 0)"/>
     <use xlink:href="#NotoSansCJKkr-Regular-56" transform="translate(1289.515625 0)"/>
     <use xlink:href="#NotoSansCJKkr-Regular-4e" transform="translate(1350.21875 0)"/>
     <use xlink:href="#NotoSansCJKkr-Regular-4e" transform="translate(1442.8125 0)"/>
     <use xlink:href="#NotoSansCJKkr-Regular-42" transform="translate(1535.40625 0)"/>
     <use xlink:href="#NotoSansCJKkr-Regular-53" transform="translate(1591.703125 0)"/>
     <use xlink:href="#NotoSansCJKkr-Regular-5a" transform="translate(1633.40625 0)"/>
     <use xlink:href="#NotoSansCJKkr-Regular-f" transform="translate(1681.703125 0)"/>
     <use xlink:href="#NotoSansCJKkr-Regular-44" transform="translate(1708.203125 0)"/>
     <use xlink:href="#NotoSansCJKkr-Regular-54" transform="translate(1759.203125 0)"/>
     <use xlink:href="#NotoSansCJKkr-Regular-57" transform="translate(1806 0)"/>
    </g>
   </g>
   <g id="legend_1">
    <g id="patch_7">
     <path d="M 659.68 226.90954 
L 775.6 226.90954 
Q 777.2 226.90954 777.2 225.30954 
L 777.2 165.46954 
Q 777.2 163.86954 775.6 163.86954 
L 659.68 163.86954 
Q 658.08 163.86954 658.08 165.46954 
L 658.08 225.30954 
Q 658.08 226.90954 659.68 226.90954 
z
" style="fill: #ffffff; opacity: 0.8; stroke: #cccccc; stroke-linejoin: miter"/>
    </g>
    <g id="line2d_22">
     <path d="M 661.28 171.30954 
L 669.28 171.30954 
L 677.28 171.30954 
" style="fill: none; stroke: #1f77b4; stroke-width: 2; stroke-linecap: square"/>
     <g>
      <use xlink:href="#m8ed1687d85" x="669.28" y="171.30954" style="fill: #1f77b4; stroke: #1f77b4"/>
     </g>
    </g>
    <g id="text_14">
     <!-- retrieval_relevance -->
     <g transform="translate(683.68 174.10954) scale(0.08 -0.08)">
      <use xlink:href="#NotoSansCJKkr-Regular-53"/>
      <use xlink:href="#NotoSansCJKkr-Regular-46" transform="translate(37.703125 0)"/>
      <use xlink:href="#NotoSansCJKkr-Regular-55" transform="translate(92.015625 0)"/>
      <use xlink:href="#NotoSansCJKkr-Regular-53" transform="translate(129.71875 0)"/>
      <use xlink:href="#NotoSansCJKkr-Regular-4a" transform="translate(168.515625 0)"/>
      <use xlink:href="#NotoSansCJKkr-Regular-46" transform="translate(196.015625 0)"/>
      <use xlink:href="#NotoSansCJKkr-Regular-57" transform="translate(251.921875 0)"/>
      <use xlink:href="#NotoSansCJKkr-Regular-42" transform="translate(301.8125 0)"/>
      <use xlink:href="#NotoSansCJKkr-Regular-4d" transform="translate(358.109375 0)"/>
      <use xlink:href="#NotoSansCJKkr-Regular-40" transform="translate(386.515625 0)"/>
      <use xlink:href="#NotoSansCJKkr-Regular-53" transform="translate(442.421875 0)"/>
      <use xlink:href="#NotoSansCJKkr-Regular-46" transform="translate(480.125 0)"/>
      <use xlink:href="#NotoSansCJKkr-Regular-4d" transform="translate(535.53125 0)"/>
      <use xlink:href="#NotoSansCJKkr-Regular-46" transform="translate(563.9375 0)"/>
      <use xlink:href="#NotoSansCJKkr-Regular-57" transform="translate(619.84375 0)"/>
      <use xlink:href="#NotoSansCJKkr-Regular-42" transform="translate(669.734375 0)"/>
      <use xlink:href="#NotoSansCJKkr-Regular-4f" transform="translate(726.03125 0)"/>
      <use xlink:href="#NotoSansCJKkr-Regular-44" transform="translate(787.03125 0)"/>
      <use xlink:href="#NotoSansCJKkr-Regular-46" transform="translate(835.625 0)"/>
     </g>
    </g>
    <g id="line2d_23">
     <path d="M 661.28 183.46954 
L 669.28 183.46954 
L 677.28 183.46954 
" style="fill: none; stroke: #ff7f0e; stroke-width: 2; stroke-linecap: square"/>
     <g>
      <use xlink:href="#m5979d4cd76" x="669.28" y="183.46954" style="fill: #ff7f0e; stroke: #ff7f0e"/>
     </g>
    </g>
    <g id="text_15">
     <!-- attack_success_rate -->
     <g transform="translate(683.68 186.26954) scale(0.08 -0.08)">
      <defs>
       <path id="NotoSansCJKkr-Regular-4c" d="M 589 0 
L 1165 0 
L 1165 915 
L 1818 1677 
L 2835 0 
L 3469 0 
L 2157 2074 
L 3315 3475 
L 2662 3475 
L 1190 1645 
L 1165 1645 
L 1165 5094 
L 589 5094 
L 589 0 
z
" transform="scale(0.015625)"/>
      </defs>
      <use xlink:href="#NotoSansCJKkr-Regular-42"/>
      <use xlink:href="#NotoSansCJKkr-Regular-55" transform="translate(54.796875 0)"/>
      <use xlink:href="#NotoSansCJKkr-Regular-55" transform="translate(90.296875 0)"/>
      <use xlink:href="#NotoSansCJKkr-Regular-42" transform="translate(125.59375 0)"/>
      <use xlink:href="#NotoSansCJKkr-Regular-44" transform="translate(181.890625 0)"/>
      <use xlink:href="#NotoSansCJKkr-Regular-4c" transform="translate(232.890625 0)"/>
      <use xlink:href="#NotoSansCJKkr-Regular-40" transform="translate(288.09375 0)"/>
      <use xlink:href="#NotoSansCJKkr-Regular-54" transform="translate(344 0)"/>
      <use xlink:href="#NotoSansCJKkr-Regular-56" transform="translate(390.796875 0)"/>
      <use xlink:href="#NotoSansCJKkr-Regular-44" transform="translate(451.5 0)"/>
      <use xlink:href="#NotoSansCJKkr-Regular-44" transform="translate(500.09375 0)"/>
      <use xlink:href="#NotoSansCJKkr-Regular-46" transform="translate(548.6875 0)"/>
      <use xlink:href="#NotoSansCJKkr-Regular-54" transform="translate(604.09375 0)"/>
      <use xlink:href="#NotoSansCJKkr-Regular-54" transform="translate(650.890625 0)"/>
      <use xlink:href="#NotoSansCJKkr-Regular-40" transform="translate(697.6875 0)"/>
      <use xlink:href="#NotoSansCJKkr-Regular-53" transform="translate(753.59375 0)"/>
      <use xlink:href="#NotoSansCJKkr-Regular-42" transform="translate(789.6875 0)"/>
      <use xlink:href="#NotoSansCJKkr-Regular-55" transform="translate(844.484375 0)"/>
      <use xlink:href="#NotoSansCJKkr-Regular-46" transform="translate(880.6875 0)"/>
     </g>
    </g>
    <g id="line2d_24">
     <path d="M 661.28 195.62954 
L 669.28 195.62954 
L 677.28 195.62954 
" style="fill: none; stroke: #2ca02c; stroke-width: 2; stroke-linecap: square"/>
     <g>
      <use xlink:href="#m8d1d18c651" x="669.28" y="195.62954" style="fill: #2ca02c; stroke: #2ca02c"/>
     </g>
    </g>
    <g id="text_16">
     <!-- source_verification_rate -->
     <g transform="translate(683.68 198.42954) scale(0.08 -0.08)">
      <use xlink:href="#NotoSansCJKkr-Regular-54"/>
      <use xlink:href="#NotoSansCJKkr-Regular-50" transform="translate(46.796875 0)"/>
      <use xlink:href="#NotoSansCJKkr-Regular-56" transform="translate(107.390625 0)"/>
      <use xlink:href="#NotoSansCJKkr-Regular-53" transform="translate(168.09375 0)"/>
      <use xlink:href="#NotoSansCJKkr-Regular-44" transform="translate(205.796875 0)"/>
      <use xlink:href="#NotoSansCJKkr-Regular-46" transform="translate(254.390625 0)"/>
      <use xlink:href="#NotoSansCJKkr-Regular-40" transform="translate(309.796875 0)"/>
      <use xlink:href="#NotoSansCJKkr-Regular-57" transform="translate(365.703125 0)"/>
      <use xlink:href="#NotoSansCJKkr-Regular-46" transform="translate(417.390625 0)"/>
      <use xlink:href="#NotoSansCJKkr-Regular-53" transform="translate(472.796875 0)"/>
      <use xlink:href="#NotoSansCJKkr-Regular-4a" transform="translate(511.59375 0)"/>
      <use xlink:href="#NotoSansCJKkr-Regular-e65f" transform="translate(539.09375 0)"/>
      <use xlink:href="#NotoSansCJKkr-Regular-44" transform="translate(599.09375 0)"/>
      <use xlink:href="#NotoSansCJKkr-Regular-42" transform="translate(649 0)"/>
      <use xlink:href="#NotoSansCJKkr-Regular-55" transform="translate(703.796875 0)"/>
      <use xlink:href="#NotoSansCJKkr-Regular-4a" transform="translate(741.5 0)"/>
      <use xlink:href="#NotoSansCJKkr-Regular-50" transform="translate(769 0)"/>
      <use xlink:href="#NotoSansCJKkr-Regular-4f" transform="translate(829.59375 0)"/>
      <use xlink:href="#NotoSansCJKkr-Regular-40" transform="translate(890.59375 0)"/>
      <use xlink:href="#NotoSansCJKkr-Regular-53" transform="translate(946.5 0)"/>
      <use xlink:href="#NotoSansCJKkr-Regular-42" transform="translate(982.59375 0)"/>
      <use xlink:href="#NotoSansCJKkr-Regular-55" transform="translate(1037.390625 0)"/>
      <use xlink:href="#NotoSansCJKkr-Regular-46" transform="translate(1073.59375 0)"/>
     </g>
    </g>
    <g id="line2d_25">
     <path d="M 661.28 207.78954 
L 669.28 207.78954 
L 677.28 207.78954 
" style="fill: none; stroke: #d62728; stroke-width: 2; stroke-linecap: square"/>
     <g>
      <use xlink:href="#m44d66f60bc" x="669.28" y="207.78954" style="fill: #d62728; stroke: #d62728"/>
     </g>
    </g>
    <g id="text_17">
     <!-- tool_misuse_rate -->
     <g transform="translate(683.68 210.58954) scale(0.08 -0.08)">
      <use xlink:href="#NotoSansCJKkr-Regular-55"/>
      <use xlink:href="#NotoSansCJKkr-Regular-50" transform="translate(36.203125 0)"/>
      <use xlink:href="#NotoSansCJKkr-Regular-50" transform="translate(96.796875 0)"/>
      <use xlink:href="#NotoSansCJKkr-Regular-4d" transform="translate(157.390625 0)"/>
      <use xlink:href="#NotoSansCJKkr-Regular-40" transform="translate(185.796875 0)"/>
      <use xlink:href="#NotoSansCJKkr-Regular-4e" transform="translate(241.703125 0)"/>
      <use xlink:href="#NotoSansCJKkr-Regular-4a" transform="translate(334.296875 0)"/>
      <use xlink:href="#NotoSansCJKkr-Regular-54" transform="translate(361.796875 0)"/>
      <use xlink:href="#NotoSansCJKkr-Regular-56" transform="translate(408.59375 0)"/>
      <use xlink:href="#NotoSansCJKkr-Regular-54" transform="translate(469.296875 0)"/>
      <use xlink:href="#NotoSansCJKkr-Regular-46" transform="translate(516.09375 0)"/>
      <use xlink:href="#NotoSansCJKkr-Regular-40" transform="translate(571.5 0)"/>
      <use xlink:href="#NotoSansCJKkr-Regular-53" transform="translate(627.40625 0)"/>
      <use xlink:href="#NotoSansCJKkr-Regular-42" transform="translate(663.5 0)"/>
      <use xlink:href="#NotoSansCJKkr-Regular-55" transform="translate(718.296875 0)"/>
      <use xlink:href="#NotoSansCJKkr-Regular-46" transform="translate(754.5 0)"/>
     </g>
    </g>
    <g id="line2d_26">
     <path d="M 661.28 219.94954 
L 669.28 219.94954 
L 677.28 219.94954 
" style="fill: none; stroke: #9467bd; stroke-width: 2; stroke-linecap: square"/>
     <g>
      <use xlink:href="#m705a8080c9" x="669.28" y="219.94954" style="fill: #9467bd; stroke: #9467bd"/>
     </g>
    </g>
    <g id="text_18">
     <!-- faithfulness -->
     <g transform="translate(683.68 222.74954) scale(0.08 -0.08)">
      <defs>
       <path id="NotoSansCJKkr-Regular-49" d="M 589 0 
L 1178 0 
L 1178 2522 
C 1523 2874 1766 3053 2125 3053 
C 2586 3053 2784 2778 2784 2125 
L 2784 0 
L 3366 0 
L 3366 2202 
C 3366 3085 3034 3565 2304 3565 
C 1830 3565 1472 3302 1152 2982 
L 1178 3699 
L 1178 5094 
L 589 5094 
L 589 0 
z
" transform="scale(0.015625)"/>
      </defs>
      <use xlink:href="#NotoSansCJKkr-Regular-47"/>
      <use xlink:href="#NotoSansCJKkr-Regular-42" transform="translate(30.296875 0)"/>
      <use xlink:href="#NotoSansCJKkr-Regular-4a" transform="translate(86.59375 0)"/>
      <use xlink:href="#NotoSansCJKkr-Regular-55" transform="translate(114.09375 0)"/>
      <use xlink:href="#NotoSansCJKkr-Regular-49" transform="translate(151.796875 0)"/>
      <use xlink:href="#NotoSansCJKkr-Regular-47" transform="translate(212.5 0)"/>
      <use xlink:href="#NotoSansCJKkr-Regular-56" transform="translate(245 0)"/>
      <use xlink:href="#NotoSansCJKkr-Regular-4d" transform="translate(305.703125 0)"/>
      <use xlink:href="#NotoSansCJKkr-Regular-4f" transform="translate(334.109375 0)"/>
      <use xlink:href="#NotoSansCJKkr-Regular-46" transform="translate(395.109375 0)"/>
      <use xlink:href="#NotoSansCJKkr-Regular-54" transform="translate(450.515625 0)"/>
      <use xlink:href="#NotoSansCJKkr-Regular-54" transform="translate(497.3125 0)"/>
     </g>
    </g>
   </g>
  </g>
  <g id="text_19">
   <!-- Data source: 04_experiment/outputs/metrics_summary.csv -->
   <g style="fill: #555555" transform="translate(7.92 441.936) scale(0.08 -0.08)">
    <defs>
     <path id="NotoSansCJKkr-Regular-25" d="M 646 0 
L 1843 0 
C 3258 0 4026 877 4026 2362 
C 4026 3859 3258 4691 1818 4691 
L 646 4691 
L 646 0 
z
M 1235 486 
L 1235 4211 
L 1766 4211 
C 2874 4211 3418 3552 3418 2362 
C 3418 1178 2874 486 1766 486 
L 1235 486 
z
" transform="scale(0.015625)"/>
     <path id="NotoSansCJKkr-Regular-1b" d="M 890 2496 
C 1120 2496 1312 2675 1312 2944 
C 1312 3206 1120 3392 890 3392 
C 653 3392 467 3206 467 2944 
C 467 2675 653 2496 890 2496 
z
M 890 -83 
C 1120 -83 1312 96 1312 358 
C 1312 627 1120 806 890 806 
C 653 806 467 627 467 358 
C 467 96 653 -83 890 -83 
z
" transform="scale(0.015625)"/>
     <path id="NotoSansCJKkr-Regular-f6b5" d="M 2176 0 
L 2726 0 
L 2726 1261 
L 3354 1261 
L 3354 1728 
L 2726 1728 
L 2726 4563 
L 2080 4563 
L 128 1645 
L 128 1261 
L 2176 1261 
L 2176 0 
z
M 2176 1728 
L 736 1728 
L 1805 3290 
C 1939 3520 2067 3718 2182 3936 
L 2208 3936 
C 2195 3699 2176 3296 2176 3066 
L 2176 1728 
z
" transform="scale(0.015625)"/>
     <path id="NotoSansCJKkr-Regular-59" d="M 96 0 
L 710 0 
L 1178 813 
C 1299 1024 1408 1235 1530 1434 
L 1562 1434 
C 1696 1235 1824 1024 1939 813 
L 2451 0 
L 3091 0 
L 1946 1754 
L 3002 3475 
L 2394 3475 
L 1965 2714 
C 1856 2515 1760 2330 1658 2131 
L 1626 2131 
C 1510 2330 1389 2515 1286 2714 
L 819 3475 
L 186 3475 
L 1242 1811 
L 96 0 
z
" transform="scale(0.015625)"/>
     <path id="NotoSansCJKkr-Regular-10" d="M 70 -1146 
L 499 -1146 
L 2413 5082 
L 1990 5082 
L 70 -1146 
z
" transform="scale(0.015625)"/>
    </defs>
    <use xlink:href="#NotoSansCJKkr-Regular-25"/>
    <use xlink:href="#NotoSansCJKkr-Regular-42" transform="translate(68.796875 0)"/>
    <use xlink:href="#NotoSansCJKkr-Regular-55" transform="translate(123.59375 0)"/>
    <use xlink:href="#NotoSansCJKkr-Regular-42" transform="translate(158.890625 0)"/>
    <use xlink:href="#NotoSansCJKkr-Regular-1" transform="translate(215.1875 0)"/>
    <use xlink:href="#NotoSansCJKkr-Regular-54" transform="translate(237.59375 0)"/>
    <use xlink:href="#NotoSansCJKkr-Regular-50" transform="translate(284.390625 0)"/>
    <use xlink:href="#NotoSansCJKkr-Regular-56" transform="translate(344.984375 0)"/>
    <use xlink:href="#NotoSansCJKkr-Regular-53" transform="translate(405.6875 0)"/>
    <use xlink:href="#NotoSansCJKkr-Regular-44" transform="translate(443.390625 0)"/>
    <use xlink:href="#NotoSansCJKkr-Regular-46" transform="translate(491.984375 0)"/>
    <use xlink:href="#NotoSansCJKkr-Regular-1b" transform="translate(547.390625 0)"/>
    <use xlink:href="#NotoSansCJKkr-Regular-1" transform="translate(575.1875 0)"/>
    <use xlink:href="#NotoSansCJKkr-Regular-f6b1" transform="translate(597.59375 0)"/>
    <use xlink:href="#NotoSansCJKkr-Regular-f6b5" transform="translate(653.09375 0)"/>
    <use xlink:href="#NotoSansCJKkr-Regular-40" transform="translate(708.59375 0)"/>
    <use xlink:href="#NotoSansCJKkr-Regular-46" transform="translate(764.5 0)"/>
    <use xlink:href="#NotoSansCJKkr-Regular-59" transform="translate(819.109375 0)"/>
    <use xlink:href="#NotoSansCJKkr-Regular-51" transform="translate(868.90625 0)"/>
    <use xlink:href="#NotoSansCJKkr-Regular-46" transform="translate(930.90625 0)"/>
    <use xlink:href="#NotoSansCJKkr-Regular-53" transform="translate(986.3125 0)"/>
    <use xlink:href="#NotoSansCJKkr-Regular-4a" transform="translate(1025.109375 0)"/>
    <use xlink:href="#NotoSansCJKkr-Regular-4e" transform="translate(1052.609375 0)"/>
    <use xlink:href="#NotoSansCJKkr-Regular-46" transform="translate(1145.203125 0)"/>
    <use xlink:href="#NotoSansCJKkr-Regular-4f" transform="translate(1200.609375 0)"/>
    <use xlink:href="#NotoSansCJKkr-Regular-55" transform="translate(1261.609375 0)"/>
    <use xlink:href="#NotoSansCJKkr-Regular-10" transform="translate(1300.40625 0)"/>
    <use xlink:href="#NotoSansCJKkr-Regular-50" transform="translate(1336.109375 0)"/>
    <use xlink:href="#NotoSansCJKkr-Regular-56" transform="translate(1396.703125 0)"/>
    <use xlink:href="#NotoSansCJKkr-Regular-55" transform="translate(1457.40625 0)"/>
    <use xlink:href="#NotoSansCJKkr-Regular-51" transform="translate(1495.109375 0)"/>
    <use xlink:href="#NotoSansCJKkr-Regular-56" transform="translate(1557.109375 0)"/>
    <use xlink:href="#NotoSansCJKkr-Regular-55" transform="translate(1617.8125 0)"/>
    <use xlink:href="#NotoSansCJKkr-Regular-54" transform="translate(1654.421875 0)"/>
    <use xlink:href="#NotoSansCJKkr-Regular-10" transform="translate(1701.21875 0)"/>
    <use xlink:href="#NotoSansCJKkr-Regular-4e" transform="translate(1740.421875 0)"/>
    <use xlink:href="#NotoSansCJKkr-Regular-46" transform="translate(1833.015625 0)"/>
    <use xlink:href="#NotoSansCJKkr-Regular-55" transform="translate(1887.328125 0)"/>
    <use xlink:href="#NotoSansCJKkr-Regular-53" transform="translate(1925.03125 0)"/>
    <use xlink:href="#NotoSansCJKkr-Regular-4a" transform="translate(1963.828125 0)"/>
    <use xlink:href="#NotoSansCJKkr-Regular-44" transform="translate(1991.328125 0)"/>
    <use xlink:href="#NotoSansCJKkr-Regular-54" transform="translate(2042.328125 0)"/>
    <use xlink:href="#NotoSansCJKkr-Regular-40" transform="translate(2089.125 0)"/>
    <use xlink:href="#NotoSansCJKkr-Regular-54" transform="translate(2145.03125 0)"/>
    <use xlink:href="#NotoSansCJKkr-Regular-56" transform="translate(2191.828125 0)"/>
    <use xlink:href="#NotoSansCJKkr-Regular-4e" transform="translate(2252.53125 0)"/>
    <use xlink:href="#NotoSansCJKkr-Regular-4e" transform="translate(2345.125 0)"/>
    <use xlink:href="#NotoSansCJKkr-Regular-42" transform="translate(2437.71875 0)"/>
    <use xlink:href="#NotoSansCJKkr-Regular-53" transform="translate(2494.015625 0)"/>
    <use xlink:href="#NotoSansCJKkr-Regular-5a" transform="translate(2535.71875 0)"/>
    <use xlink:href="#NotoSansCJKkr-Regular-f" transform="translate(2584.015625 0)"/>
    <use xlink:href="#NotoSansCJKkr-Regular-44" transform="translate(2610.515625 0)"/>
    <use xlink:href="#NotoSansCJKkr-Regular-54" transform="translate(2661.515625 0)"/>
    <use xlink:href="#NotoSansCJKkr-Regular-57" transform="translate(2708.3125 0)"/>
   </g>
  </g>
 </g>
 <defs>
  <clipPath id="p39364988d7">
   <rect x="47.16" y="35.12" width="734.04" height="320.539081"/>
  </clipPath>
 </defs>
</svg>
