<svg xmlns="http://www.w3.org/2000/svg" width="1120" height="620" viewBox="0 0 1120 620" role="img" aria-label="W10 metrics chart">
<rect width="100%" height="100%" fill="#ffffff"/>
<text x="92" y="38" font-family="Arial, sans-serif" font-size="24" font-weight="700" fill="#111111">W10 metrics from metrics_summary.csv</text>
<text x="92" y="62" font-family="Arial, sans-serif" font-size="13" fill="#5f6368">Data source: 04_experiment/outputs/metrics_summary.csv</text>
<rect x="92" y="76" width="970" height="412" fill="#fafafa" stroke="#d9d6cf"/>
<line x1="92" y1="488.0" x2="1062" y2="488.0" stroke="#e5e1da"/>
<text x="80" y="492.0" text-anchor="end" font-family="Arial, sans-serif" font-size="12" fill="#5f6368">0.065</text>
<line x1="92" y1="385.0" x2="1062" y2="385.0" stroke="#e5e1da"/>
<text x="80" y="389.0" text-anchor="end" font-family="Arial, sans-serif" font-size="12" fill="#5f6368">0.323</text>
<line x1="92" y1="282.0" x2="1062" y2="282.0" stroke="#e5e1da"/>
<text x="80" y="286.0" text-anchor="end" font-family="Arial, sans-serif" font-size="12" fill="#5f6368">0.58</text>
<line x1="92" y1="179.0" x2="1062" y2="179.0" stroke="#e5e1da"/>
<text x="80" y="183.0" text-anchor="end" font-family="Arial, sans-serif" font-size="12" fill="#5f6368">0.838</text>
<line x1="92" y1="76.0" x2="1062" y2="76.0" stroke="#e5e1da"/>
<text x="80" y="80.0" text-anchor="end" font-family="Arial, sans-serif" font-size="12" fill="#5f6368">1.1</text>
<line x1="92" y1="488" x2="1062" y2="488" stroke="#111111"/>
<line x1="92" y1="76" x2="92" y2="488" stroke="#111111"/>
<text x="92.0" y="534" transform="rotate(28 92.0,534)" text-anchor="start" font-family="Arial, sans-serif" font-size="12" fill="#5f6368">Clean FL</text>
<text x="415.3" y="534" transform="rotate(28 415.3,534)" text-anchor="start" font-family="Arial, sans-serif" font-size="12" fill="#5f6368">Poisoned FL 10%</text>
<text x="738.7" y="534" transform="rotate(28 738.7,534)" text-anchor="start" font-family="Arial, sans-serif" font-size="12" fill="#5f6368">Poisoned FL 20%</text>
<text x="1062.0" y="534" transform="rotate(28 1062.0,534)" text-anchor="start" font-family="Arial, sans-serif" font-size="12" fill="#5f6368">Robust aggregation 20%</text>
<text x="577.0" y="596" text-anchor="middle" font-family="Arial, sans-serif" font-size="14" fill="#111111">condition</text>
<text x="24" y="282.0" transform="rotate(-90 24,282.0)" text-anchor="middle" font-family="Arial, sans-serif" font-size="14" fill="#111111">Metric value</text>
<polyline points="92.0,130.2 415.3,132.8 738.7,134.2 1062.0,132.2" fill="none" stroke="#1f3a5f" stroke-width="3"/>
<circle cx="92.0" cy="130.2" r="4" fill="#1f3a5f"/>
<circle cx="415.3" cy="132.8" r="4" fill="#1f3a5f"/>
<circle cx="738.7" cy="134.2" r="4" fill="#1f3a5f"/>
<circle cx="1062.0" cy="132.2" r="4" fill="#1f3a5f"/>
<rect x="812" y="94" width="12" height="12" fill="#1f3a5f"/>
<text x="830" y="105" font-family="Arial, sans-serif" font-size="12" fill="#111111">global_accuracy</text>
<polyline points="92.0,131.0 415.3,133.6 738.7,134.7 1062.0,132.8" fill="none" stroke="#b3261e" stroke-width="3"/>
<circle cx="92.0" cy="131.0" r="4" fill="#b3261e"/>
<circle cx="415.3" cy="133.6" r="4" fill="#b3261e"/>
<circle cx="738.7" cy="134.7" r="4" fill="#b3261e"/>
<circle cx="1062.0" cy="132.8" r="4" fill="#b3261e"/>
<rect x="812" y="114" width="12" height="12" fill="#b3261e"/>
<text x="830" y="125" font-family="Arial, sans-serif" font-size="12" fill="#111111">global_f1</text>
<polyline points="92.0,459.6 415.3,395.1 738.7,315.4 1062.0,419.1" fill="none" stroke="#166534" stroke-width="3"/>
<circle cx="92.0" cy="459.6" r="4" fill="#166534"/>
<circle cx="415.3" cy="395.1" r="4" fill="#166534"/>
<circle cx="738.7" cy="315.4" r="4" fill="#166534"/>
<circle cx="1062.0" cy="419.1" r="4" fill="#166534"/>
<rect x="812" y="134" width="12" height="12" fill="#166534"/>
<text x="830" y="145" font-family="Arial, sans-serif" font-size="12" fill="#111111">attack_success_rate</text>
<polyline points="92.0,337.0 415.3,342.7 738.7,319.4 1062.0,338.1" fill="none" stroke="#6d5aa8" stroke-width="3"/>
<circle cx="92.0" cy="337.0" r="4" fill="#6d5aa8"/>
<circle cx="415.3" cy="342.7" r="4" fill="#6d5aa8"/>
<circle cx="738.7" cy="319.4" r="4" fill="#6d5aa8"/>
<circle cx="1062.0" cy="338.1" r="4" fill="#6d5aa8"/>
<rect x="812" y="154" width="12" height="12" fill="#6d5aa8"/>
<text x="830" y="165" font-family="Arial, sans-serif" font-size="12" fill="#111111">privacy_leakage_proxy</text>
<polyline points="92.0,258.9 415.3,178.5 738.7,104.4 1062.0,142.2" fill="none" stroke="#9a3412" stroke-width="3"/>
<circle cx="92.0" cy="258.9" r="4" fill="#9a3412"/>
<circle cx="415.3" cy="178.5" r="4" fill="#9a3412"/>
<circle cx="738.7" cy="104.4" r="4" fill="#9a3412"/>
<circle cx="1062.0" cy="142.2" r="4" fill="#9a3412"/>
<rect x="812" y="174" width="12" height="12" fill="#9a3412"/>
<text x="830" y="185" font-family="Arial, sans-serif" font-size="12" fill="#111111">mean_update_norm</text>
</svg>
